<mxfile host="app.diagrams.net" modified="2021-01-15T02:30:54.969Z" agent="5.0 (Windows NT 10.0; Win64; x64) AppleWebKit/537.36 (KHTML, like Gecko) Chrome/86.0.4240.198 Safari/537.36" etag="ftZ8pcFyd6WhU04TF3Qo" version="14.1.9" type="github">
  <diagram id="sRVooU2fWHCJrUtsd0XZ" name="Page-1">
    <mxGraphModel dx="1117" dy="670" grid="1" gridSize="10" guides="1" tooltips="1" connect="1" arrows="1" fold="1" page="1" pageScale="1" pageWidth="827" pageHeight="1169" math="0" shadow="0">
      <root>
        <mxCell id="0" />
        <mxCell id="1" parent="0" />
        <mxCell id="xayG-Btkx8n_wcvoAhUc-1" value="两阶段提交（询问-&amp;gt;执行）, 有一个协调者来协调多个资源管理器，只要一个资源说不OK，那么事务将回滚(强一致性，事务很长，效率低，不适合高并发场景)&lt;br&gt;TCC（try,confirm,cancel）针对一致性要求很高，比喻涉及钱的问题。必须强一致性，需要手动写代码来进行回滚和补偿，业务代码很难维护&lt;br&gt;本地消息表&lt;br&gt;可靠消息最终一致性，https://www.jianshu.com/p/286cac4625b6&amp;nbsp;&lt;span style=&quot;color: rgba(0 , 0 , 0 , 0) ; font-family: monospace ; font-size: 0px&quot;&gt;%3CmxGraphModel%3E%3Croot%3E%3CmxCell%20id%3D%220%22%2F%3E%3CmxCell%20id%3D%221%22%20parent%3D%220%22%2F%3E%3CUserObject%20label%3D%22https%3A%2F%2Fwww.jianshu.com%2Fp%2F286cac4625b6%22%20link%3D%22https%3A%2F%2Fwww.jianshu.com%2Fp%2F286cac4625b6%22%20id%3D%222%22%3E%3CmxCell%20style%3D%22text%3BwhiteSpace%3Dwrap%3Bhtml%3D1%3B%22%20vertex%3D%221%22%20parent%3D%221%22%3E%3CmxGeometry%20x%3D%22280%22%20y%3D%22855%22%20width%3D%22250%22%20height%3D%2230%22%20as%3D%22geometry%22%2F%3E%3C%2FmxCell%3E%3C%2FUserObject%3E%3C%2Froot%3E%3C%2FmxGraphModel%3E&lt;/span&gt;&lt;font color=&quot;rgba(0, 0, 0, 0)&quot; face=&quot;monospace&quot;&gt;&lt;span style=&quot;font-size: 0px&quot;&gt;https://www.jianshu.com/p/286cac4625b6&lt;/span&gt;&lt;/font&gt;" style="strokeWidth=2;html=1;shape=mxgraph.flowchart.annotation_1;align=left;pointerEvents=1;" vertex="1" parent="1">
          <mxGeometry x="82" y="40" width="50" height="100" as="geometry" />
        </mxCell>
        <mxCell id="xayG-Btkx8n_wcvoAhUc-25" value="" style="shape=image;verticalLabelPosition=bottom;labelBackgroundColor=#ffffff;verticalAlign=top;aspect=fixed;imageAspect=0;image=data:image/png,iVBORw0KGgoAAAANSUhEUgAABcIAAAJrCAYAAADDOuB8AAAgAElEQVR4Aezdh7s2VXU+/u/fRK8CCihFEBWkNwsWsFBEmqKANFGDIkqsiFgjKAhBJbGgKGqMJrElmmaNSUxiepvf9dlm8dvvME855T3vec+593Xt85xnZp6ZPfcus9a9773m/w1JQSAIBIEgEASCQBAIAkEgCASBIBAEgkAQCAJBIAgEgSAQBLYwAv9vC99bbi0IBIEgEASCQBAIAkEgCASBIBAEgkAQCAJBIAgEgSAQBILAECI8jSAIBIEgEASCQBAIAkEgCASBIBAEgkAQCAJBIAgEgSAQBLY0AiHCt3T15uaCQBAIAkEgCASBIBAEgkAQCAJBIAgEgSAQBIJAEAgCQSBEeNpAEAgCQSAIBIEgEASCQBAIAkEgCASBIBAEgkAQCAJBIAhsaQRChG/p6s3NBYEgEASCQBAIAkEgCASBIBAEgkAQCAJBIAgEgSAQBIJAiPC0gSAQBIJAEAgCQSAIBIEgEASCQBAIAkEgCASBIBAEgkAQ2NIIhAjf0tWbmwsCQSAIBIEgEASCQBAIAkEgCASBIBAEgkAQCAJBIAgEgRDhaQNBIAgEgSAQBIJAEAgCQSAIBIEgEASCQBAIAkEgCASBILClEQgRvqWrNzcXBIJAEAgCQSAIBIEgEASCQBAIAkEgCASBIBAEgkAQCAIhwtMGgkAQCAJBIAgEgSAQBIJAEAgCQSAIBIEgEASCQBAIAkFgSyMQInxLV29uLggEgSAQBIJAEAgCQSAIBIEgEASCQBAIAkEgCASBIBAEQoSnDQSBIBAEgkAQCAJBIAgEgSAQBIJAEAgCQSAIBIEgEASCwJZGIET4lq7e3FwQCAJBIAgEgSAQBIJAEAgCQSAIBIEgEASCQBAIAkEgCIQITxsIAkEgCASBIBAEgkAQCAJBIAgEgSAQBIJAEAgCQSAIBIEtjUCI8C1dvbm5IBAEgkAQCAJBIAgEgSAQBIJAEAgCQSAIBIEgEASCQBAIEZ42EASCQBAIAkEgCASBIBAEgkAQCAJBIAgEgSAQBIJAEAgCWxqBEOFbunpzc0EgCASBIBAEgkAQCAJBIAgEgSAQBIJAEAgCQSAIBIEgECI8bSAIBIEgEASCQBAIAkEgCASBIBAEgkAQCAJBIAgEgSAQBLY0AiHCt3T15uaCQBAIAkEgCASBIBAEgkAQCAJBIAgEgSAQBIJAEAgCQSBEeNpAEAgCQSAIBIEgEASCQBAIAkEgCASBIBAEgkAQCAJBIAhsaQRChG/p6s3NBYEgEASCQBAIAkEgCASBIBAEgkAQCAJBIAgEgSAQBIJAiPC0gSAQBIJAEAgCQSAIBIEgEASCQBAIAkEgCASBIBAEgkAQ2NIIhAjf0tWbmwsCQSAIBIEgEASCQBAIAkEgCASBIBAEgkAQCAJBIAgEgRDhaQNBIAgEgSAQBIJAEAgCQSAIBIEgEASCQBAIAkEgCASBILClEQgRvqWrNzcXBIJAEAgCQSAIBIEgEASCQBAIAkEgCASBIBAEgkAQCAIhwtMGgkAQCAJBIAgEgSAQBIJAEAgCQSAIBIEgEASCQBAIAkFgSyMQInxLV29uLggEgSAQBIJAEAgCQSAIBIEgEASCQBAIAkEgCASBIBAEQoSnDQSBIBAEgkAQCAJBIAgEgSAQBIJAEAgCQSAIBIEgEASCwJZGIET4lq7e3FwQCAJBIAgEgSAQBIJAEAgCQSAIBIEgEASCQBAIAkEgCIQITxsIAkEgCASBIBAEgkAQCAJBIAgEgSAQBIJAEAgCQSAIBIEtjUCI8C1dvbm5IBAEgkAQCAJBIAgEgSAQBIJAEAgCQSAIBIEgEASCQBAIEZ42EASCQBAIAkEgCASBIBAEgkAQCAJBIAgEgSAQBIJAEAgCWxqBEOFbunpzc0EgCASBIBAEgkAQCAJBIAgEgSAQBIJAEAgCQSAIBIEgECI8bSAIBIEgEASCQBAIAkEgCASBIBAEgkAQCAJBIAgEgSAQBLY0AiHCt3T15uaCQBAIAkEgCASBIBAEgkAQCAJBIAgEgSAQBIJAEAgCQSBEeNpAEAgCQSAIBIEgEASCQBAIAkEgCASBIBAEgkAQCAJBIAhsaQRChG/p6s3NBYHtg8B//ud/Dv/2b/82/O///u/2uencaRDYAgjos33ub6m299vyfxAIAkEgCASBIBAEgkAQCAJBIAgEgdUgECJ8NajlN0EgCGwqBJBlv/zlL4c/+7M/G/7rv/5rU5VtuxRGHfzP//zP8C//8i/Df/zHf+wwIWGferEv9bNdWsTy91lt45/+6Z8GE1p9Mrn161//urUb7Wi16d///d8HeS3nWO2187vZCKgPdTyexLTdeGK78SQpCASBIBAEgkAQCAJBIAgEgSCwHgiECF8PFHOOIBAEdikCyLN77713uPjii4df/epXu7Qs2/XiSMa/+qu/Gq6//vrhk5/8ZCOwCgsE57e+9a227+tf/3ptzmcQaAj89V//9XD//fcPt9xyy/CHf/iHO6Dye7/3e8Nb3/rW4Rvf+Mbwj//4jzvsW+YLQhXR/qEPfWh4//vfP/zrv/5rI1iX+W2O2bkI/Pd///fwt3/7t8O73/3u4e1vf3ubKEN+S8aTv/zLvxzuuOOO4b777tu5BcnZg0AQCAJBIAgEgSAQBIJAENg2CIQI3zZVnRsNAlsXAYrB97znPcNJJ53UiJWNulOkO4LubW972/AXf/EX60qw/fmf/3kjAJGA8kc/+tG5ykiE39/8zd8Mn/3sZ9uxCD/bVpv8loLbfX3pS18afvjDH869v5/97GeNAH/pS186fOxjH9tB2etePvKRjwyXXnrp8OUvf3m1RVr33yHdfv7znw+/+7u/2yZSEKZrwWzdC7hNToj8fuMb39gmSooIVzc/+clPhje/+c3DySefPFx33XXDb//2bw933XXX4/mP/uiPhp/+9KfDN7/5zUZ0v+td7xr6/JWvfKURqn/6p3863HTTTcNb3vKW1i53ZR3rU8pz5513trEDGbxeiXL+Ax/4wOPjxu23394wnHd+Y9jXvva1RkSbyCoiet5v5u0zKaneTHiZ/HK+WXjD4vOf//zwmte8ptV/v5Lk7/7u74YHHnhguPbaa9t4Nu+aG71P2R599NHW1owfa8Vso8uf6wWBIBAEgkAQCAJBIAgEge2MQIjw7Vz7ufcgsAkRoB5GbP3BH/zBDhnh/KMf/WiyxLuKCKdYpGbce++9h0ceeWRdw364X8T+gQceOBx11FGNEEJuz0rImO985zuNVDrjjDMGZM1aSDakGJKKivayyy5rit2psCZILsdSbSK6X/CCFzQVJ0JTpuJ97LHHhquvvnq48MILGyHe1y01MPXnrkhIO2Sqcp933nlNxR5Sa2NrQvv5/d///eGSSy5pEyjahkkVJCmV+Pnnn9/avzq6/PLLh1e84hXDueeeO5x44olt8uIHP/jB8NBDDw2vfe1r2z775eOOO64R3//wD/8wfPzjHx9e+cpXDtdcc00bW4wvfUZM//3f//2G3LgQTp/+9KeHY489tk3erWfYD+pq9/7kJz95OPTQQ1ub/t73vjf3vkx0mWDYf//9BxMHU3187gm6ne7tq1/9aiOuEdjU3PrYmAj33bFf/OIX27j24he/uE101JiBXDa2vv71r2/1Ri3ejxlCYO1KZb9JQZMqT3nKU4Zvf/vba8Ksgy//BoEgEASCQBAIAkEgCASBILABCIQI3wCQc4kgEASWQwAJiTQ95JBDhoMOOmiHjKi56qqrJk+0FYlwxBwiGhn+pje9qRGDY0KpB2O9ifDf+q3fGo444ojh8MMPH/bbb7+BunSKtEO2v+ENb2h1tu+++w4HHHBA+x9JJFOAf+pTnxqe/vSnP16fT3rSk4bK7u3HP/7xE8iy/t521v8hwncWssufV7tFVJ955pnDd7/73eHuu+9uammqYqsLjj/++DYRY2LHhMkf//Eft7b4vOc9bxA2RftzDgRuny+44ILWLinGr7jiiuGYY45pbRNBPM7I48985jPLF3oNR+5MIhw+CGP385KXvKTFVl80GbaeRLjJMGOGbALPxJcY3+qnT77fc889w2GHHdYIeGP7wQcf3MYLY4bJtz/5kz9pY5+6cq4aL3w6LzLauXdFChG+K1DPNYNAEAgCQSAIBIEgEASCwPogECJ8fXDMWYJAEFgnBBBgVNZIlc997nMt+/9FL3rRcMoppww33njj8KpXvarFAxcTXEaMUIgiSZBnGxWHemcqwoUsEJLkOc95zoCUniKhe8iRS+upCKfsFIaCWhSJKPzLuAyIeUQb9edzn/vc4eGHH27kJIJSiAqkuFANwtZQij/44INNOU89j3gU8gIRrs7nkfz9fa7n/yHC1xPN1Z3LKg/qWqsYrA647bbbWh/WZiiCX/e617VP/f53fud3WggP6nCTK0juWe3GOKBdUhlrZ7feeuvwhS98ofUp/Yq6/LTTTmvqbCE8hBXaiLQziXD9071cdNFFTUk/RUKP73E9iXDqfGPG+973vuGss85qhPxUGYwZH/7wh5vSXxgl44VsfHjWs57VQuT433gvhIzxorKxXhZuaVetJAkRPm5F+R4EgkCPAHvMODfr+dQfm/+DQBAIAkEgCASBjUcgRPjGY54rBoEgMAeBX/ziFy1EgnAHQhYgUqhAhT5Abr33ve9tpBYCtTJFMiJWSADkGUKYA1IKUnGzkWgf/OAH27l9d0wRu5bZI7W95BFZJmYuggYRb3udyzJ4cWuROFSsVI2u3YdGcSwH6Pvf//7j8bod73dIKtfkJP3zP//zgDgSO1u8Wdn5hAsQGmIeEe78Qj5QW3/iE59o5/BbLwxFEq1HaBTXhz9V+rOf/eyZRDgVLrJSaAvEsuwe3Q8luZAoFedcmSsJgUPVi6BEgLpndQ5z1/W/OhAbHXaIL+EyKsHQb1xHvcFRhoEQD/b1TqhyUhUj1BzjvIWZ8Bt9aBTnVj7tAOHqvI7XbpTDPSatDwIIT8StNiskhljh1Mxw1xaETUGGIrNf+MIXtjFAm0KgzyNCjRUydTGVMaW5OtUmjCkml9T7OMSGundu7V4f13erDdYLO51De0KeI3DFmDdGmbAzwUPZLukHSFOhULQh7VmbU6anPe1pO4RG0af1A9c1Vjleu9bH9UX73S/yH2auK7yLMvrfdVxvFhHuvvzeftj2Y5j46esRGsWYhliH08te9rK5RLiXl1L7G19rzBDa5fTTT2/1L6yKcWUc2sWEiPbid7CoFSe+G7vhCzvjojrpX7Cq3oxBJkphqD6UA95+q977MQNm2gqVvTA9PWbC7GhXFRrF79QRJbv61mYcr23Ypm76c69P78lZdhcEjBf6sbA+xrm1JO1Su2ZjjPvHWs67lt9q+56P+sOySZ81hvntVGILmlyH27xkXDP+GS/9pj+f9yYYj42r80LLzTp/4WwcWEkyDhqb2CeLyr+S8+bYIBAEgkAQCAJBYH0QCBG+PjjmLEEgCKwTAsJkvOMd7xiuvPLKRmggNJEaCG4qUY4NR9JnEQtIhvHLMpGmiOYivE499dSmGkeoIcCQs5wVDg6VJgJL+A4hFRBD1KLIDsSpY5wLSUfpiBgWygH5i2zriXBlcQ/vfOc7G6HjesKbiGuMNOewcciooBE2QsBQuLvWOeec0xTvVKycp1mKcPsotv1OOanG/VboGIRiT4QrDwKY04nomZXhycHuk98tS4SLwVzJeYS4QYQL04DUQmzDuUhkpCRMqIGRy46HKeU/FbnfIcUoRClDbVP2Ss6FzBK//Oyzz25EKZz9htrX9XoH1L2YZDBRoC2oF5MnXtTn/D0RrmzIL5MvjoFvEbHqDAGXtDYEtBFtU//Un3oiXJ0IDYRo1u/0f/uf8YxntHoSpgfZqt2oVySTOtHGKz//+c9vbQdpKlSHONP6u+saU/RF+2oMcTfapvNQNWsn2pI2pf5N2mgPrquvGF+0kVqpYsWEVQ/ao4kWSex8pLc2ZMWKvmq8ePWrX93CghizYCAhcPxOu9c+XVd/0Mf1DQSu9oxc0Rbdn4lA4xG8kFDONYsIrzHMffuN8ji/fmvM64lwRJLrGcdmjRe2w348ZiCljF/LEOHq0zgoqQfXVM/6s/EZQe06zlnp+uuvb/WmbEg0YW9OOOGEdixc/daY8cxnPrNNsvXEXL2vQD2qK/0eDj7Vt8kS44r2JKljRKNrwqowUycmZXoiHL7q24oGbUKbUYfq3r1oq1XXdS/53D4IaHsmVj3HPNfXkoxTJlesvDC+LJvYHcbAlWTtdpn3J2jbxkjj4LLJhNzNN9/c7Cu/0YeMcUVkG/fYNQj/ecl4btLJc8SYUDaG35h4MM5aRaRvj5N6MZaYhJzKiGz3ZByZ2u954Rx1TeMYnD2zjK2uy4ac+m1t8/vxOApPzzJ1Vc+0+q5O+m31v+0btbJpjGO+B4EgEASCQBDY3RAIEb671VjKGwS2OAIcCgQL1SdFIIfCJ9IHCUn9aB/VXTlMnIYxEc5xQYwgVt785jc3FSCHhxOK2EA22c7J4iAVEY7AoFJGWCM2ihBCNiGfKBK9YJHaEImLcOmJcI6RYxAlPpWDIgkZUi+F49z0RDiSRTgYpA/nCNHGIZxFhFM8I8w4idSyyoN8QgB7saZ7hiF83IcwJUgZKtRZ2f1zRPvkHGslwjm7zmESAXFdxBeyWfnhAuciwqlEhbRAGiChkIOOQ95R3FZCWiEVEdjO61jkgPbieCFzKMSK6FSGl7/85Y0oowKFmWs67qlPfeoORDjcEZquaRWBuqYiNfGBMEOUJq0NAW1N24SzNqnNliJc21Zf+jySVr9BZKt//US9IyURL777HcIBQVxZzGkhfUx6IWX1VaSG8UVd3nDDDW3yqdqHu0FGa6f6uYk4pLM+ifw2seUFl8Yi23si/Oijj25ktDaLlDCeOK8JPWVHuJu40o4QNsYeYYOKCHcsUks561grVox3iFRl0ed7Ity4Y8LOcfoPsso4OIsId4yJMveGDK8xzEQEIrknwimzKc2NYbPGC9thQgXeY7geRLjxV19WR1TbPRFmQhRG6tyYhwi3Eki/NPllrFU/2oj+2xNz1KXIKW0HgQgrbdAzxXbkuDopwszKFNtr5UphhrwzTvVEuPN4LjkHTB2rLI7VBm+55ZZW5rX1mvx6d0XAuKANGKdqomy196LPef4Zi4QuWzYZx0wS6e8moZbJxlBj06K0GiLcea3+MZZK+ryJAsSwZEWQ9wj0k1ltx+iP1RxsLc8N/bAfj9iJniP6pPFznNgLbAjj7FRmDxpfTIpO7TfusDPKrvF8MUFqXFJ2zwwToGySWdkqlsKgyofU9pxA7vusrM4INkze1bb6NCYZb5KCQBAIAkEgCASBxQiECF+MUY4IAkFgAxHgxFDHIGYZ9dR1SFyEL2IB4YkIQWYjLB0/JsKRbMhRZJFzIMAQr87LGUKYlJLYOXoiHNmJhOPQOC91D8KEQ0JJaB+nReaoIZ+LCLfNsZyn6667ri23t015HMtxdR4kSU+E246UrWtWOaeIcOWhlOTMIpE5ia7h/pBGiK6eCEfkczCFF+H0zcqIslJCVnWvhAjnhCGuZHXDQYQLvDh1SD2kEuUqR155i6gyeVBEuPp2DGIPbuobiel+kVcwMlGAHER2Iaph6VjYuA+4IFCVRfuAD/JaO0JOake2uT+kOBVpKcKdG8nAeUUyONZ5lce1kOnaQdLaEIC9PqpuYd8T4chjZBH81YU2q/6QHeoPuYGoRaRoK4hbdahNOKeMYFFPSE7hlPxWuArtRP9BqFqpUKSJvq6fIDzqPMaKam9IpCI6lUn7KUW4iSxkiHHEeVwDmWOc0l6U37n8Rn9FRCNRka7alj6KIDMpg+x3rO3GCSSOMtX2UoQjV42R+pJr6rs+p4hw5LTyI1GsPLEyQllk+FA490S48lNS2jdrvLAdsQ+fPq2ECPdOB+R8jRnGQS/nVS/qVD2aFFP3MDIuGlfhpP24114RjmxUdhMafmPFiTozIehetSdjjhUF6hp2yu9axgHnNf4Yr9wHJSfCX/k8Qwozzw91W0S48xirkYaeNyYtHKssjnWP2qcJ0KStjwBVrpBOxpjK+phn2HHHHdcmS2r7rE/PUJNwxifPN+1K29cW650cnmfIVdvGWT8fE+7KZWJamJ9F2Xjmma3MVjl4RpsknFVe1zvyyCPbc3PWMZ7xJV7QCkxiGvv1Fcm4btw2ySUZf0xo6udw8Gw28afvG+986st+w64yvhkPYKH/O8Z+fc/znJgBhjI8ja/GYxNkniNT2fiL0K5nzfiYCqlUNo1zun/XNCnrWcZuMVZXRnx7Himz+zfOjcdRk3BWMmkHwitVNllqIs/zwO9qu0/jnbEmKQgEgSAQBIJAEFiMQIjwxRjliCAQBHYBAkglDgTnhmKXY4ZYQKAiw5AWCKUimHpFOGIDcc6B4Sz43idOBlKE48aB6Ilwjk+pe/wGAcMhO/TQQ5vjZhluJWQRpWoR4a5TxyK2EGblqHD6kMNCoVCOUqdzNH1XVuRNn9zXFBHOmUUUwQS57jgJSWRZMGK+J8L7c670f44mIpvDRlmJaOsT55SzicCifEI8ysgnRPRee+3Vfs9JpN6skDT+RxQqJ/zcUxHhnFWOcDnMcOG8I9pLgYrwQvi7V3WgDJWUES6w5jTCxfmoTJ2DMrcUZ5xP6mCkVhHhHH7HahtUZEhTdcjxtB0piYB33iJR69r5XB4BEwtIBUSCftwT4chjdWhiR7+XTW4gGBAS2o8JD3WvH6lP9WIMqIToKcJXv0Ae6dvaU5FGSMqqQ+OKsiBijS/O2ydtFPmLUFEW5E0R4cqLPK3+gcT2HRmiPSNAqz1ri+4Haaq8yo7wcizFIdLepJU2Z/zQnxAi/odZEeGIJ6tHtMNKs4hwYxgSBqlkrCmiye+MhYiungiv863mcyVEuPIYJ2vcQGIhl43N7sU4rM6LvIer/4396guJ5TcmIuDt+SCpG8Q1Utv5lUm/RoBpJ36HVOuTutQuqPtNvsFaPRnDjNPqv5L9SMEiwj0/tI0999yzrUJCqte4716Me1bqULZXe6tz5XPrIWCM0d/0fdmzSBvVjz2TarsVa8YOSubaVp+eodTN+rdJG23NM6/6yrxPv6Uadq7VJs9UfQC5arzTF5GyVb76dA/aN9X0Pvvs08ZPk00I2TqmPvXJGgeVa0yEG+9NFBjXJJMJBx54YJv0NO4hkKnq9V993bjKNnE9wgZjgesao63iMIbDyf+2K6vsWW+cN/67x0rGAPYbu6uysdG96dO1zafnk7BdlYzjbAnHs0tgZZLXvZuQMGkIQ2OH6zrO2GS8t22cighH2MOhsrZEaOEcCPza7lP7CBE+RjLfg0AQCAJBIAhMIxAifBqXbA0CQWAXI8ABRJRxWjg71EKcM44UB4iihhKIk8iZ6YlwRCklEOcRwYpA6RMHSYgC5DaSFcnBceU8Ii5KoeQ3nFokxyGHHNKIOaRuJeUQdqSIcI4Op4fSkQOHiOdE9RnBymFC5BUR7jdF4tS5ZxHhCB8ELcKGQ4jkkeDF2eLo9UQ4vNw/Msw5Z2XE05ikWQkRTu1dSVngLkY4Il1yXRMbHEN15TtSCqnvOkWEI77gX2WpyQUTInUsIhRxiNx0HterhNxGfCoPIsz9I0y1F8vC/V+EpWOpzRxbRDjnFiGmTtX5VB3Wi0GrjHXtfC6PgL6MPFAXJht6Ilwb0SdtR3BQPVJUcvwRAIhqExrajTRFhGsTlbV/xIR6ptZ1Pn0IAV3J9ZDn6pvyf0yUamcUwkgWhLpxoIhwhAZittqh/+3TvrU75au24jpIUhNH+oH27Vjn1V+MSf14Uf8brxCuRYQjhJShzus+YDmlCEd8U9CbdDPW9OOb8US/6olw92FccR/ue1aGa399ZVgJEa5PGzMl5zFGaQfG4EomBYwJsvs36ab/uTb1JfILWecZUBNi9hkDEHTqHE7IJiSRuofHWIGp32sTnhlUp8pl8gERrs05ZyVjiEmxIsKN5UI6IMJhPDVmGHsQ4T0RWOfL59ZGgI1iAg+JWaSn9q4t6Pva6qykLxYRzlZZlJxXPzBuGkdXm5yjJ8JnnUd/N4GofQv3ZBxD7k6NDc6h3+nnssl1k3/EBcYuK3bYYPqiscf97rvvvm3iWcghtpP+aLvzG7scj6RWDjaUsU3fVB791uoek399Qho7F/vS2FbJhLjJigqv5dOEJVvAWNVvN7GFzK6kbxtH3T/xhXsyTpi4c48mJ9yf55BJEWMTu7In4utcPosItyKF/VvZ84Bt6f5qW33WCpv+PPk/CASBIBAEgkAQmEYgRPg0LtkaBILALkaAgg8hwhFh6FMlIX45epwejgLSh0PEAeqJcOQS5wephNxCPvWJo4VMQyYj2HtFONVxT3og2zhUzsXBQ4xXQpiIM15EuOtyrhCoyDJkndAafeYII2YQLUWEc4iWJcLhguSnCOeAciglTjWSjFqyJ8KR9QgdjmTFkpz6dK5xGdaTCOdYcw7VITzUCaLQRAKicFki3LGIJ+on5CgHtCe1ONQIU06tjEgw8UHByZmlxudkS4513xTeRYSrF4QYopIKHEnR15//XV87TFo9AkUE+ZwiwvUzfVrbpdIzUYVURmyKjV1kiXY1RYTri0gO9S/ra5SXSFPtn/rQOFJJm9AWkJsIGnXcJ+VRTiSG/odwKSJcO9SnXUeyT7t0LALEuYoApXZE3CA43J/+S/lJ1ajvItsRX+M2py8iTYoI155dp2+Hs4hwv0UoI2lNRvVjmMkzpHpPhLuO4xH8U2NFbUP+jssAUxNVlK/wNqYULoUnLGCwDBGuHmEBa/VM4Qlv9a7syxDhyliKcGV3rhoDqkwmJ5FUVo2oO88E9Y1401Z8r+T+EPNFhBvLTDAgwq1wMZaN6097hUVfX3W+fG5dBLR1k88vpMgAACAASURBVFDaizamDUv6BDuD4ldfnpUct5mJcPdkvNTfTQAJR2c88cztx9e6P33Huwdk6m92lWe51TtsNucwEW3SSl9FhFNYG2vYZlaReBYY64oI1z/hJLMF2IqIbpNmbEjP/D55nlCEU3X348BaiHDnMY6baDVWeB6wvUxgsi2EmIGNcrlfZL2x3PhmLBunIsLZR/6vbHLDc8XYZ5yq7T7VQRThYyTzPQgEgSAQBILANAIhwqdxydYgEAR2EQIcR8QFB4IjQ+HMmbGsHYnDueLwcISKsPZ/T4Q7BnktlqLfI6eRQX5XpAWnh0KLIzePCEdeiK+LIOGQOZfyIdmQH1THRYTbztFzXWWnPOL4cnQQXpxDKlTlHhPhY6fR+S3BtQwWMeseJQ4WbBC1QkogaqlX3Rdy30uUeiLcfbtHKldE/qxMvTR2yPx22dAoCMpKcB4rwu1Tt8rv3pCDyqneYLQsEQ4798shhL175oDC3rkRThxp9YuwRDw53n0j3mDJibRNfXCa1VcR4bZzuqm/nNuxzg0b7cRqA6Ra0vohgCjSFih1kULITv3FBBEiQD0iV0w6GQvUj099XH/Sfmp1gckWRAdCkjJPfWqP+i2i2SQVIsL3PiFQkJdWGjiOeg9hrN9VX7TdmCFkhjYxiwh3LmQyYkKMWOfyXTn1aQSzcmj72rN7rXMbU/Rl44FraGvu0THKsRoi3Bimf5lUpJCET/VD2COleiLcdZFvyjJrvLAdwVTjUmGp3OtJhKs75Xfvsn5vHDaWLEuE+7371ZaQSMaHIiWV31hsnzEDkWSyQr0Y+ygwTWaYJCnMkPjCLRQRbrsJDCpR51bHiDFlVGbnQ4qNsSrM8rk1ETAO6Hfsllplok1I2rV2Q7mtT85Kjisi3BjhmTQvG/eMl55pvSLcdT3jkdbLZM9FYzGxgP/HyfPQ8xM5bbw2aYzo9Rw1NlDAa/Pj5Df6jywsDDJcmYVJcX/6m+s6h35HZW4S0zMeWY44N365nyLCTVhVsp1SuxThYoUrm9+rD8lEub7rfOqgEhvT2OK5U1l/NlbDvLb5VHbjdyX2jDFAWUzewkVoFIII44p7sc0kruvIJt7YcPDVRogyEOMSYps6nZCjT85nvDamaRt90o5ChPeI5P8gEASCQBAIArMRCBE+G5vsCQJBYIMR4MRwBDgUiFXOAlIBkcBZkBELnDBOQDkCCCaOCtK4HAmkFqeDEpozw6EQo5ITQ50lhjWnhWM2jwgHgWM4Gc5lqStHiioJOUe1VES4ciGuKFepIV0HWeceODnKQIXkHhYR4e6Zc2jpLwUkcgk+EjIMyWbJLacWqSfcgjJyLHsifLVVyMl0Xs5bEWjug8pd5uQimd0z0h+5iBiTOf8cUGquCo3Sl4PzKawBUooKbCVEeJFJ4oXCBdHoWupEeTmUlh1zMKmzSoFpUoLymyIYiepYDrJzuL8iwrUp9wlLoXcc69y2qT84W4mQtH4I9EQ4dZ82oY0gsjn+yAkZ8aDe1TdC2ncrDBDW+iESQP8WMgf5oC3oZwgg5ISQGl4wp++bTNLGEZ7Vr4wDxhF9C0HlWghQ5TD2aK8IUytB5hHhkNHu9E2TNcpqOb8xQ39ColJnK7/27FjEkfJpj+7BdbVZpLu2ajwwbswjwmGGvNbGjQHaLAJdMoHjnoxhxtUaw/QTk2c9Eb7amlUPxm6kH4W7MCS+64fGDLjpX/BGhFHFw7bGDGMjMk2fGyckFrJJvzS56RzLEuHIeddVFmMVbNSNvgxnbU77cm7jdGFmUk3dGds8S9SDOkRgaUdFhBsDEW3ILm0Hps6jroz/1PXqwqRM0vZAQL9mN2g3xjOTZtqT57hJGG1ee/Tc8QyzrbLjKmm3RYQLu6E9LspsD32rJ8KVB4Gsn+uXnoWLsnJRTiPW+6S9s7OMj0hw6mbfnZd9pB/rB/qLMWtWYt9UaBTjsbGpxgTYGRsowGHmmjBDlDs/XIoIR5wXdmwPzwFjoLFd39PXTZ4qo3FDuSjP9U993cQje8Rzw714plRWRv2crVDbfLqGeq2kfn03NhhLjOVWqyDDjekmQz0z2E3GBGVynOeD54E69ewxzktFhCP1iR0qG8O1A2MqgUZt96m+QoRXjeQzCASBIBAEgsB8BEKEz8cne4NAENhABBA5nENqJk4a4rGITEY/0oJqlINDESPbb4ko8pmDUEQ4xwkxUwQWVY+XOVmayulAGDmPtIgIdx3EOqeP6o8zSSGO+ECs9EQ4wsZ1OTBUxeI5iv0rlInrLkuEu1dL7ffYY4/2iVgqIoW6tJxoThqVlEkAilnk7XoQ4Uh81+/LIExAZXjDHs6FgXut7J6VfYoIhw8HlfoWabYaIlydwJKKTJ1QjnGaEWnIU85qtR11rF0g/zjrnGBZe9E+EF09Ea4dcr45s5T3zi2blDD5YV/S+iHQE+HVpqxGoN5HiiIRkR4IGQSHto7YRu6qK4QoYlIdWYKuXyJGEBxIJN+NKYgChIQ2QEGOtECS1ziAXEFWUCAiKLQR7Rj54rpIEQSNtIgId4wyIzeMFcYM6koklfug9isi3LHuFyGrbMYqx7vumWee2bYvQ4QbGykhq886h3FTco/GMOQYsglWVkgY0+DjWOSK/rzapPzGh7q+/l/jhU8Y6rdFhDvOdWvMUCbHTRHh8EZc1QTpaohwZCAy3j0Lt2W8cH31AhfjST9mVNtCZBm/TV5oXyYSkFg9Ee7cViMYH7S1GvdhjbwyXtf4vVp887vdBwF9EXmq75vkYqOYnKtwIPq4bLJY9gyv7JlWqSfCyx7SRmdlx7NBtNmeCDcZZBKHrYIsdty8bBxAYhuvjFN9que1MZTNIdyb8yN0EbzIXtfXF6iuZyXjqeeuvu1+jM3wKTIYca/PIXmVRfn1Q+dU9iLCjRuFXY2dCHZlMnlGce5Z7zz6NCLccXBQVhOPbLWKtd1/si1gplz9dn3fvVdiExBWINxN+rFx1IM+b2KeTVJjS9WdMQwRb0xC8iur8VEqItx9uefK8PBMYsfWtvqEQ4jwqpF8BoEgEASCQBCYj0CI8Pn4ZG8QCAIbiACHCHGD7OD0cCYqcb4QwAgd26lvkFWIX06P/zleFfORs4GcQJYhRTkniBQOB0LIOThTkuMQpa7NCavtdW3fOVBIMwQbZbljOSu2Oa+ylYNT1+UcOVau6yK8OEicNMQJ8qkvS13T+RCAld0Dx0nye44hApAz5944eZw6xB/FsmPK8apzruSTwrGuPfVpv/MXEc4JrnuFB+e/FOEISYQ4AopKCiGA2FfPyCfn4BC6R+et+6x7hRnFVV836gRGnHDYujYsHcdBrnZQ9wwP56m2ADM4aR9wlJ3TPbm+3zt31bfzq/Opc9c18rk6BHoi3BnUlTaDWKCuRTpaim7Chcpbm6f0Rhrot5TT+j81onFDv6TA9lskBHUi0kU70efUKbLVxJRJEG1VXUvq3jH6kTai3n1SDCLB9ds6zpjkOCSX3437m7EKuaHdOI/rGntsUxbnq7HGPSPPqn3WdbVR291rkVPGFe2w7yfKpGzaf/VX51BGqcYw2FR/US7jl22O1QfH99B+vOQfuNW1pz5hqBzKXYpw5J5rGzMQVIhmdWO8dZ8mQxDJskkC7cBvlRPJRD3rvP145xr6L4JJvRbGflPjuPHSeOHa6gUGxoc+KadrqF+Y1fhijHJd7dB1nNc1jPvqxbmdV/Y7vzdWjeurv1b+3zoImFi32sBkPsLV+KLd6fv6XI0rnolU0MYu2yrXWAQR7coYg3g1pi1K2qJxQn+ZRYRrk4tSnUeZa/LPb4wRFM2e4SYS9XP3pu0XEa7P6BtWbjhGfyiCt79uT4TbbiJtTISzIazUkIUEcd0aR/Q1k9PG+cLOOMLGKCLcddkYtlkZaEyxWsOLJY2Vys7+sl05x9kKHtgTTvT71Bn1eCXjgOuYOGCTGqdMpHvGIK2Na76zefps0oMowDitrDVWWVmI1KaUV1+V670NcHfPtd2nsdJqqaQgEASCQBAIAkFgMQIhwhdjlCOCQBDYIASQGRwAZBYijDM2ThwFzhhH07JjymRLYylxOAMcsqSNQ0B9cGARlJXUm7jGiEtOPRJI3agnSnOKSk4pxx4pmLS9EdAOENb6vOQTKYoQNbmF6KA0dBwCsic9kS7IGkSFNlbEr98jBrQ1Cm9kZJExfo8kRTJQQ/ut9pq0MQgYMxA5xu8in40ZJg7uuOOORij5X50hy9ShcUPoAnWpvpOCwGZFwKSKyT1EtFUdiPBx0geQsAhrJO+s5LgiwhHLxqxF2SorCui1EOF9eUw2eo4jnqmnPbspvk1A1pjdE+EmfNwbm8C9IcORtuyAPunbJiJN6pvEM8E1JsKt2KC8dqxVdlYCGdthXES4CdNKru24IsJtN4GOvFcPsBRyxQSFSUbfjf+zsrJTZVOV98dYdWeiw7lMXroHQgR2qFVAnldwsgqG2hxBbltlK9HYrlblqK9x8lyzisTkYp/mxQh3L55rSUEgCASBIBAEgsBiBEKEL8YoRwSBILAJEaB6QmwhTPw/RZpvwmJvySJRjFFW94ljywFVP5x5n45BZFJUUmEhJJOCAPUggsAEl4SURoJz+pEE1Ho9+b0MYogbij9tzfgwlYwfyAskRtriFEI7bxsCHNHdT1waJ6jfTWYYz9UJIgjpZdywCsA4khQENjMC2rWJHkRxhUYZl3c1RDjSFLE6L1s1ISPg14sIt2ICEYxItrrGpKXvCGBjteyehUoxYVXb7DexJVSQSS/juPuWENbGeIQypTUbwgsyx0S48EUIa4nq2mQnJbb45MsS4WV/EFkYd6xCEfbKKjDnEaKNYnsqCzsipJ73iPT7hSihRrdaiRBgPKFv7DJhZ6IV4U0t3ifjnmePuhoT4Z6DheH40/mspnNuq3nG+2cJSPpr5/8gEASCQBAIAkFgGEKEpxUEgSCw2yKALAkBvuurj1Mr90m92Fb1U9+RknK/r/9d/t9+CCAFKOCKJNE+KAoRH8IlrZQEh6BzOK/PWUmbtN91q53OOjbb1xcBmMN+jLtxodpBxoz1xTxn2xgEtGsTwSZ7vc9gvRThVkMgcudl6m1kqBAiPRFuLKSkFu8ambySRHHt3Rvi3QtvZqUXlTOCu7L42WJUCyNS28TyRtgizZHkzmNc16+pwym9qa0R++KpU3LPI8KLxBbmBKbLEuHutcYSk2zIby8BpaBGJguz5x0T3q8wzu4ZZt4V0u9D0FupgrQ2OTe2f0zgWRWASBf7fKzshoMQL0Lj2N8nL0guDMefJji8f6DilY/3WwWlrsfjan/+/B8EgkAQCAJBIAiECE8bCAJBIAgEgSAQBIJAEAgCQSAIrBsCyF6E8XoR4WuJEY6opUoWcxtBWyFN5t0sMtUqDIQ1NTRCW4gTBC61uxB2lcW5RhSLg13bTASY4EQ2O96qDuSzsCCU4ohvYUS8FNNqMfGtEeGU48hlq0OEwIOjyTHH3HzzzS3cinsoIpyqGkEvU0zDvA+N0t+jc3j5JzU3kh4hTZnt5eRito8z9TnyWciTfp8XL1vF1Cd41XsaYCV8DDW4e3Y//YQuXE0MUNebBOiT8hSG40+xx5H28BbuZby/4qf358v/QSAIBIEgEASCwBMRiCL8iZhkSxAIAkFgLgIcHk5NVM1zYcrOIBAEdgMEjGdT6mxFR+xQPY4Vj7vBbaWIQWCXIlBEuBcuUgT3pCUSU4gOMbK9BLLfV/9TQCOAEamU1khVL3qcl51X3GrkcK8I18eFijr11FObohs5j1iflZUNQavsXu7opY4I7VmhiaiQ62WZU6AbP9hMQqggl10fAY70rbHFfSs3ghlJjOytrJx+4yWVb3nLW9rLOJchwtWBECjO/fDDD7fwK3DxQkthRcYJ3u5FWZHkrksN3r/A1G/ESu/DnRgjEeuOp8r2okvvtoA5FbrQL45XN7L46cpR8dOrHMrkhZ/qcSoLTUMFrn5MEkwd4zomIJKCQBAIAkEgCASB2QiECJ+NTfYEgSCwTRFACnFekEC1TL+HguNGrfTLX/5ypmPYH787/F/OH4d5pQlO9SLC+i2MOJIcyikM67iVfDpPOdTrdc6VXD/HBoHNgoB+qs/Wi+b6fqtvFIFtLJuXHCv8DIWi34yTuLpUoLMIsPHx+R4EgsBvEEDCIp5vv/329uLDcRiLRd/FxtY/vQBRiA1hOoQoWSYLOUIh3Sfv7KCGRjY71xFHHLEwi4194YUXtnAixptZyT4kNaX3vOR+2AT9eFXHI/y9UFs4Gdc9+uijH89HHXVUi7eObEegI56pu0855ZRBKJFK7IN3vetdLZa58cw5EdPiq1NSU4JTiyPVp1TxpUQX85u6Gl7q0HsK5iUEv5jnVPHCnVCQK18lYWK8XBOp7r4q3jsim3K+knjjXqxp/1T2W3U3ta+2qV8TDElBIAgEgSAQBILAbARChM/GJnuCQBDYhghw0Czh5URS1vROSsEhdjFVk5f5cWR25+R+kWWUS5YkuzfO6rxkf+/IWjJMpdYnCrh3v/vd7UVXzrnWxME1OcFB9RIuBOCicq71mvl9ENisCJhk0mcpBB955JEdSGxKUmOXF7l5Wei8hFCilEQwIdzGfUq/RnAhxJOCQBBYHgF967zzzmsvQ6TQ1RdXkpGynrOU2MhbJOmi3zuW/XLNNde0ECR9aRHQYogjSRG3FMzzMhU0AhiB7nnbP/P78/qfDSHUCZXyojTrPCbT2VtU0a47zu5N2dkT7AGYsr96Zbdzw+gb3/hGG8sc414pwpVNiBYTDHCYmiR0r8KuqDcEuBAobL1xjO/xPSpTXcenMbifOFAOtou6gatP98Km6csBZ2Vwr1O5MJnaV9uct7/2uKz5HgSCQBAIAkEgCCRGeNpAEAgCQWAHBDhSHAnLb70MyQuqODAcr0ocVEt2vTSKgomist9fx/nkAL33ve9t56MMk537S1/6UlOViyXJgax9PsXQHMeN7M+5nv9z1jmHHOcbbrih/e9+5iVl85tKlFDiiFaihEPEWfJtme9YLe44aq0Pf/jDDQt4yHCgnOIceqEVpVe/DJzTy5mFPWeRY58UBLYjAkgPy+up//SZnkyhZDQJVeEM5uGDCKOgPPPMM9tL44x3VJ2VqRPFyLXMv7bV59e//vV5p86+ILCtEfCM84JKxOhqE3vEM9p5rNpYJvnNN7/5zUb4zjreMSa95mXHLJucRwgSttJGJTYXVffYXmFvsLvqHtlr9RJRRLPvsxKs3YfQLB/84AebreH7vN84l7IoxyyCva5XZVoJtvXbfAaBIBAEgkAQCALrh0AU4euHZc4UBILAFkEAEYvk8eIlBC/F5aOPPjp85StfaRmJLRbkRRdd1GJ8Uhs5xn5KJLEryzmjcHr2s5/d1EWXXnppi7dpmbM4mBSYhx9+eCOz7KtcL53a2XAqIxX4ZZdd1hShlvRee+21TYk0RV5XecQMRYxVQqBfccUV7SsHjxN+yy23DJYz33nnnS2e59e+9rVBpmItVReVm2XQyDbZsmXLmJHc9imLF2hZZnz33Xc/HjcUyU6hGiK8aiCf2wUBhBPyWr/SZ84+++zWP4Qv0Zf1WzFo9UcvVjOZVOOWT/2mVwsau8Qe1p+FATDe+W1lBPnBBx/crlXb6hM5lxQEgkAQCAJBIAgEgSAQBIJAENidEAgRvjvVVsoaBILAhiGA0KUEQt5SIIunuf/++z+e99tvv2Hfffdtud8utiVSydJXCRGO7P3Qhz7UviNvhRroiXBkVJ+QyJdcckm/aaf8r4zU3Mh4qlAk2AknnNBU8MjoWWkeEU4ZRamK1KYk9ZIv568sjqXrWEqMxEO+VRKLlMLeUmdxML2QKikIBIHfIGBMojIVa/aAAw5oY4/PJz3pScMhhxzSJtxMMlFs6z/GJfsPPPDA9um7SaU+3JN+byLMOKdPukafhQkwJoh3229PnQSBIBAEgkAQCAJBIAgEgSAQBHZHBEKE7461ljIHgSCw0xAQ1sNSZqrvH//4xy1Mh5diUno/9thjLVNWemGT+LwUk7XdJzU0MqpXhG82IpyqVJxKIVjEwBSexUul3KN4mM9//vNbOJc+9mYP+CwiHMmP1L/qqquaGhWG1KmUo84tU60i1UKE94jm/yCwGAFENMW3+LXIa6tQKps8s9JE/7v55puHV73qVTuMS+ILm8yz3F84AaFUTHYJ/+RYq2BMYhnXSvHtc6wI17etANnIEAiLkckRQSAIBIHlETCWCneyHqvKnEtccvG7k4JAEAgCQSAIBIHdA4EQ4btHPaWUmwQBBi8S0WfS1kSAWhIZ5GWZ9957b3Nw1HmffEeYC91x/vnn97ue8P9mU4SLgYmQFoIEmYY0E2rBy/dqn3tHgiHIhYgppWjd3BQRLgyD87zmNa9pvxXKxAumEHAf/ehHG9Heh2QIEV5o5jMILIeA5w4i3ESVCStktkwlro9RhnuBrxUXtQKlziwME5W4GOBe5Ka/W3Ehjj8ivJLVHCbuqMqt1vApfj/luO/GPApxE2dJQSAIbC4EjA+ew57lku/sGau/THQtk0yQeQfBosQOMvYYS8YvfazfOoYowOo69kD/LoM6ZurTWMdeENO7flPX8yk5xj7CBeNbn+r3dex4n3ILGyWkVIkW+mNW8r9rGH9NMiYFgSAQBIJAEAgCuwcC254IZ0R5qQoDrSdpdmX11Vvdpwy4qXIpt5foMHinkvO4vzKMp46xzXGMQ0ovZeivz4Bm7NoHr12V1Jf7cK99+VZaHioQZMBK1SCMfU4CvBe9PGelZcrxmwMBBDfHUfgS4Unuv//+NjZwrCppe4uIcG2Fopx6XDgQZFI5bGeddVYjlLz48bDDDmvxfu2rTHWJoOK86m/avba6lmycoGyn0r7++utbXHIhXCi07dOuxQ92PWESvDzzec97Xvv0G23ePjhMEeHK6wWawjYIt0IhJVa6a4llLBQMFbpxRFqGCH/HO97xOCaw8XvZ/1T3nOSkILBdEND3PPsQ4VZzVPJ89nI3sbxNYnk57+c///nHVd6OQ1wfeeSR7TjPd2PTlVdeORx//PFtQqzOhew+44wzGnGlD48zIl24o29/+9v1k3wGgSCwCRBgJ3iOm7Sq0Gz6+gUXXND6Pft+meSl1CbSjDcm8j3HEeMUz7Jz17PYi3lNrFsNxzbv7STXUibn8PJe51W+ZVL5ImwKY5Vxj/1h3PEdee1a7HDvEXHPlRz785//vB3LRnAc24nNUPdh5Z7VLuwcZXdf9vWZDSex9+BoJVthUJ+FBRsHzrV9/Mn2SgoCQSAIBIEgEAQ2DwLbnggvYsiy4s2y1Pd973tfU5kuq1JgnDHmxoqIamaMQoSXEAXzkuM4veL0iiPaE70MXMoJLwf84he/OO80O20fYxR5jTzsCbXVXNDEAIeegb6ShNSkoL3pppua6mYlv82xuwcC2hmylvOHvKYK97138JYhwoUDoaqmwtxnn32GQw89dDj66KNbFl+celOogr322qvF0q59PhFaYvsiqbyk0ziFpF5tRmIb3zij55577nDccce1Ps7p08/1K6pQIQ8Q/JxQZPM73/nO4dhjj22xhxHayoJ0myLCvegTuV0vw3ScbHxCrp166qnDxRdf3JxOWC5DhIt7LNxDZXHGkXC+v+QlL2mTFLtHq0opg8DaEdBvPKdnEeHGGsrL++67rxHlDz/8cOvProwI13/uueeeNraZ7HMefcnKkEr6vPFHfz399NOfkJ/5zGeGCC+w8hkENhECQh7p80K2sdcl26zwMDlm7Fgm3XbbbW2SzPPb/15c7YXfXuItsx+MNc7rPR8lGjD2jAVFbCVl4GPxLUxu27YosXXY6FafsB/Y/M5PRGDFC/LdedgRr3vd63ZY1eJYk/Ennnji8IUvfKGVyfnYDCeddFLb7rzencAGc5zt42yMlODGJzLJb/wbZ+dizxk3x/vqO9srKQgEgSAQBIJAENg8CGx7IpwxZfn/5Zdf3kjgZaqGcciovPrqq1sYAKEAFmUKz9tvv70RTIuuwVBkXC5LhCPAGXBIWglpxxhGQEnOI3zDnXfe2b7P+kNlQQXCiOYsu89K1A1+D6cysGvfRn0i7UwScN69UG9eOYRzsESc8T2V1ddpp53W6nBqP7Udwr+IcgSEeMm2M3pPOeWURnKaYJiVGdEM6J5ApU5Rdqq917/+9Y9nbYk6T7zWfrv/ldVy9aSNQ4CDhQzW7imYtAN948Ybb2zxr9UV4pfSG5Gkf1fWz/U5jpfxRWgQL9BU5+L3msjhQFKbc/A4UNqgfZUr9vinP/3ppnZCQgs9stqsrBxDDqNyULkj+pHglFKlGnv1q1/diDN93z2YGHOs9qmMxhX7TKpxMCsh0I0N9nFMe4e7cETOGdtqwm4WEe46+tpRRx3V+gIVWWWONKfV9ZHyy6rLqpz5DAK7MwI9EX7yySe3vqw/658muPQZfUcf86xE3BiD9HMkkpfXCgeAKBIWxfjjedoT4Qgb45Oxh6p8nI1vUYTvzq0oZd+qCJiEZiuwN5C+bEfPfhPK7F12S++rGDfYBMYGmS3L5mTfIrv9b7xgyxoPfMqEICbs2TbeUeBZzOZm345JbmMWG8CY5NlOHPC5z31u4QpVY5bJOzYDAY6wI0K+sMNMxLPF+DxsM3aLSXb2h9+w06mzhY9iwykTIQDbwT1Smdc9ESz43mdhTggA2D6S87KFXK8wqE82EbvtBS94QZswqO3jz1Lob9W2l/sKAkEgCASBILC7IbCtiHAGGWMNIfPAAw+0zDCjZkA8I7dre30yhBiAluRVYhRRBzASEZeLMkOTEUrJgKTmmH7qU5+amRl0lKAf//jHJ48RtkAZimC1VJBjWsQU9QVSrpTbrun+EGGS3yG+KD/rPM7BAUaYWxbNyCwMGJpf/vKXm/Ept7W0CAAAIABJREFU/IEQB3CpzIB2jZ2ZKGLhoXyVTWBY/ojIGyfLHilZKHoZw+PM8d93330beTfe5zvjWzgIWFK4UJCrc9fmZFDLMb7FWa7MOUBuIsop6RjsYyLceexnNPcEuvqhTKHspzjv9yE8LLtM2lgEOE/6KtJIO+P0mVxRR/o0p5LaB/lkW2WKSk6cpK+pc3X44Q9/uG3TXo05+hHnkEqTI9Un45K2pAwcLY4dp3W12Vjl+hRWHD79Vd+XZhHh9rk+QtxYohz6um3uCTZIfRnhpk3X9/GnsUJ/0EeEYpFmEeHavkkv/YwT3if92RhUZe/35f8gsNURMJ54piCv2RRIL1n/ts1YZILLCi5EzDnnnPO4mlIIA6tS9EUTSOwIxJIxZUyEI4zYKEiicTYWhQjf6i0t97e7IWBc0LcRwMhusfz5JuwU/V4YEHZL768YN0xis0Nktq/nL/vVJD9b1Ls+rIorv8kktHMQABBo+F5ZiBG2wVQydhHYIOb5J4jhec9xx7NTENlsff4IO4zAwGQcu5tdYlsR4cKwKAPb332xV8p3IwziVxkvx2Pa+DvSnT1usnBRUk7XhXk/ji76XfYHgSAQBIJAEAgCuxaBbUOEl7HCUKGOqCV+iz7F1CyV1WqrCinGMGOIMuyQQYzMcWakUWwJmyCUAmeTKmF8HOMVOeuepDERTvnw9Kc/vcUEtN81Ea1IJOQ3QxWpxWBUNkYco1GsYioPv3VNn5b6UW8whJXPNkqR+p+alcKZmrzKs1qcpn6HdGPgI+8YmpZoIvwZ99SxDH9k9TyDWpw/xwj/UBnxeNBBBzWyoLb5RLgj6CrBRlgJpAAS3PWFkFAWkwMVr5yxTTGCLDXhQaXHSB9jAntEOLLUtSoz6pGlwlEw7Gu7T9cKEV41sjGfRQBTOXO6tKG+Lu1fFCNcSbUfDhiFFRJa6onwitvLEetTEeH9trX+r8z9PdT55hHhdczUpzGhlhVru8YMY5Yx1XeTBL5r774j1yyn5jRLs4hwk3AIOuOM/t2nEOE9Gvl/uyGg/xYRjpCu5PknRngR4bYbd0zoIp2QSOwEto/+Z1yqscDkXk/geDY5znMMkT7O+nGI8EI+n0FgcyDA7td3Ec19rG5CFmFNrP6oCfpFJUaIO49xgv2pz/fZc5yf4plf260iIQagDp+V2MzOZ/xg81QM7qnj+S1sLPfiOKpytgpbnu/iXOwnhDqFuMl49jWxk0lASnX3XqFajIf8F77LeEwbfyd02X///Zvf05dNmXrb3P/Kw2aHlxVr4/2+uwflTwoCQSAIBIEgEAQ2DwLbkginuKaaWpQRm3fccce6E+GMs/G1azmzkAjUGwxFhCsCeHys35cTqyktS4R78R01BKOPMSjOHgKXccmAffGLX9wIKApYRBQFNmOXAQ0HSy0tvVRWZaK2oB5H4lJp9GVarybOgGTwIr0Zmghpyy8Zuch7qjiqDdeflRAGlo1bXlnZ97333rsR27XNJ7Vp/9IdL9ehZHUdinkqOmpzihjlcW5loYxRX+qPM0Jdw2gepyLC4a8+KpvwQMwjH2pbfVLehAgfI7lzvyNp1bM2r+2PJ1qWJcI5ntVPEFVSEeGcTepok08mpvq0M4jw/vz9/6slwk36ILv1Cf0E0W/i0L34ThVuco0KzHcOMke0VN6ziHBKNuMMQh2B16cQ4T0a+X+7IbASIhzx4rn4rW99q/U/KzjYFiaB+2f1mAj3vPccMimLXBtndkGI8O3W8nK/mxkB/dkLIym42as94b0WItx52aye3302RpioZpv32xHCVpDNSsYOdq3xw3Oe7TArCYdGNMTG5oshtPkmbHF2B/tASEgEfL07hOAA6W/y3adrseOkUoSz48dj2vg7W4VdNlaEV/nLNu8/iQKUo99W/xtjkfdJQSAIBIEgEASCwOZBYFsS4ZYCL5N6lRXyd7WJUdorwqfOQzVAIUHpjCyiDKdyYChSgI0T8gqx5rwUFl76gph1DsYiYtV9inWHcKMU49wi2IRkYCQixZ3buSiYhWJwz7JtjEHhQ6jFEFCM314t7X8KafvG5Py4vKv5zsBGolFZwAXxxihXPuptqg/3rtzIZwYvgnKcSoFClVqZEb/nnns2Y762+WT8Mr4rCSGjDoTNQW4j4anfxV81cUDlj6Q2IYBch6M6gIdyjlMR4ZTG7q2ye1RnCHX1Wtt9CjkRInyM5M79jkASCsfkSCm5+ysuS4RTCwmtxCEqdbO+JTSKdib8DmeuwhrVNXYHItzYQg1Wk1D6IyKcSktC8iPCTRRJHFH9rpxL44f+AxuTcrLz6evIOsuzxyFjQoQ3KPNnmyKwEiLcsZ5BJrs9t8S3ZVeMJ93GRLiJYDYI20I4tXGmMA8Rvk0bYG57UyKgr1uBaPUm0ri3PVdLhJ933nmNvKXGNn4Qx3ges2FNZiOiPdOXSTVuIbUJcaz6IjoRrm2WUpofw/YSzoVdzP5mU/B1bEP4+/1UZq8j2vk9yHqp7A823XhMG383ocB2KVul7pFt09vm/keOs9ndFz9gvN93dl7eZ1Io5jMIBIEgEASCwOZAYFsS4QhMJO+izHgRL48xVUQ4g85yQfE2GViLsnNQdSOTkT5TKmEKCmoBDiZDkQFKXUB1zIiaeskKdUS95NP9UG4zxPyeUYaQQrYhuxHqHFdKeGQV9YM4gow99yIjcB1XCdGnTIhw5UL8MgoZk0XMI7LqmghjBB+j1v61ZI47IxgRCTexTxmbiPFy6IUroT5BIJYSG3nI2adW7wl7ynHYM74rI5aFn2EU1zafyGyEXCVLMynj1DNC3CelKzyQ10g851JGhLwwMcpNyeolY37jXqo8RYQz4vvEEEf8mRDpnRjHKH+I8B6tnf+/PmeyQh/Uf8dpWSLceYRWsaKhCCh9V98U19IKBxMd2m2ftgMRbtyDr7HI2CSbzDMuCekgFFGR6IVNiPBCIp/bEYEilDxvPPfYFzISzMQaW8Xzb5w8x5BYVheNx7MpItxxxieE0zjrlyHCxwjnexDYNQjUZBcSnG3qmWlM8CmzRYks2Pj6vrHC/rHvwlZhw7PlhV8klrHak89gMp+S2nYr3PgCzsl+4SewX5xzVqiTUnMT57BlEdrGEfay94FMCVjcF5ufrczeJnQpIpyYZ+oe6p6MdewuwhbbpCLCiXfGY9r4O19IWMgiwvlI7vurX/3qDtl98yPZ+oh9ttz4mPpuIgG2U/e6a1pOrhoEgkAQCAJBYHsjsC2JcLHfLGFbJjOGeiKccSZcB6PHPkuNF2XxNl1zigjn2HoZDEWzeHsMK8YnI5TBisimhphnPFVoFIpTSg1LBw844IBGMlkOjXylVEC2Sq6JtEU4FbFfinCGcBHaDEhEOOOZsYcoRrKXCgS5K/Y45VjFxaN66JdKrvR/TrxJBiQkxQmSX8w/BjZlPaObE+5lNq7PQEVUw4nRK5sMcA6Y2Q9bKjf/V2ZEC0XCSK1tPhFwDP5KsGWEU5UzoNWRzJi/4oorGh4mN5DdyoTIs2xTnYuf7n8TCaWSLSIcWT6+rnpD7ptM6PdxPkKEV41szKfQHOpOe1B3+n31jeof1N4cKOFT+n31v/annSF69S9tzT5t2WQXclzb0tY5eH3arES48aL6FSWWccrEmvbK+TQBJxSD7/otVRUn0XdKNYpwk1rwdB7tvXeebeN01ySeftynEOE9Gvl/uyGg/5lkRoSb/PaMqczGKCK876f6HrKJHeHZNV59gghHquuTjvWsdH52ju/jzB7wDDZG6q9JQSAI7DoE2J9IVjZF+SLsT+ODXLaoTzavlZA+69j6pKBm0yC+2d38I7aLeNlWrbF/2dlsYs9w447nuUy4Q6ltTJhKxhLjCoKZv4AY9yy3+uvOO++cqQqvccw44/8iwvleVrcYh6ayfTJ7pCfCjX98mPGYNv5uvHRfFcaNOEfYw/Ix6lOsdDaOMItwhYExuPb7dIxtxlhjZwmJpnDKtiAQBIJAEAgCQWDjENiWRLiXqlAXLMpIZKT0mAinSmYUUkwx/BZl5DblI+Oyj5/H8bRsUQxiymehBhCllAyIayQR1TelF+O0/23fRIoIdwxCmjKE8cXxRRYjmoRFcR0kq2tSM3OAGZeMQEQdoxE2lf1mr732akSWcCDUEe4B4e6czo3cV15EMMOW4ex3q80U2gxlRD3iXh0V4T1FhCs/XBiujFaGtvtkcCIekchUGrL6qoxoowhHYtY2n2IMmiCoRAWiXpyTAY3UY4wj6Bi2CEv4KYP6Ug71QYmjPH5rEkEoF6mIcGFYSgXrE6HIIYE9DPp9DPIQ4VUjO/+T00NZxdmieKLqF3+TI6TdyCbCkEUcHQ5jbe8/77vvvhZSR/2Z+NB+TNKoY/1DX6H25yBqT9q5Nm58sd2kykYk5DylkvLoA9Sjxqap5Dj35Z0CnGMONSyQ+lY0cLyNjb5bXWEizRjhO0fdBJ22b+myvssh1n8q6SsmF4x/JgKVpU8hwns08v92Q0CfKSIcicRGkU06WclURLjJKc9rzw3PROOS1Vt+45nWJ3aAfcYnZFjF3GUj+O0469dId/3ZpFVSEAgCuw4Bz2r2JxucL2I8IBjxXKa6Zr/UNrYG0vbuu+9+gt9ivPBctwqWfcLWF47EJx8E2U7Ygnh3rPBJJr/Zu+wjxPN4Qh8qfA5qc+MFIp0/hNhm2/vONiCAmSKIy58hKDCmFRHON3BPs3w4tgMBDPusJ8KVmZ0yHtPG3/kFbBsvBJdg7B5M8ldWFnYMMZCY5IQT7Hb2EfyVTZhEAiJ+gO9su0we7rq+kisHgSAQBIJAEOgR2JZE+FpihCNtkDOcQaTWMslvGG0IZKSThACqWNNIaEv9fGc0UqEyrhi3DEDkD4KKs0tZMU5FhJfSi8HI4OPYSgxX50Mui7PN8WV8Iud6Ilx8XgamjPiFE6MZ+Yugo4xlMFrOqFzIcEal8gpV8uCDDzY1NVxWm5H3jEfLORn28Kg0RYTXPoYqNYtJADgxWmUGKKN/nBHkSDtGar9PvdpXyaQBUh05xxlA+lOwcCiQ5hwGZR5nqnKhMNQp47fqHZHIWHY+MdcrczZMXsDNuWu7T4Q7zJM2BgF9TDsyecLZ0Z981y/U/7LZb7QVRDBnlCOEWHcesS/1MfH77eO4cS7Vt/1WG+j3G5GMTyZqtEsTdvOcNWQ9J48aXL83bikvp9P9mMTyOfXdcfb7XYWJGd+fc/utCUiTRj1J7liOp0nDWUT9+Hz5HgS2EgKe154l+khPQtuOBDOeeMZ4bnlue755bsn6KhvB/j4Jv+b5YhJKv9ZPTcAbi/S3cfZ8ci7POGNaUhAIApsHAeMDe5zd6HlexKvtxDJsejZHn5DQiG7+gXGFr2Ai3vOXr2BSzIpHWZhIBLFJN89yoUtch+J8ajwgDjFW8EH8HrltvOI/8EGQzsYUJLvtfbJa1thkLEJAFxGOgK/76o+v/9kwjjnmmGMaEW7MQ4gbBwkaYOOa/Cq2d73kvsY84x8M+FDsvz65Lr8Eoe8c7p2d5x6NlQQwcIC1/VaT8mnYM0lBIAgEgSAQBILA5kFgWxLhDDtG36KM+EXc9IpwhuFKifCq7iKcGGnCBDCYkG2UXL0BybgsIpw6lcKA+hQ5hChCRvWpiHDEG4KIumKKCEfIMfyov5C9iGvGGaMOGY/krsTYcy2KTg61xHAtpxmRBwfhPDjOY8KqzrPST4bw2Biuc8wjwuuY+lS2IsOnPhm4ljEy6Pv9jF9GMuMdmeCa9psUoOSlsqF4pQARR5UKxLbKVC/qigHOCB4nkxIw1Pb6BMNZMcIZ3IzqpI1BQB2pc23D5MpqkzaIeEIa9eRTOXDGF8pzfVwf4/BRcFFm+7/63Wqvv+zvjBnGFM4fZZfyVBmXPcd6HWdVhQkw/aMmj/pz6wfKuKvK15cl/weBXYGA56NnvOdTn4xbNXlUfdpxyCQkk8muqWer/WOVeH/e/B8EgsDugwA7HQmMyOa/VJpFhBsT2CKeufVcNaHWE+FWfyGLZSsthUahAEdi86fYrhTUJuP6ZMxh73qXDrX5eD+BkBWYfk8kUCsn6xyOZ1vzkfxfRDjCuco85cfxXYSdowi3OtN12Df8LLa2fXwWk3+2E6AI68gXIoRwThi6DoECTI2p/AFjrPMIeWiFjXKzmYzHfDD3A3e+Fp8hRHjVZj6DQBAIAkEgCGwuBLYlEc5g86KXZTJjb72I8DIKEdAMO0uQGU2Mu55I7olwRipFAuJZfDvGFTV2n4oIf+ihhxqhxUBExI4V4Qg5KnOklyWP9lO3IumWIcIZyQw+McJlhh8inBJiI9JKiHDqe2WblWFJGYPQ7o9R32IOIrup7sQfZwDDDdHg/iliqOrVBYWLbZVNcjCoGe+UseOkPq0GcM4+zSPCtY0pUrD/ff5fPwTUkfpRT+UYrubszqPetNup86hX1+iPq3bkNxtZ58pAFcYR9P+uSnCC/bh/VHlgooxJQWA7I6B/jMcU/bbf5nv1Jdtn9es6ZjvjmXsPAlsFAfan945YVVahPdybZ+dYEW5MYIOwZYVFKltlTITzHdi/MruFiIftbNLaNopndjNfpk+OE54J0Y3IdmyfyqYXGlBIQL5Rn6i4jz/++KYcN6lXRLhwdPP8t4rNLdyj1WdWuli9SeBgNSYSW3IvxAjuHTkOOxiZBCBiQGIrl//5TfwBqnGiIvcrjEzZcMZYfhWfTmg3Pp4JRvcM+35s7u8x/weBIBAEgkAQCAK7BoFtSYQjKc3cL8oMIjHseiKc04jsXElolKpahpwlhlTDPhlkFAOMLkR0ZS+nYegx1myzXJGCnGpB+AIhExhXyoK8QoxblkiZgdxmPCrzmAhHtlZilCLBGXoI7WWIcL9lzLkmoxAZzsClmtiIVEYzAxQBrQyzkpjLFPTCl1BtjzN8xD9nMPf74GipJBU2Vfj4GtQiwlhQ1SO6Gb59gg31HVUvg7lPMK86Hn8i45HwHJjxPt/dL6N9FpnRXyf/B4EgEASCQBAIAkEgCGwPBIg1KKERsOxJ4fr4HJX4C3weAhDELgLXpDJhB7IaGewYNuaYCCcK6ROC28vs+QAS1TWfBVHt91bSUY3zSayyRMgTAo3JYN/5H0IYspmVg7/j92xvIRLZxchsquwiwtn2/LNZPhyVtntg3zvW/9TbVpwJZcLnKh/KNuIhOCDCEeJW5CK9XZedD1PiFxh5f4v7R3bbVpMJVOQU5nwH6ncTEURNQrrwG2K79y0o/weBIBAEgkAQ2PUIbEsifC0xwhluVJuW+ok3R009Nu6mqpXRhaCmYkCEM5AQqsJnMNS8dLEyI4ySQXxP2yzRY7BSF4jHh+AWdoHBZR+SlMFJiUDdYBmg64i/xzj2W6Qs41dSXoYig5DBVkQ4UtsyQJnhyvirGOHje2KkInYpIxjcG5FWQoSbrGA0w3cqpjOjWNgXSph+v/sx+TFOMKPMp7pXJ5aIih1eSybLyK1wGOpD7PE+IeerjsefiPUjjjii1QmVyXi/5aUhwns0838QCAJBIAgEgSAQBLYvAghtZC7SmO2IeOabIGDtq8RGFdaEb8C250cgndm/7FWqb/YsG5YvIUQgm9M+7+Wg1q4stKJ32ghTZhsfxsvehQz56U9/2sqC2Kamdgwfw7mmkjIKN8InEmpFeDh+jHf9iL3tOnwNJH0R4fye3u+yj+qaEMX5xEhnMwsR6V4R7fwafhhiW7moxG0TelK2ipQvQ6Dk3pHx4pm7J1gRIAl54jf2uT/hJPlVriXECvLfPgS9+4ETbPgCJin4JX25p/DItiAQBIJAEAgCQWBjENiWRDg1AMNrUWZMIZB7RThjErHMOHQeBhmC1LHzMkMOKSuuNDKbYTgrMaAqRvj4GAYfQ4/CgLGrDJTiSHaKC+VTDooQKgjGMMO0sn3KyzikWKB+YPhSHR988MGPq6Mte6Sm2HPPPVusYkYsI1K5Gd1IeQS8ECKM6Y1IKyHCx+WBCwNUhmGp6BnbfaJ86RXujGvOAaUIY5rhK647pwMOJhq8EBOuMFbPcOc4mGyoBDuTJrPaHGWJUDkU5s41dZzr9Y5NnTufQSAIBIEgEASCQBAIAtsLAfYpO5ZPQmSDkGUrsl3HyfsAEL2EF8KRyOJ/UzoTv7BfqbutFOUTFBEuPInQIpVPPvnkFqqReMY2qyorRngpoimmnXOer9OXj7qc7U2MgohHgvNTfKfOlmYR4exrdjNlt/An3q/CL1JOtjobnf3N9idgIYZy3/b3mQ3OdkeKs+0r8RvY9/wu//MBreqFH9z97kUvelErM6GU61CYI9vVyYknntiETfCfNSFQ18pnEAgCQSAIBIEgsDEIbEsi3FI7BtwymXqiJ8JVCyOH2ppy4bjjjmsGoZjTi7KQJwwwMb3nGUPziHCErqwMyFLGHwKc0Wab5DsVgpc2Wr7ICKvMcLON4eaFfMJ/IJgZve4HSS4L78EYrJdlMgIZlIw9YWEYuYxjoTzGMct3VtNdCxHOKaBiZ6RyEihAqO4Z/n0yKUC1UQkOFV/QKgCENUOfQawOqe+pR4RggTHjWmbEw7YS1YxQN3088v5/EyQHHHBAqxftpN9X/3NexGRMCgJBIAgEgSAQBIJAENjeCLD72f/EKexDNizblJ8wToQUFMuI4bL1fdqGAGejsnMJPgg/nAfRy+71m8qEIYhrn7ZRSVeMcPYz21d5kM/zfJ2+fGx0tjkym18j9AkFNt+kQrDMIsJdj6iH7c0O5+Mg6BHqMHHu8o9K0OO+lX+clYGvgPDuk/twDtk5TB4I5eIdSV/72teaz9Qrvkuw5F74GUhw26bqpb9O/g8CQSAIBIEgEAQ2BoFtRYQzYIQbYbxYyrYoW+YmTAaDitFUiSFjtt/yN8YiZfSi7GWXiGXL7JCo8xIVBSPLMr95iaE2ZVRRKzAmqdWptZVxnJWFWrwIdEQtY7aS8zJwqUvEGaQ6YdgyNm1D1jMAKdGXVXzUuVf7CQ/EMwLeUkWk9rKJQY6wt7yRIkZoFGp6xum85HeIb8tH4WMSQ/0V7iYjxBFUHoQ5vJHszstYrsRQp0TRpqay32kjU/tqm+srT1IQ2AwIcDCtcuFsipuZHAzWsw1Y8WRFludOUhAIAkEgCEwjwB4lFGH7rzYhgIX5IHhhKxOB8DHYrezeeYlQhn0qlAg/SznY6/5fSXJ8/c45hRNk85et7/xsbeR12eDOj/xXRvtkNrPwKn6P1F7P5LqIdeXi/1Cglwp81nX4WYv8uVm/zfYgEASCQBAIAkFg5yCwbYhw8DHqhKsQ53mZxOBhXHnJJJX1VHIM421enkVYT53PNo6/t7Avq6SYdZ6VbGcEMzz7RL2A6GXUugeGnGMYyCYGVqL26M+72v8Zn0h5xJtYhysx+hnQjHwx+yi4nUM7mFWvVUZ1gPh2z/MM2WoHcEoKAtsBAQ7zMcccM+yzzz7DHnvskRwM1rUNeJmxFVeIjaQgEASCQBDYeATY3Rvpi2z8HeaKQSAIBIEgEASCwHZEYFsR4duxgnPPQSAIBIGdgYAVEEWAC6EktE9yMFiPNqA9Vduy6iApCASBIBAEgsB2R4DYJoKb7d4Kcv9BIAgEgSCwHgiECF8PFHOOIBAEgsA2Q6Anwr2TQPzO5GCwHm3AKqwQ4dtsQMntBoEgEAS2CALIakr69SStrTy1Klboy6QgEASCQBAIAkFgbQiECF8bfvn1FkGgD23i//VKwqmID77ecQrXq3w5TxBYLQI9EZ7wFatFMb+bQuDTn/50iPApYLItCASBbYeAGNNeuLjoHTFsV+SreOHe6+N3U8kx3gEkDKNj10rWCqMo/KCXRiJqNzqxs72zxLuahG/sY5Ozvb0PSczwWXiMy1s4etePGOCScwqRiIRexkdg93vhpxjri0Iwjq8/67t6+uQnPznccccdsw7J9iAQBIJAEAgCQWBJBEKETwDFSGTUVQxq3xl3jJllDCCnZIR6gcui5HwMLHH4Khb3+DeOsd+b3b2Aca1Gq/MzXJVPDHD3t5FJ+V0fpozW/n5g4R7tWwa/KjeMKoY5HH13DbHPGfqLkmO9mZ6hu8jZWHSu2q8Mrm9pP6M4KQhsJQRChG+l2txc9xIifHPVR0oTBILAyhDwbhmk6VT2Ekfk7NQ+277//e+39/DUe2nY6d5r451FiF0E7Xe+850dfm+fbEUOQtqLHJ2nJ4XrDti7Xoj5zne+s7308Ve/+lXtWtUnW9353vzmN7eXxy97kl/84hfthZbwWCa7P7jBtk9ennn33XcPJ510Urt//lIlGLDBL7vssubX1fZ5n3wSpDkbB7nOludXeMeU1UpTmNb5HKuOPvaxjw2veMUrhosuumjwPPvud787M/M365z+/+EPf9gmKUxU9Nn9X3755cOZZ565w/b+GBMcSUEgCASBIBAEgsBiBEKET2CE8KZwRIxKvnvBIiOIAblMeuSRR5oCYd6xDCYGG6MJYeoFlEW+979DVDMYGXrf/OY35760sf/dvP8R0A8++ODwjne84wlG5bzfrcc+9+j6MH3b297WDE5YSLBgyF966aXt7fXLXg+OyOa3vvWtDUdGpWswgBnCixL8hXfwMs377rtv0eFL7WdMM+6POOKI9vLTpX6Ug4LAboJAiPDdpKJ2w2KGCN8NKy1FDgJB4HEEPve5zw3HH3/8ZD7yyCOHQw45ZHj6058+uR/RyRb90Y9+1M7Htn3mM585fOYzn2kvin/Ri140PPvZz24vE3YOLxV+ylOeMhx11FHDc57znOHss88eHPOe97xnUjzDPqZWfuUrX9mOe+yxx5YW+Tx+g90/ynfLLbc0kpbyetl01113DbA4/PDDl8pPfvKTh4MPPnj4/Oc/v8Ml3Au8kM6FWR3Az1E2vsGyhD98kPtXXnnlcMUVVzRsfv3rXw9vetObGl7zxEN8EXhhyk0UAAAgAElEQVTC9qCDDmp1ou6Q9LMyW4oASPrIRz4yvPSlLx2OPfbYyfykJz1p2H///Sf3+c0b3/jGuvV8BoEgEASCQBAIAnMQCBE+Aoeh9JWvfGW46qqrGiFrNxL69NNPb0R0KTRGP3vC1/e+973DG97whjbLf8899zQ1x9VXXz285jWvGXwysJC9r33ta5sBd9NNNw233nprM+LGRhZCVRnsv/HGG9vSuCKOn3DhJTdYrof4VcZlldcU6VQpFAnUFctkxiBjt0/u5aMf/ehwySWXtH2lhHAMRfYHPvCBhhNHYtlE9f3FL36xORWIdBMWVBJnnHHGsOg8ysNY5kBwLjgQjOpZmYqGalw9Ua6boHDsq1/96idkBq0Xvz3/+c9/wj7HX3PNNe2el73PHBcENgsCIcI3S01svXKECN96dZo7CgLbCQH2MkHMVGb3IS3ZnVP7v/rVrzb1MCHHtdde25TFCGB2JPEK9TW79gtf+EL7PdsXeY60ffTRRxsRK5QKe5qdOvYXfGf3fvaznx1e8IIXNJUzJfoyiT/iGhdffHHzBVzz5S9/eSN5TzjhhOF5z3teK4ftlfkMjnevfSI2cg+I7UX54YcfbiFB9ttvv0biuwfqaT7Mueee22x/mCqL61JuI6UR4Keddtpw4oknNqKcAEdmf8MIwT1OfBICKOV2rGsR6biWOhj7aPV7K4GJlfh56oPfeMEFFzRhFYU+3OSHHnqokerKxN/wvc5J3e4c43ahjmGE7D/11FOfsL+OX0b4U+XNZxAIAkEgCASB7YxAiPBR7Vu+9va3v70ZdWbWkdhIbaoFxK3Zetv6/IlPfGL4yU9+MjBgGLYUxYwfhpB9iODbb7+9GT7IZxlBSgVxww03NOPONRBLlrWVQVRFKyOMsYREZxgr5zIhP/wWKcyIpHK/9957W3YeBt2LX/ziRuTW9vp0LEOb0VuJYSg2HWMQIb4oX3/99U3FwpiUlAU5/e53v3t4yUte0khqBmNdk1HMAESev/CFL2zX+fjHPz5UttyT0eo840RNQYniBWsmMqjOv/71rw8UJJT8s5J7orIx8UFZQ7HB0KRUl9XbW97yllZPZ5111nDKKac0I7eWMqpzMfsca1lon6lHGOQMd8Z5v6/+Z6RnKeOs2sn2zYxAiPDNXDu7d9lChO/e9ZfSB4Eg8JsQhAjKBx54YIfMLjz66KObPzHeJyxG2bj333//cNtttzW7/9BDD212JBucHyL0Bj+Ej8GGJuRgZ/pemW0rnMaUgMc12K+ve93rms0tBAhfoa49q/6QxK6NmGe/U1svyvwNCng2w2qTsiGRDzjggMeJcET/s571rEbmX3fddQOfg09FEY8c51O4NrKZiIjgSIYT/8tzhhBIqBX1hEQmhlqWCDfZAV848gGVj98IFza+uvK/++aPKA+hjvrhBxJEwX3Z0InKBWt+W1IQCAJBIAgEgSCwNgRChHf4MTIYjueff35TBputZ1xa1obMRIbXNtsrUxsgX6k0ELgIU8ciYc8555ymumDoUA8jPWXE9zOe8YxmHNU2hhSl8SyCm4GKVEfUFoG6yGi1n5GHlFcmRO4yWTgPyg7G52oSAh05zeCnHJfgizA+7LDD2r0zYOHpk5HMOIQ/XGyjzrZf9hsGO0PSeagzGLCwqmstIsIdR7GBTPc7MQAZv4xnynEKfSoRCm8xGR3nOoxcBq57cYz9s+qox8r1xDN0bwzupCCwlRAIEb6VanNz3UuI8M1VHylNEAgCK0eA7c2foOA977zzHs9Cpgibgayt7ext262WZDv2SUxw+4yLFNR8jnEWMoON328Xo/p973vfzJc1EnTceeedzf5l37J1qajnJfY3IvyYY45ZajWjexH2UfnXkwh3Xj4VAcuHPvShJn4hgGGbWz3LbzORgIhms/dJKBVYEQghvvln/Coqcja7e1ykCOdbUXkj2J2P/8evU4/8GOEWnddq0ec+97mN9H7/+9/fVgHzEV/2spc10RQ/ZuzH8T34g+MMR36Q8433+a4+l30haI9H/g8CQSAIBIEgsB0RCBHe1TqDhFHIeKQMQFAzLhhGjLgKXTI2QMSiZnzJjB/fqROoDhguFNEnn3zyDgQ0I1KcN2RvEdOW0SFlxZeblSyPo3CwBNFxUzHF+9/2RDglwbjsU98Zw8qxM4hwKghGIMNeLD/qF2FaEO+U1/DnHFga2peNghymysZIpVin1nYcwn0ZRTgDkZKGcex3DFfGL4U9XNU3Q9VSSIQ3Yp3B77ocGQp4xyHTx4Zrj3n9HyK8kMjnVkQgRPhWrNXNcU8hwjdHPaQUQSAIrB4BPgVimgCEuKKy78QeXnhZ2773ve+1FYlsYDZun3oinJ/Bx+gz2xWhTu3cbxf+hL06Pl+dmz1NlcyfoKJGmivzvORcm40IVx42uWxFLaEQn4KwRXgZIVD6hLimCLfqldiFn2alq/AtJiLc4yIinEiIDUREQwgFd3jWyzzVE+GOshFIIeytAiDqsRpXG/C7CrPYl8/KYn7SOJegyaTHeJ/vSPdFoSD76+T/IBAEgkAQCALbGYEQ4f9X+0hLxKflbGLw9bPqyG1Gq9n+qSWGUw3IeSihnRfhKnxGn8UGf9rTntbOWduFVKE8ZlDNSsJ8UJgw4hDBjOd5qSfCLdNbJjECkdI7gwiHi5iEjEjXoT7hDFBnmDhgwMLfksM+XXjhhc3I4zT4nXApMBR+RP0sIsLVA6dAeBsxvsVDRMTDnCqc0avOxUw00WCCwvJDin4TFDCnKoH3WDHDkOa8uLdx5mRYTWByZbyPgU6Rssjx6HHI/0FgsyAQInyz1MTWK0eI8K1Xp7mjILDdEGDbEcEgmPtEcGFFKRK0EhvUNn4GG7dPRYQLk+J/+5GuFMlEHexb4RaRq8smdqyXuSsf8QdFuJCOxCnj8Iz9OV0bubtsaBQE81RoFNenbq9wJYs+iXP4Afvss09TYLvnUoQTxlRSPjhZSSqmtncOCSFD3FQrXNndXi5K2MJ3MFnAT3P/BC/8DD7IvBjhfAH+Cj9BOX7wgx80UQ8/gW1P9EMt7nwIduUXBsVvbKfsplbnxwjnIiQnX9B1+SZ8vT4T8PBX+CJCOPb76n/+I1I/KQgEgSAQBIJAEFiMQIjw/8OIUcVYssROLLee7FwtEW7pG0UA8rzU4ownxKkwIMhWxuwyCaGtTEhcyg0KaednAM0zWnsinKG76IU09lNoi9PdE+HwUW6Gt/2LMsWFiQXKhz40CjKYcsX5JJ8wQYQzxjkIVNuMSgZqJSQ5Q9LSP7+hhmdgwkLccQ7HvNAoyk4V4vj3vOc9TW3O2HQeBrCMfGGoUoBTVzBeYSzbhqCnFnEdOIlnTrXOiOaAMGz7zMBVbi/LdM/9Pv/DgnHbO0N1v/kMApsdgRDhm72Gdt/yhQjffesuJQ8CQeA3CBQRzt5jO1f2skwKYbZkbfO/bT0RXnY3gvOoo45q9iQbmXiDr4JsRbzyARDhbHy2rP1sdCKTWYlfw/4UihBZTMxB9GHsHQtR+nMUEX7ggQc2Yprqel72/h0rLxHnbIZKfCJinqc+9altBaayz8v8CLG+XbfeX1REON/ANpnvYUWnlaWu4d1K7HN2PzEMrAheKLPh6hjbhLEp4tt52Pb1nR/Fh+hflslf5BcQ4/gt/0LdILnZ/khuCm3hVpRHfRHb8PnUjXcl+T1xjrpzLWVUXgT9OPM5hFzhU1ihOt5f38UgV7e9D1uY5zMIBIEgEASCQBD4/xEIEf5/L3Fk3CFGzaYzeJCwlW23dJCiGmlZ28efwpQwmBhVXpjCWGHYeKELFYfZfIYR4xQRTmWO8GUcyc6nHFPJdtdmUCNVGUWWyTHwxLhz3anUE+GW01mat0x2bE+EM6q8oJPRzIBEXC/KliZ6sQ0DT3IPyF/nLYzFwmO4OdYLfywrZNQy7ik46r4YilQT7pVzgHxGmDOiGfMM4nlEuDpkeDoPQ5NBzJAVLqYMy+OOO64Z2srLmGWwWnLKsPYdqe+t9F5aRM3vd8pc9Tf+dI/UOmKEq/vx/vpOpeKekoLAzkBAH6p+tJ7nDxH+m4k8/ZczvTMwXs/62p3OtbOJ8J3VJ3YnjFPWIBAEdi4CRYSzlSmvK7NbKzRibSOMsa0nwtmQXsbI92CTC7PC/ncs0ho5TJzh+UMpzC6lFhYfm91JiT2VjH9IYIQ8UY0X0ROFIGz5GOzWWc8zdvx6hEZRZitPiVPYwosSH4T4hGpeSBE2cxHh7tVEgQwDpLs42nwyNjwyGl7ui++AUPYb91wqcdeHM9KevU8ZD18CHVioiyLCnZcvh+ymaid2oq7nU5hQQEoTQbmWSQUEPsV7+Yxl+/N/kNZWqLo3ZXVNflaf+R1WARPV7LXXXm0ygL8iZKfjfAq3aSKFgAfRr7xJQSAIBIEgEASCwGwEQoQPQzMiEaWMGqEwEJ4yRYHMUGM0MTjspxZG5tZx9YloZfh84xvfaEoJBpnZfoYU40qmAGAwWcrnZZqMUGEzLK8TMgQxPpUYTIws52JQIcXFtma0zlOFM+DqZZmujYRflJWPAT0mwhlrSHQqDv/Py1TaFBIMa+WUighHJDPmKyP0GXiWBSKoGalU2NTZiG/JkkXGKRzck3MxQJWRQWpiYB4Rzuh3DhMHyu06rmfJKkIP2e2+kf22iduuTTB44cdA9eIbpD21CBLeNf0WuT7OnBLtgsOy9957t0mR8TG+I9O1BQZ9UhDYGQhow/qRCbpZzu1qrhsifGiqMY4vJZvVKsalpLUjsDOJcASK/oCISQoCQSAI7CwEighHoBJ2VCaU4U8gZmsbUta2IsI9qwlpkNVU1fyFu+66q4lEiGjYoUQ2fAHPHfYkW9v5rLIsf2Pq3pCk7Fz+DCKd+hkh+8ADDzSBDWWzUC1TybV2BREOD0Sy+1P+nggXboRfw7Znx1NkFxGO6EZMU63bzj/zfDGxwEdhF1XiUziOz8fWtzJ2TISbjHAd+BL2lDgHuc0nYPvzG9n/YoPz64RhQWYjxMfZMXwR96asCHR+SGX3xUdwP/wJmd/A71N++/k3VgeoF+Xms8QWqVrNZxAIAkEgCASBaQRChA9DMz7M2lPtMjxlIUgoNagIxHtDcvsU8xmxiVSuY+sTIWKJod8yhBDmzomspTKmAmeQlRqZekFcOIQvA5bSmiJ6nCghGLyl1kD4Mt4Yc4xkxp1zOm6cGI9FhK8lRrhzM/6UmQp6UXJdZaxlmo5nmDEcqRdgxhBn9HMSKDgYg0g794rgR3xTNjiXCQMTAJQXvkuMfYpu+FKQU4bvscceTS3iPELccB7UiZjiDFjOA+eE0cqgRurDUBmoRoQ/EYcQWS/0ijrvMwxdi1qEA4Lwd/7KHBXtgDHMqaH8gZm6cy37ORlU75wbxDx1CxItKQjsDAQ4VvqWdmk80i9M7PR9aTXXDRE+tMkyK1Wo1JAJvVO9Gkzzm98gsJ5EOMIEcWJVFqJDu0UaIKGSgkAQCALrjQD7kKCjQn8QYbB1KxN6UImz/2qb/21zLPvYdiS1Fycas9iRxkX2P0EKW5oNbRt71+/YnWxM273EkW07TsZDdjXhD1uX+MakoHMoN/EOn8LKSceOUxHhxEHs794+nvqfP4T459+4j0orVYTX73zWKlukLyymYoQXEe54710SjkR4EgQzTJWf2r78Ccd5hjuGve7cJWRyjGcIP4FfiHi+9dZbm8/R/55dRbDEH2BvOYbgR11QettWWR0j8K025gOOk/OqExMk/E91Wf6DtuGe7RPvnO9CvMQHWjbc5vh6+R4EgkAQCAJBYLshECJ8osaRGWb5S81cM+vIYEYH9TJVQZ/8xvLCiglnlp/hY4afUgNZQqkgOzdjCSFcSmTkKNXAFBGO5Ga4USkzeBg6jCTkPUOb4oAxPEWmOq6IcIaU8y/KVAZI2ilF+LJEeI8Nwk1ZqeUZkgzDMrB9VoxwZJ3E+GPsMxLhAluKeb/tiSb3qz4oLxjgCPopItx5GJCcD6RgGa4+GawmKUqtbeKj3u6unLXdJycD4WU7o3ic3It7pNAQN5BKlLNh8oSCnNFdyyA5OK6NnIkycYxkvq8nAvqzNqjvcsg4uSZzTFJxCjlvxghjVfWNZa4fIjxE+DLtZDXHrIUINw575ng+WGnjeYeUMulMxWeC0guMkQlJQSAIBIH1RoB/QDSBnKY89uJGY09ltiS73WrQ2tYfi6C2nVhDYifyF4oIF0qQOEQYDOINNqRzImlrBSoFMkFJnxxnTGSX+i272FhZiSoZwUoJ7RirIvv9jisiXBgXtndvI8/6372K7b1eRLgJfTa0cZ3YZBERXs8E9jelu98j5glZ+lT+CNES7KeIcIIazxRkuFWisxJ7yvn5ASYMiKD6ZL+6oMofE+EwR95rR/w2vqgyKTsBjmsTBpnQVcfakU9+EzI/KQgEgSAQBIJAEFiMQIjwCYyohcVrYwQhNCvNI8KpjGXHIGv9rifCGWtiusnIb0YcA5kagIEr/ttBBx3UrlvX84mYomJDBDN0/V9klU/nYvgyphDxDLk+OaaIcOdfFNe79jt2vYhw5LMle4xHJNwiIlyZyxD0W/Xh/vu6cI/u1aQCZYWJAqrvKSKcKgNhzviFRZ/UlTpjlMqMTep8ExcIwtru0285N3BBeI+TMlN3c1CsGCj1uckPKhAOC8fDskuTGhwNio4pUn187nwPAqtFABFussd4I76kFS0m86yW4MiK02lcMeFWk37LXCtEeIjwZdrJao5ZCxFuHEYwmBj1vBEzFwmzzz77tLa/5557tudEiPDV1Ex+EwSCwCIE2KZsS89U4glCjd6WnPr/Zz/7WRurHIuwdkzZ82MiXAxwRK1jXMdxSGiijzo3hTBhTp8ovtm2CHPHIlbrGo7zPzKcTYDwZQsbS/tURDgltnLV9WZ9Go9dl+/TE+G2K8OyMcL7MrgHk/vEJHynRUR4/ZZvwXYnRPI7q1zHCQbuBTZ8uHFoFDaT/Y5zvlkJkc3PY2fxTYiB+iTMI3GMSQLH9QleRECwIZASrgXuridTxFsRYNWx1aXuQ5upY/pz5f8gEASCQBAIAkFgGoEQ4RO4MGCQrsij3nCbIsIZJbYjOTnW1My2MVJ6ItxsPZK0wmAwxCiPxXmzjdJ7ShFOtYlUZfCI30fR0CffLYfj7AslMl7urSxFhFN51xvqZ326HuUC42+9iHAEPTU2YsLkwiIi3P2VMcpYZJAiwqkfxokTQCHvJaewnCLCGZnUgZwSx08l9cbghzWcKC44BH1iyKpnRHdPXjOKkfzq332KDY+YV27Xq/juiG/7EfcmMCjhEfmzytRfO/8HgdUi0BPh+kdlhLgQQBxUSnGO9P/H3r242zfV/f//nygkySGHREWRcwei3EqSJDlUKOSQJJTD7Ru3JCElpVKhnN2S3DpRSTrS+Tx/12Pcv/G5p2Xvtdf+7LXmnnOt17iuuddea845xpivMeeYYzzHe7yHDqY6zzM77nmRl/UG4Z5FvjLbG0s2Lo1ABUH9p3OoXjS9uFrCsdLSCfcc6hg7rgbH6+CrN4AEdSGLLHWDDq16oh7PYo5mbdco6iPHORfQrYNm4jVbRAdXHSNOnVjpjGrtWJ1bA2jLHavjyyLN9ZoKr+72v/eW941BN+8y76caxMtKzfFAQs2DgUp1pP0GHl2/94lp7eoyHXH6GSDuIqwGhMsvMKAs5VdewQVloi4GwSv8rve+z4DwLkoyaUSBxVWg+ghX364UtBfVWeol9XA7jIJwPsLB0hq0l72/uVepwTuggnD7vdNZJvMx7d3H9cdSbU9pazPowzDU8X7THgau6/t0Gj7CpW2WDijPXVt9T9b8L/XpnceVi2v1XuSTWx2/7777lr4FK3ebgYK2a5R2XN7f3mXaPWbELRVooDy8S5cC4UvpJh760El7g36s+n1q6/vdu7i2HbQTzBRl4KQPV7X1mwFc5WeWrNnFBjXs19cwAOJdD6KbJaufKQ1pshZX1glRIApEgSgQBaLAygoEhLc0AkM1LlkXgMAf/ehHS2OxHqLxo7PNmlLD0HcNGzDaVEZT2DRUNFg0TNognJVHO7A81iDVGBLAZ9bY1WedRqGGq4asuFk1L+WDVoNNww4A0aACL6qVsQaRvFQQvhYf4dLRALMyuYa6Bv4kQdqgEOjvmjUsNa5BNABIo0+jnLVqdY3SjheM1li1wIzyWC44zrRAgMPAgrKsPsIB8uUCfQAgjUidCHBII1kjuFp9ONdxysYACXhUF+1UfizNXYN9QBx/56Y00l++dGKULzc2gL5PAxHAehqty5VMfp+WAsuB8DYU9D+LWTNXzC7RydRJNXjlXtX59My3O4DrDcLVH+o7HXUdR/WpDrApwxWEq3/k37OpM+lY+0FtUNymM9221gKgwWp1gfpXGoC1jmkdHAXAhVEQbhaJ+kCd7XizQmpdYWaIuhOEF6+8SN93dVSd0qyumeRY7whla3aJ+lHc6kj5VUcZIFB+9R2jrlGHGYiTpmuqeXCtgDdwXt89oAygrL7i41VdvZQF3bTu03Y8y4Fw2oAhyte1mOljWrn80dyAsMGd0Xt7qe/0SogCUSAKzEqBcSBcXab/YANJzX5Uf4HmtV2o/chYQlu27RpFO1yfQpvapp4HlLnIqL/pw7Do1o4FvfVJuF/xzhFf25hj9Pq9A7w3q0GM+tUgqPe/vgAQzrUIAx7t+3Gb/pQBShbY2gw1uH4GQUCv97Hr4Z97uU09TxswnzGKgXCDurTw/vO7DRw+8MADN4Bw7XvXKy19DO8z7z9GKfpO3rvAsmuqm3edtBggiUtbw8Cy9rtBCNdRj62f3sV0dq7+mPaGfoF3uTaAwVrvWPtt8i8fjpU/eih3Wmp7ya/3sWOkqy0hLflnCe++0A+VT+0J1+7drj0DiLfbalXzfEaBKBAFokAUiAL/p0BA+P/v845VGdCrUaGxCABwF6CBWoNGCqBpkRWNO8cb6ddp16jSWNToBGH93wbhQAyr5bppsPBVClr7TaNHQ5FlscavRpUGkIaYhp1GlAbzUkEeAXzwio9rsEY8FcBUEK7BpbG90gbuaJi2LcI10uShTpcEIDQix23ioZd0XSvYDLxwuwKyaLjbgHEQTiNV402+NU7pohGp0anhC1xohOtc2C8/dQPLNQ5Z/okHuGNBr7HOqrIeVz81MJU5cGXhIPliVWKwQFzSaafhOsVvsEOHwrnuBw1o1iks3aXHsgPUpw+dNXCVNWjjfwMa1UrEYkQ00ulIo/X/7mzPj/Kh37j7K/vGP39VH/el+slztxQQXO43zyS/4upDg0SeE8+VgT91iueqntuemvx/JdnNf+o/9bCOJ6CrcwyWqrP8zkJM/WGAq7o78mzr3LKEd566yfGeex1UzzTLYnF5PiuMAJfFpyMrVBDOByzrbFqLz/ujDkiK1/MNUnv21YfgtDi9Ywye2dSVjlXP60A7Vt0vz6PH3nbbbSVfFYSrl4EEQF/9aFAQHFDuNV46mfIuXu8nGihHHeyaB/CjDcLp453oN3We91sXoQ3CQQFpG5ykBSAD/Oj8gxTq+HofrubTO7k+I/mcrC6JTv3UybvSc79cG7GLZzZpPFeBcSDcOwGk9Uxp52ozaoNq73oPCN632ph+01ZWV6vb9RXUfdx02LTVDYhq/9ffGNYYINafAHG1UbVfvae8H1cKQLl+RLWK9o5X/3tH6q8w+JAn+VhpkzftYiC3HVy396J8G8jWFxi3gdDSNJgNAnuPGrj33q1B/gxkGwyWX+158Ji2+lP6HoyGAPcKyb2TvUMds7Eb2K+P4lq0E7Qv6iC0vMmvgQX5N+DhOG0rxlXyUYPZYe4b94C2sDKkiXYHneXdu175uFbvRIPv3uviVMbuG+cmRIEoEAWiQBSIAssrEBDeNAUGVPcdGkos5SoAqQ3SKiGgCTBozLA+1EBhqcEaTWMVaAXIWQMC2RpioEp1PwAs2Hw3ZVs8votHw5JFAYtmMEW8Gjzi02gezUvNk991gAACDTpxAbsamfZVEK7xrAE2ycZNSxuESwuIACXe8IY3FEDGR+AkG02BF2AbfNBwBToBNZ/gi7wB2ECOBXA09jTqNKBZqQI1GowsHYAZYIv+dXPN8rLlllsWCxHfLRYE/oF59bj6qbzAJPFqXPoEXzQqaQn8yCsffazZxWczQABo1w6nBizdWSg6R2fGQmzKXB6VL2sOMEo5aOTqyLDKcW0AGnju94T/VUAjXvnQZpL7K8eMfw49W56LpdxDjAOHjuc+xbmsbC3Qpe4AiNV16rh6/nqBcINRnlnPk44vqzF1rnoP+GUdpV7VSTUzo9ajPn1Xv3r+WWH5zTOsc6rD6jmvA17S0fH0rAIK0hMqCFfXgLM6o85Vh4vLeeLVsVUPOI9VtTzap6MMDqgnah7Ucd4x3gFLHasjD0SIv4JwxwIc6iXxGhjVKQcO5Mvv6lZuqZQbFy31WPUysO95UweL1/tQOvJrMKHqttw7aNp1VxuEA97qagMUwL5r8n4CVtS1/N7X+3A1nwa0U3eMrzuiT//1YRELIhro8ywn9EeBcSCcwQew7X0KwnoPeYep6wR1bTXM4eZDPeh9oP2oLer9pE6vm/a0rX4HsJ0Dlmpnez+4P9T7k9Tj3iNgqj6NgRbtV+f53aC4d5T+kLbruE2e9Ke06Rl/tIP3oHgdY2DW+3C5zXveMY41MOz97v3sHT9634uDVvIK+htsMKBAb+9mbUz608Y1ik+8a9n0BbQHlJ/0xe+9WYP8ercrC9fi0znyJx81+F++ba6PS0j9Cdb33svirm0L50jDYIe4vde1ayYt45pmPqNAFIgCUSAKLKICAeFNUxpCQKZRdZvGXQUgozeFBpOGlAYdKOJ4nywKQVCWB0bkWYOzBK4gHBTXgK2bqfCgg6lyftPYsagKCwyNOtC3WqFxqLcAACAASURBVJ3LyyRB4whIB1TkUSNLwxXAARZZFkh3pc31aJwDOhpUNbgWjSyNSdMv5W/cJh+Ocy2sMlwHIAz81Ia4Tw04FiuAvwadBjswA14BVYAOWK6RqjGpsSfOWl4b8/m1r32tNFrlxab8dCBco+ATZFLOoBOYxOqEvu6Bmn/6aPBqtDrH9RnAUN4GDWigoe7+0mDVyHUdOjHK37W57knLuJbFPH/SnTUTF0SrAVs59v/8f89KC0AcKAZdzECp6awXCNfxZP1l0KzC7vpsgBCeMaBUHaF+bAfPu/rX4Jj6R4dUp99Anzrcfs91DbVOqG5H7KsgHJQFunX25UPnvnZuxQtMGxA0MwZIB67Vx94TLPhA2SuvvHJD/QeKgB0G6Oqx6mODk9IC/NVDFYSzHK+gQn7VMepxkMyghXpVPUMn17tcvOpd8VYQbgCzWqdVHbr4bINwZeHd6hrln1b1vsvn7J/5aNxvjQ1Yeldyi+G5SeiPAiCrtibwOhq0HQFRlsL6AAxAKtyux2o3az9q7zJsUceD0t5bo++zek79ZKChvaqtKi15abfn63ErfXrvOa++C8UH4upjTNpu9Q7UxgaylwvilcZym/22dvCOZaCjX9AOrrXmTXz2e685lm72TzvIi+uUThuAj6ZTr3P0WpY6TjyAPu30vaoV+Oix9bvrHNWi7stnFIgCUSAKRIEo8GwFAsL/fz00SjQya+Pp2TJN9k1DBfzWYQdWQAoNGTBXR35c0OBlbayRq+EJXIxaFIw7v+7TYHWeT9dk0zAyTc9U/UmChqPGOYhbYc7oeeK1b9wmHse1A+g92himEeikEel418/CxIAA6wfnbEwDvp3u6P/ypjEMUGu4Lhfkx7Guc/RaRs9xHTo8pnoCbxX+L3ee9F3ntK9tNF9D++4+ZYkMwICBAGC2jdeAD05AlKuT1UAtANmsFeeyWDPDgYWwOs5gmHquxrceIFyn1iCVfBnoM1jWfpbsN4AFFIHCOpHtoM4x0MWaUn2t7geszVjhW1W949mvQdzgAnht6rN9bRBugIDllgEwdVzNi3jVC+B2nT201P1sEE0eAWuzhEBz17XcseqtCsIBa++MWteo1wwCmHmk7vdOMICoHD1Ty8XLak68FYRzpeL9UeOtWsz6sw3C3WcsCtWpXMawdOR6hgW72Q6swut9uJpPVvhLaZvfNr6uiXbdascq12wUINyAmjZbwnwr4L2jjdx1nTzfqubqokAUiAJRIApEgUVTICC8gxIHPCsU6SC5JBEFBq1AG4SDYAlrUwAsBQ9ZEo8DhdUVCrAIgHM/wV8mi1zAGcxtW1KxNK7xdQnCAQADU8Ax8AYYA9rAdjsA0KZwux5TzA0yVrDt03RpABz4dn3qaPDbwAG9wFfXKz0b0AzQAuGstIUKwuWh+vt2PvhsRk6FFiy0WXMb7ATJDZrVeF2L7/VY1nZ1Kvy4Y1m2VRDOnRf4LQ6bQVkDsMC3QQDXYVCRqyeLaUqjDu5VPWsexDsKwtu6dvF/G4S7jhrkVRmxnDQrgRUs7bm/4cLHYM+krlLMxkmIAkNWwAxC6yKYqWOWhzoxIQpEgSgQBaJAFIgCUSAKRIHxCgSEj9dnKnuBCR34hCgQBVZWICB8ZY1Wc8SkIBwwZrFsUSb+KKtLI9O3ucdgGawuq2G9QLh8gNrcD7GybsPlmjef8gpms5pkqc2FCgAMeAPT4Dc4bV0FGqmjwWCL4XJxIl6zOlhTg8OmmYNNXMKwthYqCOc7nTU5GA5KG0AQP5AtXhZ8BhSAW2DX766DBTggz1ob4HWs3/nxdizYK89LHdsG4WC+xb/MagLguaRiIQrYg8biNTDgO2twEBg4F694ah7q1PG+gnCaKyODEgY+uLJRdqzFDZq5Zr7s6wDNuM+A8HIL58+AFQgIH3DhJetRIApEgSgQBaJAFIgC66ZAQPi6SZ+Eh64AoDYtS3/wCtRpg8ah67Ox+Q8I31jllj5vORAOfHN7AgaDu+eff37x+c89Bj/9oCqr4eXCeoFwLpOsqQDac43ByhkE5cbDBuJX63Bgl3UxOG3dgzPPPLM599xzC+y2oDDY7XpB6Bruvffe5qKLLioLl7GeBsal51x+vbkfAOKFCsItLAluS5evV5bqFs50LOAMRIPk0mZRDr77nxsl+eVqxnGCOoBfWGk61rW1j7UPyG+DcH7NlZ81KrhJca18mbOI535JUJbSES+L93a8/Jq34+0zCC8X0/rD2p3ufOi63iuuuKKUFf0NSJjZsJSVeEB4S8T8O0gFAsIHWWzJdBSIAlEgCkSBKBAFosA6K7BwIBwYYd24UgAuWJ6x5KvT40fPqdZ7AAgLtWlATBZ6OvWsAKcR32iex32XHqtBVpB16nw9nhbA2COPPDKRfvW8aX7SG3gGjek9DtJJ1/XwO94+zv9tXf3vfmD12j7O+b5Lc6ngdzrZlrs/ljpvqd/EZTEcC9W53xY9BIRP9w4AwllPW4x32223bXbbbbcCCFk9A73cmgAqnoPRZ2BcTtYLhLO8Bnr55D700EOfswGgYLng+fZMWbAMTLbPopYsu4FjfsXVJe2grrNAFV/ogLF0WGfzG26hYS5GalBPWriStTeYTj/1tzUhnMsKXX4FdasFxoB18dGf9T3A7vn3bqrBsdZpGHdsG4S7HtAdOK955R+dv+92fSde13z22WdvyIPFO8Fz8Ns94Bj1PKt0Vu3rUSct5xql6jPuU36VCzcRytAgD1czfIrvvPPOzVZbbVXAeED4OBWzbwgKBIQPoZSSxygQBaJAFIgCUSAKRIG+KbBwIJy1nin/40IFrsAvKz3gYynLX78BLqa6V3+y4+JdaZ90xQc+6MB3DSBAY75l+biVPiBSA6DCcpKbAVBpPQKgAzaZBg9UjQKsdp5o6XpAqLpInt+4OQCua/C/+4ElZft6HSv+pcrAPrAMKOJqAHRZ6v6oaaz0CZ6xQGXZKn+LHgLCp3sHAOH8yALgILB7DXgFPd3Hniv39GrDeoFwefXMjNtGr8d319k+Z9x1L3W8c0fPaR/X1s/vKx1f8zIaZ42nHfdSx7ZBOGBeB/3ax9a42p8rxevYdv7b53b1/1pAeM1/vU51vHf4TTfdVGYG7LPPPsWfeEB4V6WZdGalQED4rJRNvFEgCkSBKBAFokAUiALzrMDCgXBWgSwBAUfWeqz8WO6xpPPJOo4PVeDINPhTTz21HM9iGDRqB8CBOwtT7E29/+IXv7hRQKnGKX6ddVPWTZlvA9t6zFKf/Luy+GRdyOJxku2II44oC7q14wPhafK2t72t+Jh1fTX8z//8T4HjdAEq1yOwUgTxDjjggKI3ML9cMIgB9rGUvPLKK8tCf8AftwAgP3+/Avh9+eWXF0AILAncDhgwYeUJkoPhYBV/va7f5n55+ctfXtwzuGfoX/fVT3HUIK/K1HmjGzcKfAyz1lWGo/t9l8dFCQHh0y1pFsqsfT0PBuxAQc/HaH222lTXC4SvNp/zevwoCDebCPydh7BWEN7WgCbepWYSGRg1MGRxVe5/EqLAkBUICB9y6SXvUSAKRIEoEAWiQBSIAuulwEKAcFbOFg+75pprGr5ULaj16U9/uvgS5Z8VoGQRbGMxueuuuzbnnXdeWVAMRGWBrBPdBsMKTAfbdHbwGggFsMHaSQC2c1kqy5dFzrjFMMUeFJVH0/Gl7ff25hi+XNuBRfIFF1xQpv4D/eM2loPyCeJyi1CvAyhzzYccckhxm2AQoKbL9cttt91WBgj4E3a+PNeNT91ZWzKD0/KjfMBibgX4AzZAsZTVNmtuPmMNUJx44olFW6AfSOdWARC3QJ14lTsrQVbvZgB84QtfKDDawAitAUNlb4BE+rR2jjhofeGFFz5rs4/PYH53a9Bhdf8ZhBnd3H903WmnnYorhNH9vsvTooSA8OmWtNkKnofR+mutqQSEr1XBtZ0fEL5x+nn3LjfbZ+NizFlRYH0UCAhfH92TahSIAlEgCkSBKBAFosCwFVgIEG4BLWAZbNxxxx0LcGQRDXKCoaydLXpmA4r322+/AlHrb6y+AVNTz5cKrIUBVtbHoChorrM9LjjHgmsWfAPeX/va1060WRyOxffGBjAMtH7rW99aLNnF4zdW7TvssEMBuKDw/vvvX3yqvuhFLyr+bvmf3WOPPZq99967gHIaOW6bbbYp/mUB6ZWueWPyXPPL2h7QBqL5uOWWBJgGl4H6pVyTsJA0MAH484kLhCtT8Nr1uybf2yCctaBjlQf4rNyrRtIG1pXbuI3V4etf//oS7yTX7BrdNwceeODMBxQmyc96HxMQvt4lMFn6AeGT6TSro8Bc7y/vHTN5JhmAnVVeph3vNC3Cp523xBcF+qJAQHhfSiL5iAJRIApEgSgQBaJAFBiSAgsBwgFRltv8S7PyBVRNi2ZVDO6+6lWv2rABzVtuuWWz++67b/ht3333LQC0utNYqoDr4miOBSdWghJtEM7lBni+0gbKWvhrmiAcvAZigWVwmNsEULv6VN1iiy2KD3RW0AYTDBrUfHLJwq81y2hW6bMA4ay0DVjwTQ740JklPQv2008/vZQRGC7P7VCvCyB/6qmnysay2+YaLERngMO1tEE4wG1BO37Q24sH0ojvdIutueZxG4j+4he/uMw0aOdpuf8Dwp+tTED4s/Xo67eA8PUtGXWc+k09BYrPov5drysMCF8v5ZPukBQICB9SaSWvUSAKRIEoEAWiQBSIAn1RYCFAeFtswJdVL1DN3QdL4/bGvzM4bsHK+jtfzyyFgfTlAlcr3Iqw7rZ45kr+R9sgHFBaKVSwy6f5tEE4OMwVCl/XoKwNYAGEN9988wKguSH55Cc/uWHhSfkFpA866KDiooQf4mmDGJbVtGGJbfDihhtuKOCadgC58jvllFOKT3NuXQBU++TDYATXMsoF+DYYIr/ckADqrMkNiihv1u+s4Q0ycE1z5JFHljj5h7/nnntK0dCkDeMB+eU2EIdrFC5N2uHBBx9szjjjjOdsgD54Lg+uZ/SYK664ouF+ZlFCQPgwSjogfBjlNMRcBoQPsdSS564VCAjvWvGkFwWiQBSIAlEgCkSBKDAPCiwkCAdAWQPzLc1NCOtn/qRZ1VmUENytCyeuVMigq3jOOuus4tubyxWW0xZZBJiXC20QDkLr+K+0AfNgbBuEiwegB+stALbSxp85v+TcmnCHIv8VhAPENYgXkATCLRoJxn7mM58pi41ZYFIAlrkAAaHlgQ7cx9i/ls1Cfvfff38ZUDjmmGOKpfrnP//54tpEOlzdsEZn6c2ym37gtQEO+7hDsTgl/+/2yTc/8ay/LUppsU1g/aSTTlpyA8eVIz/qzhUqCJcf1uLjNnngQmYUhOu00nx0k29uUYBwWo/u5/YgILwUQ/70SIGA8B4VxpxlJSB8zgo0lzMTBQLCZyJrIo0CUSAKRIEoEAWiQBSYcwUWBoQDu0AtAMqtBbjIZzQAzrUGS2twFQi3HxxndWwDZoHQpQLLaQsssqYGqIFosPU///M/y5T1pc7xWxuEc8fyyle+cqJt6623fhYId0133nlns9122xX/5yzSV9pe9rKXNS984QuL7+w2CAeTTbO3cSXD4hkIB31BcYtkWqyTpbb8A+EsmVlZswjnnoT19Xe/+901baDvscceW2A9y21QXFogu3xsv/32JR9+A/FBbgMRXNyA1/LDjQ3f4Vy6AM3XXXfdBhDuN0C9Xuvop+v45je/WeB0G4RzjWJBSyB93MbCXDnJRw0GWer9NPoJ0Fff9NIe3e+7azWLge7zHmIRPowSDggfRjkNMZcB4UMsteS5awUCwrtWPOlFgSgQBaJAFIgCUSAKzIMCCwHCwVJgl/VwdV/yjne8owBlfrHBVla4gOqll15aLHO54/iP//iPYh3Ol/ioD+pa+CAmFxzi4GsaQGdRzMWFzvxyoQ3CAVOuVMZt8gYys9puW4QD4a5rq622KnDYceM2cYD/LJ4tGtkG4WA6C++67bnnns2mm25afHTzAc4q24KjoLLBAXCWJbPr/t73vldcerCmb/tcX+3/LN4tVql8DCaw7mZdbiBiKRAu/wCx8mEVz9qfJTh4bpACoDdQASZXi3ADBfUal/oE91nM77LLLs+yCHdPcJdiwGTcRn+DKXSpQZ6A9PZ26KGHNm984xvL4qOswcFz39vH1P9ZivOVTvd5DwHhwyjhgPBhlNMQcxkQPsRSS567ViAgvGvFk14UiAJRIApEgSgQBaLAPCiwECAc+L3sssuaCy+8sEBHQJMPcJa7LMG5HGFVzTLYcXyEg9ssxVmQs9YGPkcDCP3QQw8VH9asjoFK0Jb7kRNOOKEs5ijOpVyktEE4oLRSAHzB4FEf4RWEW+CT5fZKoYJvFs/8ntfvXIiAvyy+ba7f4MDzn//8cl18bIPSQDMf1rfeemuBsjSkq4U8/Xb11VcXgA1ib8x27bXXFt/frsXAgOurYSkQXvfRhpW3QQG+uLlNkWfW6cqIdXgF4QYtuHqp1zr66R4488wzC9BvW4SD9ED1Jz7xibEbPV7xilc8yzWKfNGmvRmIsLgqMP/Sl760/G8QwGwFx5mdwG85H+LyQQ/XNO8hIHwYJRwQPoxyGmIuA8KHWGrJc9cKBIR3rXjSiwJRIApEgSgQBaJAFJgHBRYChFv0EdgEZt/whjcUVxmgKKtd4JErDlCYta1jAGELMfqd/+vdd9+9+BQfLXDW3xZjtB9MZXkMyIKwXHWwuuZeBAwfDW0QDizffffdYzdw0HWIcymL8ElBeDsfoD2AzR86cL+cj3CAX2ABziqcBbuBBNe13377FQts1z2NAMzblgrjQPhSxwPjoLJFPg10VBCujMfll994rlXcHwA0i3NlbbDA9bIYt6imARUuUtwvyoQ7FwMFPlnKswKX5qg7E2mzYDcAw+e4BVxZfLtHWbWzKOd+xmAFrbnbAfIXJQSED6OkA8KHUU5DzGVA+BBLLXnuWoGA8K4VT3pRIApEgSgQBaJAFIgC86DAQoDwdkGBjqy3Kwjnn3vnnXdu+M0GSy+++OLmxS9+cfE1zUrX//b96Ec/akdTYO2NN97YcG9hcUwgvR1YhQPLXG+wSh6FoW0QDmJvs802E21bbLHF1EA4NylAL4t5rkhWAuEANQtt8JyrFJ/A8CWXXNK+9Jn9v1oQDjYD09zUAMwbC8LFwzrbApz0YhEuLwZLDJSwnAeqaxn7tM8gCdjdtmq3z4ACq3OW6azCH3/88aKlc/hht48LFv7O60CDslqUEBA+jJIOCB9GOQ0xlwHhQyy15LlrBQLCu1Y86UWBKBAFokAUiAJRIArMgwILD8ItUghij1qEg55+Y5E7ahEOZt5yyy3FFzgfzix3+SBvB9bhoCk3K+DmKCgXBwDKhQaL8HvuuWfsxmIcqH/b2942NRD+1a9+tcTFypt180og3PXJN7DLavqxxx4r7mWA2y7CakE4dzasusFmHcYKwi1myoJ7uY3G1Zf8VVddVSzxuYABqkF/VvlgNr/jLP5POumk4kZHetyXcGUCgJ9//vnF4tu9xHreTAHHA+cANxBuwVbuTmhqsAVY9zvr8xtuuKHcN0A86/1FCQHhwyjpNgi3FgDXQdmiwTTugde85jXNJptsUjaD0wlRIAo8V4GA8Odqkl+iQBSIAlEgCkSBKBAFosBKCiw8CGe12w4sfy34yF2IwOr71a9+dYG+LKK52/jGN75RIPjRRx9dwCjIOepqw3c+tU877bQCh7i9ALMBTTC5DcIBpZWCtMU56iOc/3HxWiyTT/Ol3LAsFTdwz0UI4MBaGtzde++9i+9s/rO5FGE5X32Ej8ZBH+lyAcL1SBdhNSDcQpks3VlVK1MDExWEAzUgtcUsl9qAcyDaAAgXN9zecIFiAU5QxjWD2sqDyxTQ+4477igg2+CC83waYFD+XKS4z2hqUOQjH/lIAfSs8AXxiI87FqBc2scdd1wpi4cffrjci8u5i+lC967TCAjvWvGNS+9zn/tcs+OOO5Y6okLLfP4vvI0Oa9fBQs1mbBmMTIgCUeC5CgSEP1eT/BIFokAUiAJRIApEgSgQBVZSYCFAONDIzzPLW4tfssitrlEuuOCC4o+ZT2YbC3HWujoYvl966aXFqpv1Mx/irL9ZErM0tigia11Qe6kAenNpwQ80v9IAJ7D5xz/+8VkgnBUwv9ArbcA6q23p1wCQAr4W9GSJzFJdmstt4rCZes5NDKjLdQvwuu2225bvfrOx8gQj+AgHlllAs1qmC1hJG4tHWuCyi7AaEC6vYPROO+1ULKtZXFcQPuojnIbK0KCCe8W5rO+VGX/fQDZf8qy3DVoYKHEfKEtl9uijj5ZPmjhWWYDm4Da/7u6x97znPY2BE/fe9773vTKgwaWO+8f3L3zhCwWWO8f/ALr7hsbScv+5/uXutS707yqNgPCulF5bOgbC3NfqCoNoQ9/M3tluu+2azTbbrAwsWsTWQOHQr2uo+fceVv+q/xKiQBR4rgIB4c/VJL9EgSgQBaJAFIgCUSAKRIGVFFgIEA5gA7iAI5AMMlYQvttuuxXYAXjYgFPW1XvuuWf5vssuuzSACLcXrHUtkugcQJRrE+B0uQCwAsigKEtucYLVwGnbInz77bcv8BRAHbdxo7L11ls/C4RLm39qVsbAAQs68a207bDDDmXhUDCfFiD9kUceWSAwEMxiHEjefPPNCwiXxnXXXVegF9cioBGtgDCwt4uwGhDORQmILK9f+9rXik/35UC4MuLqxTWzdHevWAyUFTh9DByA/9IHZdxDykl5tMvLfcEnPHc6LMWVMQBvQER+xMGlingAcb7n+TAHqvbdd9/iF5zfdXlxj1x55ZVloEEarMcfeuihMojShdbrmUZA+HqqP3nanpvqIshMlKFvZmRYNFi9dvDBB5c6wEySoV/XkPOvPlaHJkSBKPBcBQLCn6tJfokCUSAKRIEoEAWiQBSIAispsBAgHIjm7uL4448vIPvqq6/eAMK5/wB868ZNyM0331ygt9/4764+wsFw1tF8N7PQZWG+UgDDdeb5CGfpKy/AvN/BZb6ouU2R7kqbfLGQs/hjOwCrLJNBWot0cuey0uY47jzAWaAB5PdbDfJnQUxuRVhCg7OszA0AsKj2u/9dF3cxXQR6Sw8Y5n9dnpYLrNwvuuiiYoXN/7qwHAhnhQ2WV5ckLLcPP/zwAqn9zoKfxsC2OJQhy/ulyosfcdDb8e3gu/zT1f9gOWjOVQpXNOJi2e8Y6YDnBlqUESjPgh/QYrU+7yEgfN5LuJ/XZwBM3WqRZO6TPHOT1PH9vJrkKgpEgXlXICB83ks41xcFokAUiAJRIApEgSgwCwUWAoRzYQHecnvCjzZIypKRtS8XGOMCK0GuS8BewBgUBWDHWYIvFV+1DAYywVAbIM7/KUvfSQJAyj85IL5cEK+8LbeJw+a4dgB4WSO3A4vPX/7yl8WtjHO4l3EMa2cQv2swKz+gPP/egLj8LBe4HLn11lvLoIX8CsocgLZ4peupQdkCzgY9WO6DYQYnDFzUc+uxa/2ku3vBgAoA7pPVqd+WC+4398qihIDwRSnpfl1nQHi/yiO5iQJRYLwCAeHj9cneKBAFokAUiAJRIApEgSiwlAILAcKXunBAEkhdBAvbpa4/v0WBvioQEN7XkpnvfAWEz3f55uqiwLwpEBA+byWa64kCUSAKRIEoEAWiQBToQoGFBeHEBcNHLaO7ED1pRIEosLwCAeHLa5M9s1MgIHx22ibmKBAFpq9AQPj0NU2MUSAKRIEoEAWiQBSIAvOvwEKD8Pkv3lxhFBieAgHhwyuzechxQPg8lGKuIQosjgIB4YtT1rnSKBAFokAUiAJRIApEgekpEBA+PS0TUxSIAlNQICB8CiImilUrEBC+aslyQhSIAuuoQED4OoqfpKNAFIgCUSAKRIEoEAUGq0BA+GCLLhmPAvOpQED4fJZr368qILzvJZT8RYEo0FYgILytRv6PAouhAJee//znP7NFg9wDuQdyDyzAPRA3zrN7tweEz07bxBwFosBGKBAQvhGi5ZQ1KxAQvmYJE0EUiAIdKhAQ3qHYSSoK9EQBbZVTTz21OeKII5pDDjkkWzTIPZB7IPfAHN4Dhx9+ePPBD36w+c53vtOTt8/8ZSMgfP7KNFcUBQatQED4oItvsJkPCB9s0SXjUWAhFQgIX8hiz0UvuAL33ntv89KXvrTZYostmk022SRbNMg9kHsg98Ac3gObbbZZs8suuzRf+tKXFvytN7vLDwifnbaJOQpEgY1QICB8I0TLKWtWICB8zRImgigQBTpUICC8Q7GTVBToiQLf+ta3NkCvHXbYodl///2zRYPcA7kHcg/M0T0AgNeBzuuuu64nb5/5y0ZA+PyVaa4oCgxagYDwQRffYDMfED7YokvGo8BCKhAQvpDFnotecAXaIPy0005rnnnmmWzRIPdA7oHcA3N0D1x66aUB4R286wPCOxA5SUSBKDC5AgHhk2uVI6enQED49LRMTFEgCsxegYDw2WucFKJA3xRog/Bzzjmnb9lLfqJAFIgCUWCNCvzXf/1XQPgaNZzk9IDwSVTKMVEgCnSmQEB4Z1InoZYCAeEtMfJvFIgCvVcgILz3RZQMRoGpKxAQPnVJE2EUiAJRoFcKBIR3UxwB4d3onFSiQBSYUIGA8AmFymFTVSAgfKpyJrIoEAVmrEBA+IwFTvRRoIcKBIT3sFCSpSgQBaLAFBUICJ+imGOiCggfI052RYEo0L0CAeHda54UmyYgPHdBFIgCQ1IgIHxIpZW8RoHpKBAQPh0dE0sUiAJRoK8KBIR3UzIB4d3onFSiQBSYUIGA8AmFymFTVSAgfKpyJrIoEAVmrEBA+IwFTvRRoIcKBIT3sFCSpSgQBaLAFBUICJ+imGOiCggfI052RYEo0L0CAeHda54UYxGeeyAKrsnWRgAAIABJREFURIFhKRAQPqzySm6jwDQUCAifhoqJIwpEgSjQXwUCwrspm4DwbnROKlEgCkyoQED4hELlsKkqEIvwqcqZyKJAFJixAgHhMxY40UeBHioQEN7DQkmWokAUiAJTVCAgfIpijokqIHyMONkVBaJA9woEhHeveVKMRXjugSgQBYalQED4sMoruY0C01AgIHwaKiaOKBAFokB/FQgI76ZsAsK70TmpRIEoMKECAeETCpXDpqpALMKnKmciiwJRYMYKBITPWOBEHwV6qEBAeA8LJVmKAlEgCkxRgYDwKYo5JqqA8DHiZFcUiALdKxAQ3r3mSTEW4bkHokAUGJYCAeHDKq/kNgpMQ4GA8GmomDiiQBSIAv1VICC8m7IJCO9G56QSBaLAhAoEhE8oVA6bqgKxCJ+qnIksCkSBGSsQED5jgRN9FOihAgHhPSyUZCkKRIEoMEUFAsKnKOaYqALCx4iTXVEgCnSvQEB495onxViE5x6IAlFgWAoEhA+rvJLbKDANBQLCp6Fi4ogCUSAK9FeBgPBuyiYgvBudk0oUiAITKhAQPqFQOWyqCsQifKpyJrIoEAVmrEBA+IwFTvRRoIcKBIT3sFCSpSgQBaLAFBUICJ+imGOiCggfI052RYEo0L0CAeHda54UYxGeeyAKRIFhKRAQPqzySm6jwDQUCAifhoqJIwpEgSjQXwUCwrspm4DwbnROKlEgCkyoQED4hELlsKkqEIvwqcqZyKJAFJixAgHhMxY40UeBHioQEN7DQkmWokAUiAJTVCAgfIpijokqIHyMONkVBaJA9woEhHeveVKMRXjugSgQBYalQED4sMoruY0C01AgIHwaKiaORVXgn//8Z2NLiAJ9ViAgvJvSCQjvRuekEgWiwIQKBIRPKFQOm6oCsQifqpyJLApEgRkrEBA+Y4ETfRTooQIB4T0slDnJ0r///e/mH//4R/PXv/61+dOf/tQ888wzzW9+85vmqaeeKttvf/vb5u9///uzrvbXv/5186tf/ar87vx2cPxPf/rT5mc/+1nzr3/9q73rOf//7W9/a3784x83DzzwQOP/GpfPP//5z80Pf/jD5gc/+MFzzvODPP3lL38pm+O///3vN9/97nfLsc61iRMAv++++8q+cfkRn+t2zjSDNOWFXrRNiALLKRAQvpwy0/09IHy6eia2KBAF1qhAQPgaBczpG6VAQPhGyZaTokAUWCcFAsLXSfgkGwXWUYGA8HUUv4dJA78AL8AKXtfNd0C3AuWadTAW6La/bs754x//WOAsSPv44483jzzySIHG3/zmN5svfvGLzU033dR8+9vffhbAFdfXvva15itf+Urz9NNPP8vSWrp33313c+WVVzZXXXVVyddoXmqe/C7diy66qDniiCMacL1abQPz8nP++ec3H/nIR+opz/oErX/yk5+UzTWfddZZzXHHHVfgO7j+2GOPlTh///vfN0cddVTzwQ9+cEltaqS/+93vynX98pe/LAMDVaeVPlcC53Q3KEAvwH8cjK95yediKhAQ3k25B4R3o3NSiQJRYEIFAsInFCqHTVWBgPCpypnIokAUmLECAeEzFjjRR4EeKhAQ3sNCWccsgbveBe985zub173udWV7/etf3xx77LHNddddVwBzBa4g8ZNPPtmce+65zbvf/e7m6KOPbt72trc1hx12WHPwwQc3b3jDG5o3velN5TfxHX/88c3JJ5/cnHHGGc0nPvGJ5pZbbimW0i5XXL/4xS+aD33oQ83HPvaxDdbYVQpwG8C+4IILCty+//77G3ldKsjfrbfeWgC2+ED5Cs1B+ptvvrmA8Kuvvnqp0xtx/7//9/8KKAfFKwgHpsF1IP473/lO8+CDDzbvete7Slw1/qUi/J//+Z+ixb333tvccccd5Rx6HHPMMeV/cYxuAP5y+atpyA/9P/CBDxRd/F+Bfz0mn1GAAgHh3dwHAeHd6JxUokAUmFCBgPAJhcphU1UgIHyqciayKBAFZqxAQPiMBU70UaCHCgSE97BQ1jFLrJdvu+225hWveEWB2B/96EcbG3D73ve+t/nsZz9bLL9lEXTlruTTn/508/GPf3zDduKJJzYHHHBA8/KXv7ycc8kllzSf+cxnmuuvv76c/7nPfa75+te/XlyTsIoWpPuFL3yhgHDxgdzSuuyyy5pLL720EQfgDrLvvvvuzfve974Cf+0Hph9++OFiXQ6WX3zxxQXKA/hAPHgtjttvv73kF9h+y1ve0rzjHe/YkGf5v/baawvo5zblU5/6VLECZwF+2mmnlWNZX5955pnNNddcUyzcfZ500knl2HFFBpjvuOOODWt417j//vsXeM66XTpLbQYhXG8NwP6FF15YrsO12AwmsGrfb7/9moMOOqg5++yzy291f/2MtXhVcXE/A8K7KfuA8G50TipRIApMqEBA+IRC5bCpKhAQPlU5E1kUiAIzViAgfMYCJ/oo0EMFAsJ7WCjrmKU2CAdaWVCD1UAaa++3v/3tBVrXLILhLLm5EgGQWVMDyiyxTz311OIOhf9qbjz4Btcn41ebr+8axAE4g8osse+5557il9v3t771rc0hhxxSwPxOO+3U7LPPPsUiXF5YTdu4LQHWuR4Bm1/84hc3++67bzkPCP+P//iPZrfddmtOOeWU4tbEOSD5oYce2rz5zW8u26te9api/c562wauH3nkkQVcA+as2wF8cdx4440FvMsfq246PfTQQxusxB999NEC1PkW9zugv+222zaf/OQny7Gg9Ze//OViUf69732vWWpz3W0QDvyD6QB+3cRDE2DddThnqY0rmliK17ttMT8Dwrsp94DwbnROKlEgCkyoQED4hELlsKkqEBA+VTkTWRSIAjNWICB8xgIn+ijQQwUCwntYKOuYpVEQDmALLK65NQGi+d9uuwLxPz/c/HsD1AAxWMxaHIC1H/hm6X3ggQcWa25W5zX84Q9/aNyHgC5/19JiJQ2sswy3UOUJJ5xQ4DVQDszLV13QkosQ6djkYYsttihW7c618TcOassbYO4THBZH3ViRc+diAU2we88992z22GOPZq+99mq22267Atf9BpizCpe/l73sZc3OO+9cIPsrX/nK8v9LXvKSAuBZiwPwLOu333775nnPe16B4bvuumuJ9zWveU2B9ay5l9pe+tKXPgeEA/L12g1Q8JnuXJb2TzzxxIZrqddUPwPB6522uJ8B4d2UfUB4NzonlSgQBSZUICB8QqFy2FQVCAifqpyJLApEgRkrEBA+Y4ETfRTooQIB4T0slHXM0nIgnHsPvqjBYn6zawCjWTfbx/qalTV/19yJcKnCqtn/73//+wtgZmnNIhw4r8F3i1fa+NBmec3nuEUpWZv7DkBzcQKSA7tAMJ/l/H1Xn+U+KwhnVe67jf9xEBk0Fsfll19erL5r+j65WGH1zTKd/2/AHOwGs1ldc/PCwh3gB9G5JHnRi15U3JF89atfLQDfopmunQsTYJpLEs8XS/BtttmmpH3eeecVoA9eu1Yw2yeN5Mt3Gz3bPsJZhHNPw985P+ms4LmJES/LcOkaLBjdnNcedGhfc/5fHAUCwrsp64DwbnROKh0r4GVshWsvpaV8eeW3pX2c9UGX008/vYzEb7LJJmWUftZ54v9NQy1hsRUICF/s8s/VR4FpKAAQ3HDDDZ20O/hN5dd1yy23LFZ/Ov2zfl8m/um0nVgfWnjOYmkJUWA1CgSEr0at+T92FISzQAa7QWeW0vpUrKxrsO/zn/98AbdgLPDN3zawy4UHC3DuVLxP/A5QsxSvgbW487n2AH+9h1hcA8asyIFtblZAYOcCwUC4T6D9nHPOabgiYf3cBuEWphTE73gLeXKxIi31pbjaMJ4Pcu5S+BjnGuUb3/hGef9xe+J370bvK+9jUFFeWXfzfc4lC91cH5jPqr0dRn2EGzDgNoUlu0Bjeuk/1sCIi1uVGioINwAArLsWVugGDOhDN3F8+MMfLpAeqLfJj3ZEwmIrEBDeTfkHhHejc1LpWAEvPi+c5z//+Q2gmi0aLHcPsBpgDZCw2AoEhC92+efqo8A0FAAe+AVd7n2T39MWcQ/UwYtY/k3jqVusOALCF6u8V7raNggHWBn2mC10/PHHF5cnLLDB7xr+8Y9/FBcmwLLFKG0spFlYv+c97ykuSRiR2Q/IgsRAM/grVBDOqhk0526EtfMjjzxSYLE8sHzmZ5uLFL7IGacByaCvYy0KCWoD3sD55ptvXqy2gfR6/OGHH15csvBXbpFKMFlenSMPXKNYoNLxLNCl6/3r+QC9gXj1q/9ZfoPMAP8VV1xR8gqGg9VgOD/pNYgflOcyRbyAJLDOCpz1Octx1+L6wX/f68byHiyXvwrCWbfb71hW7rRQHgZBlZMBgYQoMKpAQPioIrP5HhA+G10T6zor4IW52WabpTOaQYAV7wH3iZXVExZbgYDwxS7/XH0UmIYCFvXKAHxg90oDHptuumnxi9u2KJzG/Zc45l+BgPD5L+PVXGEbhFt0kq9qG1/X3G5wGQK8grOCT3AWtAV8AWKAFiwGzX/2s58VC3Kg2v6jjjqquBPh/qMGVs6suvn/Zg3ObYj4wGmLP/LTvfvuuxf3KPx0v/rVry7A3KcNwLbgpHwB4epD+d177703bFtvvXVxzwIsS4tlO3ct/J3LP8vv1772tRsW9JQ/oPo///M/i8sSEBy8B6Et+mkfNlAtwEF3gNvx9gsguPhZoUtfPrlnsXAmf+hcsQDgzqO1BT19rxst5VX+KginFZ3o6xP4VgYGCrit4Uqmlk3VN59RICC8m3sgILwbnZNKxwp4sdWOiJeRF062aNC+B/hs4y/OfcJyImGxFQgIX+zyz9VHgWkowD+pd4oFuXR62++c/J82iHvgmGOO2dA+5b82IQqsRoGA8NWoNf/HtkE4aM2a+9prry3uRLgPAWdZVLNEFsBnPsJZZ7OQBniBXOeCtfpGH/vYx4rrDhbigLYFN0888cRiHQ54c5XCQpqbD0Ca1Tir6m9/+9vFRYk4gGRW0Kyq+fneaqutSpzqQEAafAaMgXAGSdymANDqROdwbQJ8c5/CrQr3KNy1eK+Cx+JkkS4vfrMw6BlnnFHO8x52rjhd5ze/+c0C6llgYwKgOr/hwLa0aGLjSgUoF5f+oeMYSvF3bp+Bgi996UvF3YrFM+nje91oID9gt/PU9RYWNdDgeO5kxCmfb3zjG4u/cAuV+m7jNsbzDcYnLLYCAeHdlH9AeDc6J5WOFWiDcC/WhCgwqoCpfqa+BYSPKrOY3wPCF7Pcc9VRYJoKVBCu09v2ZzrNNBLXsBUAbaqhRkD4sMtyPXIfEL4eqvc3zTYIB6WrxTG/4KyiwW3At7phqhbKXIewSOaCBGA+++yzN0Bf4JZLEUAYOObOhD9x/+s7cb8CsrOYBrtZhOtrA7iA8q233logL4ty1s5cpLCqBoyBYVbnLL1X8hEOZtfAgpzfc9fofLCdRTjXKfx+v+1tb2v22GOPsgAoaC//QDXQr86VrmP9boFQANpxLMnlkfW444BwUNqilq7JIILr/PnPf9784Ac/KAMAXMnsu+++BbYbELBxJcPK3DXRHgiXvngNRtBQen63ybvBArBcXvwmb3ydc9uSsNgKBIR3U/4B4d3onFQ6ViAgvGPBB5hcQPgAC22GWQ4In6G4iToKLIgCAeELUtBruMyA8DWIl1OLxWgdSGFBmrDYCiwFwikC7gLGn/70p5vtt9++LOzoN1bYLJdZYrMMB61ZSoO83Khst912xeIZMGeJDeQ+/fTTBfZaTBPwdZyFHsFxEJ0FORgNhBsA5vLJ+ksWnRTaIBwo5qdcPnzKxxZbbFHcsNR8c1Fiscw2CPcbmA1IA83S5KJEPm0szQFrwL/mg4U60Cxvrl0AtlmSW8uD5bz4RkNdLBOUFi9ozQodfOe+xflmfbGWl6b9/KKzWndN/H/LO8BNQ/ke3fhJt5YZVyqup72/Lso5mq98XxwFAsK7KeuA8G50TiodKxAQ3rHgA0wuIHyAhTbDLAeEz1DcRB0FFkSBgPAFKeg1XGZA+BrEy6kB4bkHnqXAUiAc9PU70M0SmVU09yCCfeAsq25uVFiGf+c73ynA26eZskC2NvFVV11VLLBZdouPn23nsqxm/Qzi3nXXXcXNCGBs/5133lnO4SvcfqENwqvvccAaqJ8UhMs3GA4SS5/lNvciILi83XTTTY01OsB5daxFMX33KR/OB+EtCsrVyw477FCuXx5GQwXhdDCQwGqeKxdW88C6xTLpZ4FQfckHHnhgwyKgLOINLBggYHHveAMI2gbtjfX6C1/4wnIMiN7exwVLwmIrEBDeTfkHhHejc1LpWIGA8I4FH2ByAeEDLLQZZjkgfIbiJuoosCAKBIQvSEGv4TIDwtcgXk4NCM898CwF2iAceDVLgCsOn6ySueNgBf3444+X88Bk8JfPa65PWFaD2kAxsAsQ858N/PL9zaqZn23AGuR1PrAN1IHMYDlYzD0KC2yA2iKdfq+LUDqepTnAC5ZzccJ6GqAWrwWmpcPi2iZPFtVsW4TXi5bPn/zkJ+X6AGYW6/LFov2GG24o18u1yyGHHFIW4MQD7OO7m0sTcR555JEFXB977LHF4lt87VBBuHP5M6chgG9hUP+3AwtwZcC1ycc//vEC6Vmas5jnD5w1Oq2UQXuTR4MOrpWO7X30SlhsBQLCuyn/gPBudE4qHSsQEN6x4ANMblYgXCOt+r4boCwLm+WA8IUt+lx4FJiaAgHhU5NybiMKCJ/bou3kwuIjvBOZB5MIlxosuVl+s5CuG0gMdAPOfE5zRcJ/OAgO1AK6oDDoyjUHoPvQQw9tAOG+O+/iiy8uVs38gwPd3I5wp+K7+C1aCeQCxvx3g8unnHJKAd4AtQCwcwPCHYjFKVlWA8Q//OEPCwh/3vOeV9yNsLy2eY8C8vLHits1aqOztAapWZ/bZ2Ohzm2JNG6//fYyCMDK3cKUNADWAXDuXAB658grAG8/P970ALrlV/+NBfxOO+1UrLornOcehu9wVuZ0qps80YUrlwsvvLB54oknShpnnXVWSWO5Gwn4ZhXueP3GhCjQViAgvK3G7P4PCJ+dtol5HRUICF9H8QeS9KxAuMamRlltAA5EjoXPZkD4wt8CESAKrFmBgPA1Szj3EQSEz30Rz/QCA8JnKu8gIwdSWWqD1+3Nb0ByBa0snwE2fq5ZjIPH+iqsqrkb4daE7+vqmqMa9rD25upkzz33LECZBTRgLH4bcAyAv+pVryrxchtS0yQoa3QuS1h5881tMWmuUVhpA9Kbb755cbFS8w7Ys5gGrf3PpzmIveuuu5Y4WJd71wLi8gIqA+h77bVXAfR8ewP+FtgEuYF5YNw1gNb1mvk7B80NHli4WD+AFTvQv8suuzQHHXRQseqmBxcs4rGIJv3aG11A7XPPPbfk1f8svR977LFl76eA8GWlyY6mKc9pXQvCDIqE2SgQED4bXRPrOisQEL7OBTCA5KcFwjUGWU3onLCK0FDi781K5AnDUSAgfDhllZxGgb4qEBDe15LpT74CwvtTFkPMSUD4EEutH3nm2/qSSy4pVuIsmllBa/uy0H7729/eHHXUUQUMA881ANqMe1hUf+hDHyq+sYHkNugGj1lj21h5s9JuB6AddAeegWjgHARnOMQtCyhc3ag4T9yg/H333VdAu2N9B+RBQVbl+ljyJQ7PBB/h4ta3czyALh8WrnSu/azJgXODAzbwX17kmw4sut/97ncXHY4//vjSn+P2xQACSM/VCeDunLrxkU4b2nEhQ1cQn392171cCAhfTpn8ToFYhHdzHwSEd6NzUulYgYDwjgUfYHIbC8KB79/85jelUcfqwLTD8847r1hDWEncdD7T/KpFxQClWcgsB4QvZLHnoqPAVBUICJ+qnHMZWUD4XBZrZxcVEN6Z1HOXENjs/uGOA6QFi3/+858Xf96smbk24Re8DaWJAEwDyOCz/g8r8HbQLwKVQek2IG8fs9z/oLo8iKMdQGxW2EJ1j8Iti7zJi7zXAHaD4mD1UunLm/PEMxqkLx2fFsfk6sVggf6dDcCXlnhZrwPq7SBOWvKrDojLh/5f9cnePrb9P5AuHS5Xlspz+9j8v3gKBIR3U+YB4d3onFQ6ViAgvGPBB5jcpCBcg08jh4WBxpopf0b6NRpZfptGWKcvtT8Dwod1UwSED6u8ktso0EcFAsL7WCr9ylNAeL/KY2i5CQgfWoklv0NVYGMB9caeN1Sdku/pKxAQPn1Nl4oxIHwpVfLb4BUICB98Ec78AiYB4RozAPgDDzxQFlfhA49fuO23377Zeuutmxe84AVltfM2AK//B4TPvAinmkBA+FTlTGRRYCEVCAhfyGJf1UUHhK9Krhw8okBA+Igg+RoFokAUmDMFAsK7KdCA8G50TiodKxAQ3rHgA0xuKRAOfJtyZ4EV09xMkXvve99bFmXZZ599yiriW2655ZIW4BWA18+A8GHdFAHhwyqv5DYK9FGBgPA+lkq/8hQQ3q/yGFpuAsKHVmLJbxSIAlFgdQoEhK9Or409OiB8Y5XLeb1WICC818XTi8y1QbiVxC1wwh/c1Vdf3Zx55pnNW97yluYVr3hF88IXvnAi8F0BeP087bTTii85/uSy9V+Dyy+/vHnTm97UbLvttmV1+S996UvFZ2AvbtZkIgpEgUEoEBA+iGJa10wGhK+r/INPPCB88EWYC4gCUSAKjFUgIHysPFPbGRA+NSkTUZ8UCAjvU2n0My9tEL7HHns0J598cvPqV7+62WqrrTYKfFcAns9NBq8fmGXBoPZiPP28i5OrKBAF+qRAQHifSqOfeQkI72e5DCVXAeFDKankMwpEgSiwcQoEhG+cbqs9KyB8tYrl+EEoEBA+iGJa10wGhA8fWM9i0GGzzTZr3vOe95SV4q1AnxAFokAUmFSBgPBJlVrc4wLCF7fsp3HlAeHTUDFxRIEoEAX6q0BAeDdlExDejc5JpWMFAsI7FnyAybVB+Jvf/ObmjjvuaD772c82F1xwQXPCCSc0Bx98cLPLLrs0k/oEH4Wyxx13XOM+zDYsDUCK22+/vXn66aebf/3rXwO8s5PlKBAF1kuBgPD1Un446QaED6es+pjTgPA+lkryFAWiQBSYngIB4dPTclxMAeHj1Mm+wSoQED7Youss420Qfvzxx5d0LZb5m9/8pvnv//7v5pprrmn4+eY/fL/99mte/vKXF//Rm2+++USuP7JYZmdFmYSiQBSIAr1QICC8F8XQ60wEhPe6eHqfuYDw3hdRMhgFokAUWJMCAeFrkm/ikwPCJ5YqBw5JgYDwIZXW+uR1KRA+mhNg/Ne//nVz9913NxdddFFZRHHHHXcMCB8VKt+jQBSIAlGgCQjPTbCSAgHhKymU/eMUCAgfp072RYEoEAWGr0BAeDdlGBDejc5JpWMFAsI7FnyAyU0Cwl3W3//+9+aZZ55pfvrTnzYPP/xw841vfKP51Kc+1Zx66qnNQQcd1CwHxmMRPsCbIlmOAlEgCqxBgYDwNYi3IKcGhC9IQc/oMgPCZyRsoo0CUSAK9ESBgPBuCiIgvBudk0rHCgSEdyz4AJObFISPXtpf//rX5qmnnmruu+++5sYbbyyW4u973/uaww8/vNlrr72a7bbbrtl0002bgPBR5fI9CkSBKDDfCgSEz3f5TuPqAsKnoeLixhEQvrhlnyuPAlFgMRQICO+mnAPCu9E5qXSsQEB4x4IPMLmNBeGjlwqMP/nkk82tt95aFto86qijChC/7bbbRg/N9ygQBaJAFJhjBQLC57hwp3RpAeFTEnJBowkIX9CCz2VHgSiwMAoEhHdT1AHh3eicVDpWICC8Y8EHmNy0QDg/4v/85z8bQPyPf/xj86tf/ap55JFHijuVAcqSLEeBKBAFosBGKhAQvpHCLdBpAeELVNgzuNSA8BmImiijQBSIAj1SICC8m8IICO9G56TSsQIB4R0LPsDkpgXCRy/9X//6V/OXv/ylwPHRffkeBaJAFIgC86tAQPj8lu20riwgfFpKLmY8AeGLWe656igQBRZHgYDwbso6ILwbnZNKxwoEhHcs+ACTmxUIH6AUyXIUiAJRIApMQYGA8CmIOOdRBITPeQHP+PICwmcscKKPAlEgCqyzAgHh3RRAQHg3OieVjhUICO9Y8AEmFxA+wEJLlqNAFIgCPVYgILzHhdOTrAWE96QgBpqNgPCBFlyyHQWiQBSYUIGA8AmFWuNhAeFrFDCn91OBgPB+lkufchUQ3qfSSF6iQBSIAsNXICB8+GU46ysICJ+1wvMdf0D4fJdvri4KRIEoEBDezT0QEN6NzkmlYwUCwjsWfIDJBYQPsNB6mOWHH364Ud+cffbZzZlnnpktGkzlHrjsssuau+66q4d3fLI0ToGA8HHqZB8FAsJzH6xFgYDwtaiXc6NAFIgC/VcgILybMgoI70bnpNKxAgHhHQs+wOQCwgdYaD3M8mc/+9nmZS97WfP85z+/2WSTTbJFg6ncA7vssktz/vnn9/COT5bGKRAQPk6d7KNAQHjug7UoEBC+FvVybhSIAlGg/woEhHdTRgHh3eicVDpWICC8Y8EHmFxA+AALrYdZbtc1z3ve85ps0WCt90AdUDnppJN6eMcnS+MUCAgfp072USAgPPfBWhQICF+Lejk3CkSBKNB/BQLCuymjgPBudE4qHSvQhlOf//znO049yQ1BgYDwIZRS//PYrmvOO++85s4778wWDTb6HrjmmmuaF73oRcWqPCC8/8//aA4DwkcVyfdRBQLCRxXJ99UoEBC+GrVybBSIAlFgeAoEhHdTZgHh3eicVDpWoA2nAsI7Fn8gyQWED6Sgep7Ndl3zhS98oee5Tfb6rsD3vve9Zttttw0I73tBLZO/gPBlhMnPGxQICN8gRf7ZCAUCwjdCtJwSBaJAFBiQAgGjGAVFAAAgAElEQVTh3RRWQHg3OieVjhVow6mA8I7FH0hyAeEDKaieZ7Nd1wSE97ywBpC9gPABFNKYLAaEjxEnu4oCAeG5EdaiQED4WtTLuVEgCkSB/isQEN5NGQWEd6NzUulYgTacCgjvWPyBJBcQPpCC6nk223VNQHjPC2sA2QsIH0AhjcliQPgYcbKrKBAQnhthLQoEhK9FvZwbBaJAFOi/AgHh3ZRRQHg3OieVjhVow6mA8I7FH0hyAeEDKaieZ7Nd1wSE97ywBpC9gPABFNKYLAaEjxEnu4oCAeG5EdaiQED4WtTLuVEgCkSB/isQEN5NGQWEd6NzUulYgTacCgjvWPyBJBcQPpCC6nk223VNQHjPC2sA2QsIH0AhjcliQPgYcbKrKBAQnhthLQoEhK9FvZwbBaJAFOi/AgHh3ZRRQHg3OieVjhVow6mA8I7FH0hyAeEDKaieZ7Nd1wSE97ywBpC9gPABFNKYLAaEjxEnu4oCAeG5EdaiQED4WtTLuVEgCkSB/isQEN5NGQWEd6NzUulYgTacCgjvWPyBJBcQPpCC6nk223VNQHjPC2sA2QsIH0AhjcliQPgYcbKrKBAQnhthLQoEhK9FvZwbBaJAFOi/AgHh3ZRRQHg3OieVjhVow6mA8I7FH0hyAeEDKaieZ7Nd1wSE97ywBpC9gPABFNKYLAaEjxEnu4oCAeG5EdaiwCKB8F/+8pcNIHTuuec2p59+erYBanDBBRc0N998c/O3v/1tLbd9L8717H384x/PfTjA+1D9cdZZZzXev9///vd7cT+Ny0RA+Dh1prcvIHx6WiamHinQhlOLDML/9a9/NX//+9+bv/zlL80f//jH5plnnml+85vfNE899VTz61//uvzWLjYNlSeeeKL5wx/+0Pzzn/9s72r++te/lvN+8pOfNE8//fSz9g3xS0D4EEtt4/P873//u6nPg89phXZdExA+LVUXN56A8G7K3nvxH//4x9QTCwhvGnWt9oP2xJ///OfSnvjd735X2hzaHr/97W9Le6ItvraJfc4ZrZ9///vfNz//+c8bbQ/tkKGHgPChl+D65n+RQPgjjzzS7LPPPs1WW23VbLLJJtkGqMH222/fHHvssc/pb67vU7RxqZ9//vnNjjvumPtwgPeh+mPzzTdvdt999zIws3F3QHdnBYR3o3VAeDc6J5WOFWjDqSGDcB1KnXWddp1D30dDhXuOaW86jID2r371q+bxxx9vHn744eaee+5pbr311ubGG29svva1rzWPPvros6L7xS9+0Xzyk58sx/7pT3961r4nn3yyAfqMht91111L5uVZJ/T8S0B4zwtoytkDZkAZsMVz4bla7plaTdLtumbeQXh7MEFdMzpYNqpbu/5aCjrW+GodV+sv38W9VH03msa8fQ8I76ZEDQjbgNdp1QVyPmQQXp9XmtStPudLPYue0frM1k/nGXg3WK7N8MMf/rD5zne+03z7299ubrnllkZ77Pbbb2+0NWoQ9/3339/ccMMNDQtQcbTDd7/73eaaa65pLrzwwgLEl8pL+/i+/x8Q3vcS6nf+FgmE//d///cGCP685z2v2WKLLbINRAPQcdNNNy3QeP/99y+GWP1+slbO3cknn7wBgm+22Wa5FwdyL6o3nv/8528ou6uvvnrlwl7nIwLCuymAgPBudE4qHSvQhlNDBeE6g6DIhz/84ebEE09svvKVrzSsqtoB2Lvtttuak046qTnuuOOad77znc2RRx5ZOuOHHHJI86Y3val561vfWn63/33ve1/zwQ9+sDnnnHMaLwKNzBrAQQ3sgw46qHzq2LYDiy2dVfHrkLLOGnKHNCC8Xbrz/7+BIYNBngfPwic+8Ynm61//epkBAdxsbGjXNfMOwtUBBtPe8Y53NO9617uaz3zmM2NlAxrVX0cccUTz0Y9+tADHWmeAaOL78pe/XOqjo446qnnzm9/cvO1tb2tOPfXUEjcr0KUA+thEB74zILybAjRV21RZlmqXXHJJ841vfKP56U9/+hxr5NXmZqggXP344x//uPnQhz7UHHzwwWV74xvfWJ5z4Ba4roDas6u9cOWVVzYnnHBC8+53v7s5+uijy3PuGXbeYYcdVtoK6onjjz++ARDOOOOM5mMf+1iB4bQW1Admp11++eXNe9/73gLQxd8OgDoQfsABBxSY7vghh4DwIZfe+ud9UUG4vse9996bbSAaMJhizc8Sd95A+Atf+MLyTsr9OJzn8eyzzw4IX//XV+9yEBDeuyJJhqahQBtODRWE62h++tOfbgDtV73qVc0pp5xSLLvb+uiYPvDAA6VzqYPJF5uOLPD0spe9rHnDG95QOp9XXHFFeWkDV7bPfe5zzd13312sq2p8piCyBtdxZcEFyPhu03G7+OKLmzPPPLPk5dBDDy3wqu7/6le/WuIa7cDWuPv4GRDex1KZXZ4MGrnnd9hhh8ZUTQ10HSswDIT50pe+1Dz44IPFYnw10+/bdc28g3Bgm1XnTjvtVDQ0AAdKLQWrzShRN732ta8tFl1At/oK+DLI9thjjzWXXXZZGZj7wAc+0HzkIx8psNwnYGbQzn510ZDqlbXewQHha1VwsvOvuuqqAmy33XbbZt99923e/va3l/vOu87gjPvO7BH3Xh28mSTmoYJw9SPLa4Pnr3nNa8r73SAWyG2rMJwGZtIYPLzpppue1fbwzGpzqF8Nlhn8ovO1115b2h2f/exny5Rk6VT3auqOb37zm815551XjpcPs9Zq20K62jXaJaaky4vvdb/Bea5WhhRcU3XzYHZeQhRYjQKLCsL1gRKGo4C63aDoPILwrbfeurQRhlMaySn2Ud+7sQjP/VAVCAivSuRzrhRow6khgnAdb51wllQ6pq9//etL5xRYGoVOgDnrbBuYrVMJILF61eFi5aXjykf4j370o+bOO+8slrG1I6rggSmdWpaYYJ6FJHTQWHcdfvjhBRQA6zqiLMb91t74TQNwqsXYEG6mgPAhlNL08lhB+Ete8pINjaHaKALHWUGC4tddd10B5p4VVpCer9Fnrp2rdl2zSCBcR4B1/R133NHw4Tsa1Ecg2J577tlsueWWTRuE05UbhFe/+tVlNssXv/jFDS4RwHZuFKpl6qWXXlrKYTUwcjQvQ/oeEN5Nabk3vVdrHeDTVGdgXOfdYIy6wDuXe4/qUmklMD4PINwMNANZNnUaCG3g0IyaduB2zXNuUOuhhx4qxxrIAsENjnNzou40k83Awn333VfaIHW2mXaJ+hUwB7fNblM3APAsyrV99thjj2bnnXcufj3bbY76//XXX18s+dv56vv/AeF9L6F+5y8gvN/lk9z9rwIB4bkT+qRAQHifSqM/eQkI709ZJCdTVKANp4YIwnUUwWgQiSsTHcUXvehFBU6PTgsGiABoHVJTvE311onn9oTrAZ1NQScUXDK9mAUsQC44X4eW728dXtZV3LDwIW5KMshlWjKXBa973etKvDqvNvH7ZB02NKvNgPBS/AvzZxwI58cQBHvBC17QmPL48pe/vEBe7lNM7xx95tqiteuaRQLhIDa4fdpppy0JonTWuWoCrICsNghXv6hrDLSx0ld/1XpKfaT+UyepywzomcFS97e1n8f/A8K7KdWlQDgY3q4LDPa4d1mLe7eqC7wPx73r5gWEqy89cwYBuEKzWJ02RHtAyv8G1A0WsAbnJoWltnaDNoHzQXAW9mbfqA+4pDEoLzhGO0Td4DxtGH4xtV08/9ynmIVmVpx6prY3tDmUg3jadUc3d87aUwkIX7uGixxDQPgil/5wrj0gfDhltQg5DQhfhFJe/TUGhK9es5wxAAXacGqIIJxvXBaTBx54YPHlzbpqv/32a84999xn+fVWFDqSfHXy0QkssdLksoBlFncpzgHT+eg0/ZgeP/jBDzZ0RkEnU5ZZdXOhouPLh7gOqQ4nay+dUB1ZVuJ1gTFxSMPnECFVQPgAHuQpZnEcCG9bhfrfwiqm93NJZAbEMcccU54J1ocgDTBegVC7rlkkEA5kG3DjRoF7gvZsEPWGqYd77713qVfUYxWEO86MFS4U1FtPPPHEkqUMktlfB/bGWeUvGcFAfwwI76bglgPh7bqgQnGzSNQFZo2Aud573s9cKQHBbTA+byDcgPxFF11U3CG11xRRSmaXaVO4Ztbb2iDcHAHn2hNnnXVWmWVW3RyZrQaS12fZrBuW4Ab6uaayiKZ2hnUI1LHirzN1/K+doR63toP6RV1S6+Fu7prppBIQPh0dFzWWgPBFLflhXXdA+LDKa95zGxA+7yW8cdcXEL5xuuWsnivQhlNDBOEsrHQoQSCuBx599NHSoTTl2PW0O3/2sVwFmioA13FlScmXt44kv5qgFeCt81mnJitGHUuQHNiymISOLRcR0jFNGRy3iJXOranOzuVDWR7FD447bmihDcL5MfaSzDa/GgBfwIyZFW3YNcn/XHvssssu5X73rAC53HkANgaJahyLBMLVEzTdddddS70CcNXABzBYCHarR1iFq5/UGyxElYPFk4BE0HypoBOl7lOPscht11lLHT8vv7VBONcdqZNmUyd5t5r5UZ/dST4rGN9tt90K+OWzVl3ArZhFswwau+fFZYBo3EySvt2v2gHVR3h1jWIwir9ubQfPoEHvdrDAKItts8W0GQy8a0P4TgfPvTYJVyeOHW0nqD+1T97//veXYxzHPZt6weCaOqRakRtw0O7hruVTn/pUWUCcu5Xl6o92Pvv2fxuE0yfP+Gye8Y3R1TvcLKXVrBPS9f0VEN614klvYxQICN8Y1XLOrBTwPqjtvPgIn5XKw4s3IHx4ZZYcT6DAkEE46zLTh0EQnWydTwAaeANsAWmd1grDuTLRcQSNWFSxumJdxQ0KCy3WWH43rVkDmh9OVt0aKbVjqSN64IEHFlcsfKQCXAA7KyzuUHRydWRZqttMYZaORTlZm7PQGppVeBuE15djPjfZ0FCIFstrAYy/4hWvKDCmLgZEr0UC4ay11TncFqgD1BXqE5tGpjoF8ObvG0QDwoG1xx9/vAy8qVeAseUAt3qQT2LrJNAYmKh13gSvgMEe0gbheQaXfwb7pA1rcYPFrMT32muvwYNw7QaW4J4/s8N8t3C3dkg7aAdoV2hTqAuqpbZnFgw3IM+dDKit/QBc17aLZxlwVA9w12ZwATw3wK7NAxYbLOMyxW/aHWaPGGzwW7XMN4NtaPVCG4T36T5OXjYpi2kzCunzIFZAeLsWyv99VSAgvK8ls5j5CghfzHJf6aoDwldSKPsHqcCQQTjfmPyRAm0gEl+YpgDrCAJCOtwWpqrTsX2ykrKf9SUoxT3KxRdfXM63yJf91f/mW97yluLz23cBwNbB5RPcFGUAS/w6qSzeKiDXwefqgIsWvst33333soCWxaxYh7LMGhIMDwgfBmTqY+e8gnDWfEBwzeOigXCwzGCdmSGsNHV8wG66gGEG4ECsNgjnykkdA4CpmyYB4TRuu14Z5EtpwkwHhA+vXgLCDTjzZT8PINysGdby4PQrX/nKArW1LdouodzOnl0zPLxL1QOeec/+tddeWxbuNuDOktugenXPBohrjwiguIExa5AYNNNm0Y4wc407Klb12ho+Ldap7aHdYX0Cv2kjsVhX5wwpBIT39xl//vOfX9q5o7MX+nR/BYT3qTSSl+UUCAhfTpn8vh4KBISvh+r9TzMgvP9llBxuhAJDBuEsK3UoLdTFpQlrbNOPuUrhnsFU4uofkzTAEghlSjFfnQATcGThKv7BdS5ZkbMQN1WZKwNAnTsVFlrg9c9+9rNiBa4zrxMLwJu2rNNqoStgvU7T10ll7aUzqnNMaxB9aBabbRAO9tM02/xqwMWPZ2AtrlE8VyCugSrQm7UjwLOoIBzoMmgGhHOJoD6hCWtNbg7ABO4WKghXR4BpyoG1p3114bzRal4nSodfXcgl1HLAfPS8oX9vg3B1eeqk2dRJQCvQW5/dST5HXaNwk6Qu8B40cOxdPA+uUcw8U19qV5gdBnKzDPeb570GbRXtCO6LrKXg2s0S0xbh+9s+g+u+1wF01uUGDLQ5PPuPPPJIqQ+4QTHrzcCZ9gfAXV0vcdWiXSI/AD2LXes1cMUCsg+tbmiDcO20POOzecZXq2sdxGLc0Xb1Ve/3vnwGhPelJJKPcQoEhI9TJ/u6ViAgvGvFh5FeQPgwyim5XKUCQwXhpvjqJB122GGl46hTyaWADUzS0QRtWYWzFAexLWAFxoHbNh1N4BxsYv2tAwregdystd7znveU+HRedTRZZ+l06tRLTwcT7AbCWVrZdGSdV6cgWwhLWqw0WXUCYnXfKotq3Q5vg3CwLWG+FWB9CFZZ+G4l6FUXy9QhNgDkmQJ6r7vuuvK8te/3dl2zaBbh6gYWnOojdYtBN8DM/+oR4BvoqiBcfeE38JCu3C2YybJUELcFez2btK8zYJY6dp5+a4NwOibMRgHvPvfguLoA+GYhWhfL9P41KGOQx/29CItlgtXaGJ5B7RLW2zUA2toRBmwslgnqantYN4G7E8drV6gfwGx+2ennf7C7WoNrpxjoFx/gzf2J55+LFAPu6l3tC3mRFsCuHnG+9svQ2h5tEG6NlYR+KMDAQ30QEN6P8pALdc9WW21VysUM1YThKBAQPpyyWoScBoQvQimv/hoDwlevWc4YgAJtOMVaawhBZ45lE/ihY6ijzf8lUGRjQcUXp84kiy2uTXQGWa5Uy22W2ay0wBTWaRa50tkH7oBAx+tg+q4zyQoLyKZX7agC6PbpqDpW/EB4uxHaBuFgPEg1NFAVED6Ep2J6eRwHwivw2nzzzZsXvOAFZdaEZ/DjH/94sXAe5y+0XdcsGghXn6izgCqwy2wVLgvMQOFf2P5REK6es4YBq3EDb/wH6zBVmOXTd5qr64BwixEOye3SWu7agPC1qDf5ucuB8HZdAMDssMMOZQaUQR6zHQxAj3vXmZUFpnkOxtUbk+e0myPVj+3FMn33zHketResCcI1Givs+iy6Vw2ie575B+cvnIU2l0lmfHCZJh7tCINgBs28dz3X6krHm/HGwlu7xwy2yy+/vLRdnnnmmbIfUK/1ahuEy1dtd9T8dKPU2lMJCF+7hrOIISB8FqquLc6A8LXpt55nB4Svp/pJe1SBgPBRRfKdAgHhuQ/mUoE2nBoKCGfZxMJMR5r1NfCtE6kDWTf+OE053nfffQt8Aqnt4+PbYlU6nqwtdRh1PgFrVmy+229qMwDgeHDd4lNAFhgOumt06tCyCAfdwXbTlYFwcLyGNgh3HkBw7733FvBVj+n7Z0B430touvnzLC1nEQ52gbgsGVkkGkxijej5Am806JcL7bqmApvljh3674DYLbfc0uy0006NxTKBbhCKBSdLUDq+9KUvLXUG3ZYD4eoedQxrT3XLV7/61QLb1EXgoboKIFMm3DKonyooH7qGK+U/IHwlhaazfykQvtlmmzUWizbbySCyugCsVRdw81Mh+Lh7cd5AuOdYvWlWmbYE9yQ1qFO9/7WxDISB4tox/IIbgNdWseaJgTL1pP00NEhvkW9x//SnPy1wXBqAuvgNonGzZEYIC3IQXmiDcP9rrxiwl4chhYDwfpZWQHj/yiUgvH9lMmmOAsInVSrHdaFAQHgXKg8vjYDw4ZVZcjyBAm04NRQQDk7Lt+nEgDbAPdrh9v2GG24osJylJAsuHUudxuoOBYyr57HM5LtTh1XnkrUVv+OAOBAsDfAJiOJPUSeUuwIvDL7BdVxNfTYtunZGyc8qDCwAunREQa2bb755wyJYExTRuh8SEL7uRdBpBioIB2u33377Yt2o48utENjq/tXpAl3d15OGdl2ziCBcXWPQDbQyU8V6Avz8+n05EK7eAa8uuuiiAsKVgTrPAJu6hpsErpwM6hkcHGeBO2k5DeW4gPBuSgoI9w7bZpttykKMRx55ZBkI8zyrC9x34Ld7r75PJ8nZPIBwlt+eR+95Pr4NEPKpbjCcLjVos4DXIDl3MfbV+kC7Q/tD+8TAlplmBrfM7jCgBpIY7Nfe0O7Q/uB2RdvDILz6RJrqABbmAvgNsJupA7BzK2KwwqySIYWA8H6WVkB4/8olILx/ZTJpjgLCJ1Uqx3WhQEB4FyoPL42A8OGVWXI8gQJtODUUEK7TrYOnQwlCLxd0Nh1nKjHLVZ1A3wF0gJvfTFaaGiEsslhVgoAVWvPZqbMOioPBOqqOE58OL+3EYz/XKWCBzipAWIPOqd9ZgTteBxlMl85QQkD4UEpqOvl0/xsM4vLE1HzPjIEesyKA3I0N7bpm3kE4dwXWDuDzGwAziFaD3y+99NJi/cniW7BffcTlgbpEnVShov9ZhaqfgXD11z777FOszX0CcCxxlZtz6nk1vXn9DAjvpmTNdHLfVcDLvRjr5LW62RgqCPectd2pAc42C+EaPPeOr89jfXbNDtFmABANlJvNYeCApXcF4fRkJa4NYVCdhfdXvvKVUu+CXPyKsyZXRwDEZpoYmDQQJl5tDG0UQTwW/AbVzVw766yzyvFtON/N3bO2VALC16bfrM4OCJ+Vshsfb0D4xmu33md6T+gnchXGVZb249CD/rPr2XrrrYsB2tCvZ5HyHxC+SKU9+bUGhE+uVY4ckAJtODUUEA70sJS0aUAsF3Q0HaPjCoSzngSOWFrpyIPROowgk87lIYccsgFQA1OO0XkFyLklALg1UCosd4zOqA79gQceWBawArbaIMqiVs7fddddiysE8XCPMC7fy13Pev0eEL5eyq9Pup4bz4V72f1en7P2fb0xOWvXNfMOwmlFRwMHo8+639Udfm9rCoTVem1UX8c5Xl3GnQI3FMCk+gzsAriUlWPE3Y53NK55+R4Q3k1Jgrasir333J/u37VCcDkfKgiXd9fvWaRJ3TzrfqNR1YeLNu0N18qNm8F4vzkHtDa4yI2KwUbBcysOgw0W/raAN+tvZcDKWxri/9GPflTWIuEX3Iw37lLEWZ97x5n55vxddtml2XnnnYtFOMv0IYWA8H6WVkB4/8olILx/ZTJpjrTbAsInVSvHzVqBgPBZKzzM+APCh1luyfUKCrTh1FBA+AqXtORuFlk6VQAcf8YgH8tsC9HZjj766GJZqZMp1A4pCGzqsenIFTTVzqbjWM6y8OL2hKW6Tmw7+E3n9/bbby/TmMXX7rC2j+3r/wHhfS2Z2eTL/Q12tYHONFJq1zXzDsKnoddycYBsIBrLcnWaxXtBcRak4JdFN0GzeQ8B4d2U8FKDNtNIecggfNLrB57NGNOG0EYw6G49Eb/Vdoe2BxczNah/uUQxeG92CHcpBibb7Q5tEb8D5g899FAZHKvwXTz+Z5UOkHOfov2hzVPbNzWtvn8GhPezhALC+1cuAeH9K5NJcxQQPqlSOa4LBQLCu1B5eGkEhA+vzJLjCRRow6l5BuF8hLOa1BEF+VhVWrgSOOJrV0fV1GL72kHnk/UVuKQT2e6MOg5wso2e145j6P8HhA+9BPuR/3ZdExC+9jJh9cl/+PXXX198FLMM53KF2waDbfMeAsKHXcKLAMINWAHRnlNuULQTzCyzfom2B/duZo1pY4wGz7c1BFiNAyXt4DvLcse0AXj7mHn4PyC8n6UYEN6/cgkI71+ZTJqjgPBJlcpxXSgQEN6FysNLIyB8eGWWHE+gQBtOzTMIn0CKHLKMAgHhywiTn1elQLuuCQhflXQ5eAkFAsKXEGVAPy0CCB9QcfQyqwHhvSyW4pOe/9899tijzLDsZy6b5lvf+lbxUyyv55xzTl+zOZV8BYRPRcZ1iSQgfF1kT6LLKBAQvowwC/5zQPiC3wDzevltOBUQPq+lvLbrCghfm345+38VaNc1AeG5K9aqQED4WhVc3/MDwtdX/yGkHhDez1KKRXj/yiUgvH9lMmmOAsInVSrHdaFAQHgXKg8vjYDw4ZVZcjyBAm04FRA+gWALeEhA+AIW+gwuuV3XBITPQOAFizIgfNgFHhA+7PLrIvcB4V2ovPo0AsJXr9mszwgIn7XCs4s/IHx22ibm1SsQEL56zRbhjIDwRSjlBbzGNpwKCF/AG2CCSw4In0CkHLKiAu26JiB8RblywAoKBISvIFDPdweE97yAepC9gPAeFMISWQgIX0KUdf4pIHydC2ANyQeEr0G8nDp1BQLCpy7pXEQYED4XxZiLGFWgDacCwkfVyXcKBITnPpiGAu26JiB8GooudhwB4cMu/4DwYZdfF7kPCO9C5dWnERC+es1mfUZA+KwVnl38AeGz0zYxr16BgPDVa7YIZwSEL0IpL+A1tuFUQPgC3gATXHJA+AQi5ZAVFWjXNQHhK8qVA1ZQICB8BYF6vjsgvOcF1IPsBYT3oBCWyEJA+BKirPNPAeHrXABrSD4gfA3i5dSpKxAQPnVJ5yLCgPC5KMZcxKgCbTgVED6qTr5TICA898E0FGjXNQHh01B0seMICB92+QeED7v8ush9QHgXKq8+jYDw1Ws26zPmEYT/61//amz//ve/pybfP//5z+ZnP/tZ8/TTT08tzrVGFBC+VgW7PV952aYRfve735X70X3elxAQ3peS6Fc+AsL7VR7JzZQUaMOpgPApiTpn0QSEz1mBrtPltOuagPB1KoQ5SjYgfNiFGRA+7PLrIvcB4V2ovPo0AsJXr1k9A9T9+9//XgBv/W0an30D4fU6n3rqqeZPf/pTgdkg9K9+9avmD3/4w4qXDAz+/Oc/bx577LFGHNMI8iQv1157bfPggw9OI8qpxBEQPhUZN0Ti3vnrX//auN9qGB1QcS8888wzzZNPPvms4xw/emyNw6fzfvCDHzSPPvpoeY5939jg3AceeKC57rrrSn43Np5pnxcQPm1F5yO+gPD5KMdcxYgCbTgVED4iTr4WBQLCcyNMQ4F2XRMQPg1FFzuOgPBhl39A+LDLr4vcB4R3ofLq0wgIX71m9QwQ/Je//GXz5z//eS+nSHEAACAASURBVKqWzn0D4SCk67zqqqvKrFJwEQC//vrrG3ldKfzlL39p/uu//qs555xzmmuuuWYqAwfAIxC/7777NuqWvoSA8OmVhDIGwVn9//GPfywR+83z5tmrwf/f/va3m8suu2zDcfY51r23lMW3fe7r008/vXn/+99f7u+ljqtprPTpmbj00kubAw44oFczFALCVyq5xdwfEL6Y5T73V92GUwHhc1/cG3WBAeEbJVtOGlGgXdfss88+zRFHHJEtGmz0PXDQQQc1m2++ebPJJps0J5100sjdlq99VyAgvO8ltP75Cwhf/zJYKgcB4UupMtlvv/71r5tPfepTzQc/+MHmzDPPbD772c8WMPyb3/xmTWC8byD8b3/7WwHgBx98cPPlL3+5gEWW3UcddVQB2+PUYql7zz33NIcddljzmte8pnnzm9/cfOADH1h2+/CHP9w8/vjjJQ3w/YYbbijannDCCc3odswxxzTbbLNNs99++z1nXz12ElA/Lv+r3RcQvlrFlj/eYIvyU5aA7o9//OPm97//fXPhhRc2V155ZfPd7363nAx2ew61Qzx7gs/bb7+9OeOMM5pbb711Azi/4oorCvh+3/ve15x44onNq171qmaPPfZo3vOe9zTvfe97yz5gvG633HLLhgzee++9zSWXXLLsvWZQZtttt22OPfbYJY/55Cc/uSGurv4JCO9K6WGlExA+rPJKbidUoA2nAsInFG3BDgsIX7ACn9HlfvrTn25e8pKXNM973vMKvAQws0WDtd4DOrWAQsKwFAgIH1Z5rUduA8LXQ/WV0wwIX1mj5Y7g7sP7as8992xe9rKXNYccckgDsH3iE59obrzxxubOO+9sfvSjHxULURajk4a+gXBWufK08847F9gP9j7xxBPFGvviiy9e9rJAy7vuuqtY3YLVtqOPPrroAyjaaHXeeec1b33rW5vXvva1DbjNXYU0fvvb3xaIefnllzcf+9jHnrWdf/75RXvtUHB9dH/9rs/TZQgIn57aXN888sgjpZxPPfXUAsN/8YtfFMtv35Xx97///caAlPtor732KrMEfP/qV79ankWGFd/4xjc2WIW/613vKsD8oosuai644IIyS8Hgi++jm/vVbzU8/PDDxfVJvbfan+7HQw89tNlxxx2bs88+e8n7cT24TEB4Lb18thUICG+rkf/nRoGA8LkpypldSED4zKRdqIi/+c1vlg6NhieLimzRYBr3gJkFrOoShqVAQPiwyms9chsQvh6qr5xmQPjKGi13RAXhL3/5y59lCPCCF7yg8RvoC/ZqLwHirKhZSAPLXDMsF9YbhHNDASYCkdxHTArCWfCC3yx0ua/gM5n17utf//pifXvaaac1oPZPf/rTooPjgc3777+/wENWuSx2pb1SoB/XKKzM9X37EgLCp1sSZiOwBD/rrLPKPeKZc/+A2EceeWTDNaMZBG0QzlIcpDaw8qUvfam4Pam5MuByyimnFHcrXK4st0njjW98Y/ORj3yknjr200CXQSFW4X1avDUgfGyxLezOgPCFLfr5vvCA8Pku32lcXUD4NFRMHDo6ph7q2GWLBtO6B2rnO0/YsBQICB9Wea1HbgPC10P1ldMMCF9Zo+WOWA6Eb7rpps1mm23WvPCFLyyuO1760pcW38EAnMX0tMMBvuVg+HqDcK4kPvrRjxaL9t/97ncTg3BuJIBJ+b/vvvsKcOTWgv9mFuQ333xzcTnx9re/vVjMg5TSAco/9KEPlQEDcLy9MOJy2geEL6fM9H8/+eSTy0DP1ltv3XznO9+ZfgLLxKiMAWaDC9zk2NwbvhtY4qrEfWXmQBuEey4NrnCNYl/7ftJWMXvjTW9609iNdTc3J6zFJwkB4ZOotPIx1hKoM0vVlQmzUSAgfDa6JtZ1ViAgfJ0LYADJB4QPoJCSxSgQBaLAgBQICB9QYa1TVgPC10n4FZINCF9BoDG7lwPhFeTUTy7kQPFdd921WKkCwfxk8xnMbQOox+q6uk9ZbxB+2223FTANTnNTspJFOGBpwULHc3PCXQWL2q9//esFboPpLMTBcfutK+OdATYeeOCBxdc4AGbRbPGMDhCYJWahzfbG/QQNt99++2K5297nf5bowLxB+i5DLMKnp7b7SNlzM/TDH/6wDB6ZpaBsjzvuuIabE36+uT953ete1+ywww4bfHNzsfPOd76z+Ajno76Gt7zlLc073vGO4jqF+5Tltq985SvFunvUIpx7lNF7zXf3o7VuuOox82H0GO4kuxxEqNcbi/CqRD7bCgSEt9XI/3OjQED43BTlzC4kIHxm0ibiKBAFosBCKhAQvpDFvqqLDghflVydHVxB+E477dRcddVVzRe/+MVeboBUBctcaPUhn+AtsAZ+1bxN8gmMb7XVVs3ee+9dfGKzirYo5B133FF8IoNwwLm4WJF3HR599NHih5mPZFCcOxdwfjkf4WYIck8BPrKgZbkLhD/44IPFGtx1WWQT1Ky+lEFMx1twk591biWuvvrqAj1dP3gpTgFEPP3005+1gY0WN9xuu+2aN7zhDc/a51j3i3vkySef7FS+gPDpya2/6r3h/gDDuUgxqGIgxb1ptgEQvtTGzY4BJy77wOAaPK8Auft63Mad0f777/8c1yhg9ui96Lv7EYw3MGOhzdFj1BVcBXUdAsK7VnwY6QWED6OckstVKhAQvkrBFvDwgPAFLPRcchSIAlFghgoEhM9Q3DmJOiC8nwUJFmXR6/Vf6FoZcBHCkhQs5md8vUA4620gEGQ2OPLYY4+NBeF8dXNjAEwDb3yMs3S/9NJLy28sv0F/AxgWObRZBJErNHCQH3Vwkr9vIJF/dVa7ADgIz+94e/MbP8yshF/96leXBQ3b+9v/g/Rt1xizfgoDwqensBkSLPq9OzwXYHgF4XyA+9+9sNTG9zzXKRawbYNwbRUDOgZPxm2eRYu3t12jeC7a91b9X/pcsBjQcg8bBKr72p+ei6VmPExPsefGFBD+XE3yS9MEhOcumEsFAsLnslinelEB4VOVM5FFgSgQBRZegYDwhb8FVhQgIHxFidblAO4s+LCexJI5x8wOmFcQDrytNwgHIIFqCwuybGWhPc4inAsLlt0f//jHC9gG/FjbguPXX3998dXMpQQ3K6y0+Wi+6667iq9nri6A9J/85CclTb87hhU5H+LguXy0N1a9FjK0WLsBA1a/7f3t/4F86XYVAsKnp3R1uWPABNgGvisIN1gCci+3HXzwwcXtzite8YpngXD3Bott7ojGbQZZuDppu0ax0Gv73vK/e/Hwww8vaZlVw4/6YYcd9pzjHMtq/M477yzgfnoqjY8pIHy8Pou6NyB8UUt+zq87IHzOC3gKlxcQPgURE0UUiAJRIApsUCAgfIMU+WcZBQLClxFmnX9mNQmWsN7t88bauIJ4kKsPeQWtWZVaVK/mbZJP0HvLLbdsdt999+IrG5gDkVm83n333WXByfV0jeKWBB6BP4D7oosuKta1S7lGOffccwv0ZvFtoUyLqLN6/dnPflZcnYB/BlsuuOCC4tuZO4vNN9+8uLVwzRY5rJt0WIeD8CxsuUZhFV43rlNs3F7su+++xec60MnFCtcqjvvUpz5VLHNpKr5vfetbBbR39ZgFhE9XaYvKgtIGW1iHVxBugOSKK65orrzyyiU3PMTzyY1K2yIctAbP7V9p22OPPRr3dw0gdr0XfboXWYGrAzzLu+22WwHizuH/336f3BvxIW5gyOwKsxS6CgHhXSk9rHQCwodVXsnthAoEhE8o1AIfFhC+wIWfS48CUSAKzECBgPAZiDpnUQaEz1mBdnw5gGaFzNwk9CFMuljmpptu2myxxRbFlzhg9trXvrY58sgji7UpeAz89mmxTNqy6uYP2aKEwN63v/3thsUrP99g7xNPPFFgtAUrb7755mIFyyd4e6FLFt3coBx99NFlAyD33HPPZpdddmne/OY3b/jdfsCdBa79S1lwi5drCkBUXxdcZK3+wQ9+sMBJabMcpiVNQVL//+EPf+j0VgkIn67cXOAAyDZudCoIN2BSF5ddKkX3ivJ/05veVEA4oM53/cknn1yeP4Np7373u8uMA/97JrnnMchSN+5RDNYYlBlNi7sdg0Vf+9rXmve9733lPjToYzFYsyEAbwM5Zji4X2+99dZy/FJ5neVvAeGzVHe4cQeED7fskvMxCgSEjxEnu4oCAeG5EaJAFIgCUWCaCgSET1PN+YwrIHw+y7WrqxoyCGcBDf6yXGbBCjADdWAawNuGx/TkhsRimsD/eiyWKQ/yBOredNNNxVUJ/ZcC4fJX3ZkAje0gDgCxbuLgagK8BrTr7z5ZybKIf+UrX9lYrHM0sDIHyI8//vjmjDPOKO5anAM4fv7zny8zBLhUsfjrAQccUCCn9EDMLkNA+HTVBpsNtrDu/vrXv77RIJw1+bXXXlsWYTVQ4n1kkMSirJdddlmx2DaLQfnV+7LOzgCxgfQa3Ndc+rD4dj+a0cC1Dxc/4gPPr7nmmjKAxGc40G52BVcsXYeA8K4VH0Z6AeHDKKfkcpUKBISvUrAFPDwgfAELPZccBaJAFJihAgHhMxR3TqIOCJ+TglynyxgSCGf9zQ82NwxcIrCi5lZB+5sVOQAHti0X+gDC5Q3wA/fk+b777iuLDI5ahPNnzmrXcW1Y2L421/rkk08WVyUGA1iXO6cdLDjInziXJ1xhtAMADmKy4OV+AoDkgqUCdBa4Z511VvHXDGpaqJPWrIcB9C5DQPh01bbwpPbFhRde2PAzXy3CAeZ3vetdzbHHHrvkZpYB/93cm/ATf//99xcXJnzPG4wyI0Nc7rvbb7+9DK4YUAG0WXKbBcHa2/0EdgPc7ln3nbrIfi5RzGSQR4My7jX/YzHOAfBBd8+OGRQGv7oOAeFdKz6M9ALCh1FOyeUqFQgIX6VgC3j4/8feebhJUbRv939CFCQoSXKUJCAICKIICogIIrxkEUEBCZJUkpJFMipJEVFABBEx/IgiyRfFhPqq9V3n8auld9hdNtTMdPfcfV3tzM70VFedatzd08/eJRFegJOuIYuACIhAFglIhGcRbkqalghPyUTmaRhxFuEs1njPPfe4bt26mWBDgJFhTjTI559/bvKM6u/ybnER4b6/xLaUtVimPy7zEZGOaDx27JhVxBKTQlY4VdrRKBg+R7Usecp8L6HK20t4YleQkXPnzrXFBhs2bGhV6ryPeEdcIhqR49x44Lj333/fYjCQ0rneJMLDEYcl8SbE5XBt8BcHXoT369fPFpVlvkva+csD/loBYY605iYLUScIcaqz+asBqs25mcKNHhaEpQKc6wlZ3qFDB4szeffdd+1m1htvvOE2btxold7c/EHMU+k9ZMgQGzD/vpHkX3zxhUWjENtDZAoimr9+4OYX12yuN4nwXBNPxvkkwpMxT+plBQlIhFcQWAEeLhFegJOuIYuACIhAFglIhGcRbkqalghPyUTmaRhxFOHELbBII9WnVCsj2IgJoTq6rIrvWyHMlwj34prqVaqy/Y7cI3akcePGFvvA7xFUdSMop02bVnScP56KWsQfgpF5Y9HK/v37m7hEbHIe2CG/qfbmc0hG4i8QiFSPcwznoeKXBTYRmVTltm7d2hbERFgSMUOlOHKTdvh/DBnQSFAEOv32i3feinmo9yXCQ5F0dg1x/fBXAMw/FddehGdmhHO98G8OIc3jTz/95MiNJyN8zJgxlhmPMOe64Zrp27evCW9ieLgOuQZ5JIcc6c4irNxg4frhNf5tI9bJzGfxV65NrtXHHnvMhDqymwgV4n3Iqt+5c6ddh//5z3+sIp2/CKFaPPMGUDhaJbckEV4yl0J/VSK80K+AlI5fIjylExtwWBLhAWGqKREQAREQAaviI8+W6it+CdQmApkEJMIziejrihCIowhHaiF9EbcIOhaYpEq5KhIcJvkS4fQdkUd8CVndfkcKtmzZ0t19992uWbNm9jpCun79+pYb7o/zj1TKEitBBXjPnj0tPgIx7TOYGSOykape2qMtquqRhkht8pfZ4ElFPdKc50RjEDmDVB86dKhV7SIiaRvxzjHciKACmMUP6Q+xGMxPrjaJ8HCkkdarV6+2a4jrCdldmgiHO9Ej/AUC1wHX2jvvvONYoJWbVYhu/tKAY7hGkOP8vELlNzd02Dt16mTXIdcln+GGEP+WEfC0yedPnTpl56AdbgLxb4O/AOF6IyqF1/z1yrEIfGJYOBf/rhDmuYxIkQgPdz2mqSWJ8DTNpsZSREAivAiFnpRCQCK8FDB6WQREQAREoFIEVBFeKWwF9SGJ8IKa7uCDjaMIR5KRDVyR2JPygMmXCGc8iH2qvakAr+yOtEQaEiuxfv16E4/IwWiGOJW4LH6IeCebmRgZJDgi0/PkEQHJI6KTzyDZqRAnLmXDhg2W74z09J9BlFIJTtQFEhyR7sV6edhX9RiJ8KoSvPF5qvyJJEFaHzp0yN4oTYRTuc11y0KsHE/lNvndxJOQGc81wL9VrnGOpVqc65PrLnMncx6JnSmsufHFjpDnkUUykeZUmq9cudLa468U/Hl4RKbTL65VxDw541wjudokwnNFOlnnkQhP1nypt+UkIBFeTlAFfFhUhHP3mh9AC3nnB31+cOEHdH640SYCIiACIlAxAhLhFeNViEdLhBfirIcbcxxFeLjRFW8pXyK8eC8q/xU/S1NFi3BEXJa2cRw7cvJWP38jupHpLHTIz+1ErCAq+WxJG8dz7qh8L+m40K9JhIcjSiU/ed3+rwloGaE9e/Zsu4kSvWaYa6JzqMgmHoed50huZHTIjfNyfbPIJgIc0c21yWulbfSbuJZcbxLhuSaejPNJhCdjntTLChKQCK8gsAI8PCrC+VP2Qt9r1arlxo8fbz/E+IqSArwsNGQREAERqDQBifBKoyuYD0qEF8xUZ2WgEuFZwapGAxOQCA8MVM1ViYBEeJXwpfbDEuGpndrCHphEeGHPf3lGLxFeXP5Xr17dVpqn6iDzz+DKw1PHiIAIiEChE5AIL/Qr4Nbjlwi/NSMdUToBifDS2eid+BCQCI/PXKgnzkmE6yooiYBEeElU9FriCUiEJ34Ksz6AqAjv1q2brYTNatiFtk+fPt0WR6lTp44t9CYRnvVLTycQARFIKQGJ8JRObMBhSYQHhFmATUmEF+CkJ3DIEuEJnLQUd1kiPMWTW4WhSYRXAZ4+Gl8CEuHxnZu49CwqwkeNGhWXbuW8H6wgzkrejRo1cqw6z0IsLGyiTQREQAREoGIEJMIrxqsQj5YIL8RZDzdmifBwLNVS9ghIhGePrVquOAGJ8IozK4RPSIQXwiwX4Bglwgtw0is4ZInwf4FJhFfwwtHhIiACIlAKAYnwUsDo5SICEuFFKPSkEgQkwisBTR/JOQGJ8Jwj1wnLICARXgacAn5LIryAJz/NQ5cIT/PshhmbRPi/HCXCw1xPakUEREAEJMJ1DdyKgET4rQjp/bIISISXRUfvxYWARHhcZkL9gIBEuK6DkghIhJdERa8lnoBEeOKnMOsDkAj/F7FEeNYvNZ1ABESgQAhIhBfIRFdhmBLhVYCnjzqJcF0ESSAgEZ6EWSqcPkqEF85cV2SkEuEVoaVjE0NAIjwxU5W3jkqE/4teIjxvl6BOLAIikDICEuEpm9AsDEciPAtQC6hJifACmuwED1UiPMGTl8KuS4SncFIDDEkiPABENRE/AhLh8ZuTuPVIIvzfGZEIj9uVqf6IgAgklYBEeFJnLnf9lgjPHes0nkkiPI2zmr4xSYSnb06TPCKJ8CTPXvb6LhGePbZqOY8EJMLzCD8hp5YI/3eiJMITcsGqmyIgArEnIBEe+ynKewclwvM+BYnugER4oqevYDovEV4wU52IgUqEJ2Kact5JifCcI9cJc0EgKsInTJjg3nrrLe1iUOwamD9/vqtbt66rVq2aGzVqVC4uy1ieQyI8ltOiTomACCSQgBfhzZo1c8uXLy/2PUc/h+jnMK6B4cOH288d/OyxadOmBF7l6nI+CUiE55O+zl1eAhLh5SWl43JBQCI8F5STdw6J8OTNmXpcDgLLli1zd9xxR9EvG/zCoV0MSroGbr/9djdmzJhyXFXpPEQiPJ3zqlGJgAjknsDjjz/u+J5S0vcavaafQfw1cNttt9nPqJs3b879RaozJpqARHiip69gOi8RXjBTnYiBSoQnYppy3kmJ8Jwj1wlzQYBfLjp27CgZrhsAtxQSVO7NmjUrF5dlLM8hER7LaVGnREAEEkhgypQpju8pXnjqUfK7pGugZs2arn379m7Pnj0JvMrV5XwSkAjPJ32du7wEJMLLS0rH5YKARHguKCfvHBLhyZsz9bgcBE6fPu22bdvm3njjDfvzZP5EuTL7xIkTXbdu3RzVO927d3fPPvtspdqpzLnT+JkOHTqYILjnnnvcvHnzYsGSP1U+evRoOa6qdB4iEZ7OedWoREAEck/gk08+cRs2bIjF97aq/Awxd+5c16hRI/t+TVFBVdrSZ2/++XPlypVuy5Yt7vz587m/SHXGRBOQCE/09BVM5yXCC2aqEzFQifBETFPOOykRnnPkOmGSCHzwwQdu5MiRrnr16m706NHuo48+SlL3Y9fXxx57zH6xRohfunQpdv0rxA5JhBfirGvMIiACIlA6ge+++861a9fOvl8PGjSo9AP1jgiIQE4JSITnFLdOVkkCEuGVBKePZYWARHhWsCa+UYnwxE+hBpBNAhLhYelKhIflGaI1ifAQFNWGCIiACKSHgER4euZSI0kXAYnwdM1nWkcjEZ7WmU3muCTCkzlv2e61RHi2Cav9RBOQCA87fRLhYXmGaE0iPARFtSECIiAC6SEgEZ6eudRI0kVAIjxd85nW0UiEp3VmkzkuifBkzlu2ey0Rnm3Caj/RBCTCw06fRHhYniFakwgPQVFtiIAIiEB6CEiEp2cuNZJ0EZAIT9d8pnU0EuFpndlkjksiPJnzlu1eS4Rnm7DaTzQBifCw0ycRHpZniNYkwkNQVBsiIAIikB4CEuHpmUuNJF0EJMLTNZ9pHY1EeFpnNpnjkghP5rxlu9cS4dkmrPYTTUAiPOz0SYSH5RmiNYnwEBTVhgiIgAikh4BEeHrmUiNJFwGJ8HTNZ1pHIxGe1plN5rgkwpM5b9nutUR4tgmr/UQTkAgPO30S4WF5hmhNIjwERbUhAiIgAukhIBGenrnUSNJFQCI8XfOZ1tFIhKd1ZpM5LonwZM5btnstEZ5twmo/0QQkwsNOn0R4WJ4hWpMID0FRbYiACIhAeghIhKdnLjWSdBGQCE/XfKZ1NBLhaZ3ZZI5LIjyZ85btXkuEZ5uw2k80AYnwsNMnER6WZ4jWJMJDUFQbIiACIpAeAhLh6ZlLjSRdBApVhI8cOdLx/yXtyWBw7tw598ADD7hq1aq5+++/3127di3x/xAnTJhg46lbt67btWuXrsUE/Xt85ZVXbO64HletWhX7a/GNN94o6u/69etj39+kdlAiPKkzp37nhIBEeFjMEuFheYZoTSI8BEW1IQIiIALpISARnp651EjSRaBQRfhdd93l2rZtqz1BDGrVqpVKEV69enXXvHlzXYsJuhYbNWpUJJYlwtP1PbEqo5EIrwo9fTb1BCTCw06xRHhYniFakwgPQVFtiIAIiEB6CEiEp2cuNZJ0ESgkEX7ixAnXpUsXV6dOnSKJRUWn9uQwqFevnhs6dKj7+eefE/8Pcc6cOa5x48a6/hL6b/COO+5wLVu2dFu2bIn9taiK8NxMkUR4bjjrLAklIBEeduIkwsPyDNGaRHgIimpDBERABNJDQCI8PXOpkaSLQCGJ8AsXLrj58+e7UaNGucGDB2tPIINx48a51atXu99//z3x/xCJQ3nuuedSex327NnTRP8jjzySyjEOGzbMTZ8+3X322WexvxYlwnMzRRLhueGssySUgER42ImTCA/LM0RrEuEhKKoNERABEUgPAYnw9MylRpIuAoUkwtM1cxqNCMSXwN9//+327t3rhgwZ4s6cOeP++eef+Ha2AHomEZ6bSZYIzw1nnSWhBCTCw06cRHhYniFakwgPQVFtiIAIiEB6CEiEp2cuNZJ0EZAIT9d8ajQiEAcCV65cccuWLXOtWrVy77//fioWN40D18r2QSK8suQq9jmJ8Irx0tEFRkAiPOyES4SH5RmiNYnwEBTVhgiIgAikh4BEeHrmUiNJFwGJ8HTNp0YjAnEgsG/fPjdy5EhXt25dN2PGDPfFF1/EoVsF2weJ8NxMvUR4bjjrLAklIBEeduIkwsPyDNGaRHgIimpDBERABNJDQCI8PXOpkaSLgER4uuZToxGBOBBYtGiRu/fee12NGjVct27d3Pbt2+PQrYLtg0R4bqZeIjw3nHWWhBKQCA87cRLhYXmGaE0iPARFtSECIiAC6SEgEZ6eudRI0kVAIjxd86nRiEC+CZAHPnr0aFe9enVXrVo1eyQmRTnh+ZsZifDcsJcIzw1nnSWhBCTCw06cRHhYniFakwgPQVFtiIAIiEB6CEiEp2cuNZJ0EZAIT9d8ajQikE8C//vf/9ylS5fc0KFDTYIjwtnnzJnjrl69ms+uFfS5JcJzM/0S4bnhrLMklIBEeNiJkwgPyzNEaxLhISiqDREQARFIDwGJ8PTMpUaSLgIS4emaT41GBPJJ4JdffnHkgz/00EPFRPjYsWPd0aNH89m1gj63RHhupl8iPDecdZaEEpAIDztxEuFheYZoTSI8BEW1IQIiIALpISARnp651EjSRUAiPF3zqdGIQD4JXLlyxc2fP9916NChmAhHjL/55pv57FpBn1siPDfTLxGeG846S0IJSISHnTiJ8LA8Q7QmER6CotoQAREQgfQQkAhPz1xqJOkiIBGervnUaEQgnwTOnj3rBg4c6Bo0aFBMhLdo0cJNnTo1n10r6HNLhOdm+iXCc8NZZ0koAYnwy3ujngAAIABJREFUsBMnER6WZ4jWJMJDUFQbIiACIpAeAhLh6ZlLjSRdBCTC0zWfGo0I5IvA9evX3aFDh1zbtm1djRo1ionwWrVqucGDB1tO+J9//pmvLhbseSXCczP1EuG54ayzJJSARHjYiZMID8szRGsS4SEoqg0REAERSA8BifD0zKVGki4CEuHpmk+NRgTyReDixYsWf1KvXr1iEtwvmNm9e3d38OBB99NPP+WriwV7Xonw3Ey9RHhuOOssCSUgER524iTCw/IM0ZpEeAiKakMEREAE0kNAIjw9c6mRpIuARHi65lOjEYF8EWAxzMmTJ7vatWuXKMLbtGnjFi5c6M6fP5+vLhbseSXCczP1EuG54ayzJJSARHjYiZMID8szRGsS4SEoqg0REAERSA8BifD0zKVGki4CEuHpmk+NRgTyReDdd991PXv2vCkWxVeEkxs+YMAAd+LEiXx1sWDPKxGem6mXCM8NZ50loQQkwsNOnER4WJ4hWpMID0FRbYiACIhAeghIhKdnLjWSdBGQCE/XfGo0IpAPAr/99ptbtmyZa9iwoatevXqJFeE1a9Z0TZs2dbiQ33//PR/dLNhzSoTnZuolwnPDWWdJKAGJ8LATJxEelmeI1iTCQ1BUGyIgAiKQHgIS4emZS40kXQQkwtM1nxqNCOSDwJkzZ9zUqVNLFOC+IpzH2267za1evdpdvnw5H90s2HNKhOdm6iXCc8NZZ0koAYnwsBMnER6WZ4jWJMJDUFQbIiACIpAeAhLh6ZlLjSRdBCTC0zWfGo0I5IPAzp073eDBg28pwpHh5Ih/+umn+ehmwZ5TIjw3Uy8RnhvOOktCCUiEh504ifCwPEO0JhEegqLaEAEREIH0EJAIT89caiTpIiARnq751GhEIB8EFixY4Dp37lwuEd6nTx+3efPmfHSzYM8pEZ6bqZcIzw1nnSWhBCTCw06cRHhYniFakwgPQVFtiIAIiEB6CEiEp2cuNZJ0EZAIT9d8ajQikEsCf//9tyMffOTIka5+/frlEuGNGzd2CxcutJzwf/75J5fdLdhzSYTnZuolwnPDWWdJKAGJ8LATJxEelmeI1iTCQ1BUGyIgAiKQHgIS4emZS40kXQQkwtM1nxqNCOSSwPXr1x354L179y6XBPd54ePHj3cXLlxwiHRt2ScgEZ59xpxBIjw3nHWWhBKQCA87cRLhYXmGaE0iPARFtSECIiAC6SEgEZ6eudRI0kVAIjxd86nRiEAuCbDo5YYNG1zHjh0rJMIHDhzodu/e7f74449cdrdgzyURnpuplwjPDWedJaEEJMLDTpxEeFieIVqTCA9BUW2IgAiIQHoISISnZy41knQRkAhP13xqNCKQSwIXL150q1evdsOHD3d9+/Yt2hHjDRo0cNWrV3dNmjRxXbp0KXqP4yZOnOjefvtti0fJZX8L9VwS4bmZeYnw3HDWWRJKQCI87MRJhIflGaI1ifAQFNWGCIiACKSHgER4euZSI0kXAYnwdM2nRiMCuSTw448/uv3799vil+vWrXN+f/bZZ01+16xZ0wT4zJkzi97jGCT40aNH3Z9//pnL7hbsuSTCczP1EuG54ayzJJSARHjYiZMID8szRGsS4SEoqg0REAERSA8BifD0zKVGki4CEuHpmk+NRgTiQGDHjh3uiSeecHXq1HGTJk1yR44ciUO3CrYPEuG5mXqJ8Nxw1lkSSkAiPOzESYSH5RmiNYnwEBTVhgiIgAikh4BEeHrmUiNJFwGJ8HTNp0YjAnEgIBEeh1m40QeJ8BsssvlMIjybdNV24glIhIedQonwsDxDtCYRHoKi2hABERCB9BCQCE/PXGok6SIgEZ6u+dRoRCAOBCTC4zALN/ogEX6DRTafSYRnk67aTjwBifCwUygRHpZniNYkwkNQVBsiIAIikB4CEuHpmUuNJF0EJMLTNZ8ajQjEgYBEeBxm4UYfJMJvsMjmM4nwbNJV24knIBEedgolwsPyDNGaRHgIimpDBERABNJDQCI8PXOpkaSLgER4uuZToxGBOBCQCI/DLNzog0T4DRbZfCYRnk26ajvxBCTCw06hRHhYniFakwgPQVFtiIAIiEB6CEiEp2cuNZJ0EZAIT9d8ajQiEAcCEuFxmIUbfZAIv8Eim88kwrNJV20nnoBEeNgplAgPyzNEaxLhISiqDREQARFIDwGJ8PTMpUaSLgIS4emaT41GBOJAQCI8DrNwow8S4TdYZPOZRHg26artxBOQCA87hRLhYXmGaE0iPARFtSECIiAC6SEgEZ6eudRI0kVAIjxd86nRiEAcCEiEx2EWbvRBIvwGi2w+kwjPJl21nXgCEuFhp1AiPCzPEK1JhIegqDZEQAREID0EJMLTM5caSboISISnaz41GhGIAwGJ8DjMwo0+SITfYJHNZxLh2aSrthNPQCI87BRKhIflGaI1ifAQFNWGCIiACKSHgER4euZSI0kXAYnwdM2nRiMCcSAgER6HWbjRB4nwGyyy+UwiPJt01XbiCUiEh51CifCwPEO0JhEegqLaEAEREIH0EJAIT89caiTpIiARnq751GhEIA4EJMLjMAs3+iARfoNFNp9JhGeTrtpOPAGJ8LBTKBEelmeI1iTCQ1BUGyIgAiKQHgIS4emZS40kXQQkwtM1nxqNCMSBgER4HGbhRh8kwm+wyOYzifBs0lXbiScgER52CiXCw/IM0ZpEeAiKakMEREAE0kNAIjw9c6mRpIuARHi65lOjEYE4EJAIj8Ms3OiDRPgNFtl8JhGeTbpqO/EEJMLDTqFEeFieIVqTCA9BUW2IgAiIQHoISISnZy41knQRkAhP13xqNCIQBwIS4XGYhRt9kAi/wSKbzyTCs0lXbSeegER42CmUCA/LM0RrEuEhKBZv459//nF//fWX+/33392vv/7qrl275q5eveouX77sLl686P773/+6P/74o9iHfvjhB3fp0iV7nc9Htx9//NGdP3/enTt3zv3555/Rt7L2nPPQ1zNnzri///671PPQV8by008/2TjLOrbURvSGCIhArAhIhMdqOtQZESgiIBFehEJPREAEAhGQCA8EMlAzEuGBQN6iGYnwWwDS24VNQCI87PxLhIflGaI1ifAQFG+04SU4YvjChQvuq6++cocOHXK7d+92GzZscKtXr3bvvvuuSeYbn3Ju7969bt26dUUyPPre/v373SuvvOJefvllk+jR97LxnDF8//33buXKle6FF14woV/aeRDfCPxPP/3UHThwwI6VDC+Nll4XgWQQkAhPxjypl4VHQCK88OZcIxaBbBOQCM824Yq1LxFeMV6VPVoivLLk9LmCICARHnaaJcLD8gzRmkT4zRQR2Nu3b3dDhgxx8+bNM8kbPep///ufo4IbOT169Gj39NNPuyeffNINHjzYDRw40D366KP2yNe8Pnz4cDdq1Cg3btw4E8tr16513377rTVJ5Tjnmz17tnv22WfdL7/8YtXk0fOdPHnSztWrVy+3c+dOk9TR93l+9uxZ68uwYcNc5s44+vfv75544omb3uPYkSNH2ji/+OKLomapCH/99dfdU0895ZBivoKdyvaXXnrJjRgxwg0aNMgNGDDA9e3b1/Xo0cPaPnbsmPv555+L2tETERCB5BGIivCGDRu6Rx55RLsY6BqIwTXQtWtXV61aNdtbtGihOYnBnOj/j/r+kPRr4L777nN8r69Tp46bNGmSO3LkSPJ+cElRjyXCczOZEuG54ayzJJSARHjYiZMID8szRGsS4TdT/OSTT9yECRNco0aNXO/eva0yOnoU8hrZu2LFCjdt2jTbX3zxRRPB/ofJxx9/3KT3a6+95pYvX+6WLFlij2+99ZajfUQ622+//WbSHQmODEdAU5lB2/wghIymEhyp3qRJkyJpzftUbPPDKnKaquxXX33VhDbyProj6mvUqOHGjBljbUXf4/miRYvcxo0bLQYFKU8fqU5H3j/wwAP2PufitcWLF7suXbrYWBHiM2fOdDNmzLB92bJl1sb169ejuPRcBEQgYQT4/wk3uPil2Es3Pf4rH8VBHHQN6BrQNaBrIG3XQPXq1V2DBg3cnDlz3Jdffpmwn1rS1V2J8NzMp0R4bjjrLAklIBEeduIkwsPyDNGaRHhxisR6bN682fXs2dOqnO+99143ZcoUh9zNjPwgt/vrr7+2+BOE9Jo1a9zEiROtUvrtt9+2+BPENqKa94lI+eabb4oqvmmP3HCkOzJ5165d9pnx48ebgKfKulmzZvaDaatWrdyDDz7o+vTpY488f+ihhxzV5eR4+40+EcfCvPodiV27dm23adMmO79/nUf6T8U5/WSjn1R5d+vWzc7Dc24GdOjQwQQ452/cuLFJcSrjtYmACKSPAOsScGOOvyTh5p52MdA1EI9roHXr1kU3p7hZr3mJx7xoHjQPSb8G+Lmfv2jl9xduhmvLHwGJ8NywlwjPDWedJaEEJMLDTpxEeFieIVpDhlJtzC9UzA+ytpAreqn0pkK6bdu2VpGNcIYP1REsfhndqAxHZL/33nsWgULMCBXgiGkWyUR0s+AkldT82SQRKVu2bClqh3Mhnqm8RFYTTbJw4UJ38OBBWxzz888/twgS/hT6+eefd1euXDGpzmKbZHhTVU5FOf3wG/ErLVu2LPbLMV9T6dGmTZtir/NDe7t27Uz6I9DZaJMMUs6HOD99+rT1nwr35557zu3Zs8ekOFXj2kRABNJJgP93EdPE/w/4/412MdA1EI9rAEnlK1EnT56sf5v6/5OuAV0DQa4Binb4ns/vOpmFP+n8SSe+o5IIz83cSITnhrPOklACEuFhJ04iPCzPEK1JhBeniISmqpvKZ+Q3WXlURRNvwg+JfmNBSaQwi0lSNUmECJUU//nPf9ysWbNsJzaFam+iSYggoeKbbHAvrhHdVIIjmLdu3WoRKQ8//LDJcSJKWFQTWU1sCnKazyGn+EV4/fr19jX9iG7IdvpBlrjfiTCpWbOmCX7/mn/kF2lk+Llz5yyyhdxzIlGoAidTHLHOzQAq43mNsVClLhEepa7nIiACIiACIpB9AlosM/uMdQYREAERyCcBifDc0JcIzw1nnSWhBCTCw06cRHhYniFakwgvTnHp0qW2QCQy/KeffnKrVq0yIcyil8hiL555JFcb8U2199ixYy1Cha+p8EZgI9NZbBKZjnhGbke33bt3m0DnM0jzqVOnmoRGkO/bt8+qsv2fKSLhqdCgT/Pnz7fzHj9+3CrPo216EY5E9zs53mSEL1iwoOg1/x6S3Yvww4cPO3K+yTunL4hwxoAY5zj6CBcW6ELev/POO7Yj5tkZDxXu165di3ZJz0VABERABERABAIQkAgPAFFNiIAIiECMCUiE52ZyJMJzw1lnSSgBifCwEycRHpZniNYkwv+liNgm8xopjQCm4prYEaJikMDEinz22WdFWdp8iopxYlG2b99uohsZTKzKoEGDTCCTsUvVOFIbaXzs2DGLneFc7MjxTp06ufbt27t77rnHMr9ZSPPEiROWz0teH2IaMU4sCpl9yHiqy4kqQVgTw0JbfkO8E3PTvXv3op2+33777Xae6Os8J2/Ui3Dfhn/ctm2bVaxHI2GIUGGxTKJj6B/PmzZtanz69etnfeKa0iYCIiACIiACIhCWgER4WJ5qTQREQATiRkAiPDczIhGeG846S0IJSISHnTiJ8LA8Q7QmEf4vRaQ3C1myACXV3adOnbLoERaNW7FihWvSpIk9IqL9hiAmIxxZTtU1An3kyJEWo4L05j3k9aeffuqeeeYZq6amavqPP/6wJqjupqqbSu0xY8bYI7nhixcvtjgWZDOSHNnsBXbHjh3tNeQ1O78U03e/jRgxwnLFyfZmZ+HM119/3RbcRNj71/0jmeSliXAk/JAhQ4q170U4ESq0Qa55r169TICfPXvWxhwV575fehQBERABERABEagaAYnwqvHTp0VABEQg7gQkwnMzQxLhueGssySUgER42ImTCA/LM0RrEuH/UiS2hB88vHgm+oP8bjLABw4c6OrWrWv52B9//LF9gCrs999/36qzyc2+//77rUKajG9E+ssvv2wLX5IXPn78eFtgkrap2N68ebPFpCDZkehIcGJHqELnayrFWVSTCJQGDRpYe8h4hDmV48h25DYV4V9//XWxKnWiUegLVePsVKWziGedOnUs79u/7h9ZCDQqwpHbyHF2YlmQ8XPnzi16jXMSjeIzwlkUlEpwxLg2ERABERABERCB7BGQCM8eW7UsAiIgAnEgIBGem1mQCM8NZ50loQQkwsNOnER4WJ4hWpMIdxYtQmUzcSO++hoJ7HcWiyTChNxvBDARKohw8sS5pnm9Z8+ejhxxpDZiHOlNVjjSmiptBDiRKUh1nh84cMCiVRDILLTJoporV660NpHRCGYqyRs3bmz525wPWU+7/IBE5TjV3iyeGY1GIdubMVDZznk5X9euXV2rVq0c0pu87+jOApi06Svdjx49ahyobmfMnJ/nLBgKH55THS8RHuJfn9oQAREQAREQgfITkAgvPysdKQIiIAJJJCARnptZkwjPDWedJaEEJMLDTpxEeFieIVqTCHcWgbJ//35Xv359q94mz9tHh/BIbveSJUtc8+bNrdL7hx9+MPmMzN60aZNJYfLB+QUVkfzRRx9ZJTWSG1FNVMhff/1lC13yGRag3Lp1q9u1a5dJcxbbHDp0qC2qSaU2ud8sjkm+OAKb49iiIpyvEeB+99cC0Sv0dd26dY6Kc/pCm+Sc027mxoKfZH0TecJGFjnnozKdqnhuArAAJuOkbXLSEe0bNmyw41URnklUX4uACIiACIhAdghERTh/scbPFtrFQNeArgFdA+m5BpYvX+6qVatmO38trC07BCTCs8NVraaEgER42ImUCA/LM0RrEuHOBDG53DVr1nRr16414Xz9+nVb2JLHa9euWRY2ldVUeO/du9fQk/GNGObOPfEjRKVQqU1WdocOHay6m0prfqAh5oSFNf/73/9aW99//73JbnLJqfxGPnNuFtskXxyBzWeoKuc5W1SEI+N5HVl+8uTJoksBcc/5+LeGvCbKhGgW4lb4TOaG+GYxTmQ92eW0SfU37fJLNpXltEl0CxXlLCaKCCdvnE0iPJOovhYBERABERCB7BCIinBuzvM9WrsY6BrQNaBrID3XALGUEuHZ+R4abVUiPEpDz0Ugg4BEeAaQKn4pEV5FgFn4uES4M7GN4CX7msrwP//8sxhpqq6p0CZ/u3///paXzQHfffedVYPzWSquEdgcyyKZxIogpBHN27ZtsziSyZMnO6rNqdQmXgWBvWbNGluEk2OJWqGaG2lNHjgxJGR8I8vZvAgnHxzBjoDneCrW/YaIR6oTv4KcZ5FN+kyUCZXdfA4Zj8D2ES/+s1SFv/nmm46cc9okG5znHE8FOOMkSoUKdqQ+m0S4p6dHERABERABEcguAb43I8C5ce9FiR7/rZwUB3HQNaBrIC3XwO233+4aNWpkv0Nm97tK4bYuEV64c6+Rl4OARHg5IFXgEInwCsDK0aES4c7EMSKbyml4lLQhfFmwkmOQ01R0EysyevRoy86mghrpzZ8mIsi9CEc2U1GO2Ob6HzJkiElkpDaV5chuhDWSHPHMcTzyGpncRJTwebaLFy/aQpgswPnuu++6iRMnWgU5x1CdTvQJueFEmNDHXr16mQinknvmzJkm2ukzopzKb8Q41eDko/M5XiNShUVCqTqjIpw+//bbb1ZNTsU6WejkmVPFziYRbhj0HxEQAREQARHIOgF+RuF7MItUszC2djHQNaBrQNdA+q4BfodjzSl+x9OWHQIS4dnhqlZTQkAiPOxESoSH5RmiNYlwZ5EgZHmzI7JL2qj0JiaFY6jkZmFLfkhh4UmkMRXjVGMTP3L8+HHXsWNHq9imLT7Le1RVU2HduXNne47Y5ngkNkIZucyCm3yWdola4Zx8no3KbH4o4n0qwtip4OZ8SHWqwPlhmMU3qd6mshzRffDgQbds2TKrWkfE02+iW6iAZzFMFr/ka/pHrAuxJ/ySzSKatOP7wPsI/lWrVhUtrikRXtLVotdEQAREQAREIDwBfkbh5xB+buAmuXYx0DWga0DXQDqvAX53pKBKW3YISIRnh6taTQkBifCwEykRHpZniNYkwitOkcprqqZZDBMBjdAmvoRqbuJTkNnkbO/YsaOocWQ2leK8Nm7cOLdv3z6T43///XfRMUSqIKFZeBMpjvj2EpyDyPAmkxxBjuSmsps4E34APnXqlMluFlWhOp3jqFpHVPM+fUaKU1nAuTmGvnAuzkmFORIc6X3p0iWLiOE8xL34mwMId2JZuBFAlTgbx1NNjyTXJgIiIAIiIAIiIAIiIAIiIAIiIAJxJiARHufZUd/yTkAiPOwUSISH5RmiNYnwilMkAmXLli3uyy+/NMmMoEYiI4mRwlOnTrXs7+gilpwFqY2URjB/++23N2WR0w4yHMns5XN5eke7CG/6gzyvSPUAn+Vc5KJHpXxJ56XvjDOaoc65iGIhXkWbCIiACIiACIiACIiACIiACIiACMSZgER4nGdHfcs7AYnwsFMgER6WZ4jWJMJDUFQbIiACIiACIiACIiACIiACIiACIiACcScgER73GVL/8kpAIjwsfonwsDxDtCYRHoKi2hABERABERABERABERABERABERABEYg7AYnwuM+Q+pdXAhLhYfFLhIflGaK1QhThRHsQQ5LPjTiSisSflLevv//+u2OP00b8CrxZ3IsxE8GSjbHHaczqiwiIgAiIgAiIgAiIgAiIgAiIQPwISITHb07UoxgRkAgPOxkS4WF5hmgtjiIcSUrmdTTrmufRDGuesxgkOdzR42DiZWtJfJCyLCTJYpQs9Bhts6Tj/Wt8DsHMopgsOsk5eY2NNn755Rf31Vdf2aKV/jNlPdIH2vFt+GP5+siRI455QdhncvDHlfb4ySefuKNHj5b2dl5eJ/Oc8bAwJxnmp0+ftkU7yRv3i26Wp2N8jgVHM5mV57M6RgREQAREQAREQAREQAREQAREQAQkwnUNiEAZBCTCy4BTibckwisBLcsfiZsIRypHF37ka/YffvjBZDPP2ZDSu3btctOnT7cFKHkNQYqg/vHHH4sJVl6jIpkd8Tpu3Dg3fPhwE7IIbP+efyypWpnXLly44J5//nn35JNPup9//rmoqhmhzkKVkyZNcnPnzi3XjI0YMcL95z//KSbU+SB97devn3vhhRdM9PsFOcsrf0eOHGkLdparEzk66OLFi27FihWuTZs2JvmXLVtmY3z11Vdt8c3ydmPevHlu9erVRdzL+zkdJwIiIAIiIAIiIAIiIAIiIAIiIAIQkAjXdSACZRCQCC8DTiXekgivBLQsfyRuIhyJ/dFHH7khQ4Y4ROnx48dNbE+bNs29/PLL7sCBAya8keUI1QcffNBduXLFKF26dMlt377djRo1ym3dutUEN28sWLDADR061D3xxBNu8ODBrmXLlq558+Zu4MCBdh7ei+4bN268iToCndfHjBljkhox7uU0Vc4I2smTJ9vjTR8u4YWyRPhDDz3kxo4d6/bs2WP9RfgTK1LW5m8CMPYpU6aUdWjO36Nyf82aNa5169ZWBU9l94YNG9zo0aPd4cOHbxnlwti4AQKzmTNnSoTnfAZ1QhEQAREQAREQAREQAREQARFIBwGJ8HTMo0aRJQIS4WHBSoSH5RmitbiJcAT3iRMn3IsvvmiidPHixe7bb791PFJBjeQl1oSIjIULF7oOHTo4BDhfb9q0yaq1EaxIZKqr2YYNG+YGDBhgbbz22mtu/vz5JsdpM3Pv2rWrmzNnThFaJOzXX39tx3P9duvWzT3yyCNFnzt48KD1DwHdt29fO9crr7zi/L5582aLAzlz5oyNi7aQ6KWJcOJQaAepTszJ008/7ZYsWWIC2XeKmwFLly4ttnMM56R/vXv3tv5lHsPXb775pt1M8Gx8m1V5hBF95cZFSTs8udFQv359mz8quydOnOjuu+8+N2HCBMfX3KwoaeemCNcEXOBPRT7n0yYCIiACIiACIiACIiACIiACIiACFSUgEV5RYjq+oAhIhIedbonwsDxDtBY3Ec6YiD1BGFP9y37u3DmLMUFgUymOzKXfURFOrvbs2bNNAlMNThyH3x5//HGT6Aj2W+1I5BkzZviPWiUyMvvuu+92Xbp0cb169bIqdGR1kyZNLJqFvO8ePXq4+++/397r06ePY2/VqpV7+OGHbSz79u2zeBCq2KkuL0mEI3gZO23PmjXL4mDI1aaaGiHsN6rPEfvRnc+0aNHCZDPCmap3Ksujx/CcinY+TwxMqA2xz9w0atTIxs15ozss2rdv72rUqGGiPvoez6nqf+CBB1z37t1dw4YNbQx8zQ6H/fv3m2iHPZE28I7uZK0TnRNS7odio3ZEQAREQAREQAREQAREQAREQATiQ0AiPD5zoZ7EkIBEeNhJkQgPyzNEa3ET4chgxCo7cpPd54SfOnXKUYGNGCduIyrCeY339u7da1EqPkscRkSgIGmpQL7VXrduXZPbni39eOutt+zztE8MCuemCh2B+9RTT1nMR8+ePd27775rOebkjrOT8/3oo4/agp4sYEmVe//+/a0NhG5mRjjnInscqY3UhwWV0IhzBLnfkNhUSUd3ssTpC2IZmU8FNot3EqkSPY62Qkpw+kS/qfqGAXz8+P3j1atX7eZFgwYNbI7869FHxs1nyTgnwsa/R6V7u3btHJ9FpN95550myvmaHenfrFkzi8RhXrSJgAiIgAiIgAiIgAiIgAiIgAiIQGkEJMJLI6PXRcA5JxEe9jKQCA/LM0RrcRPhVPcSr0HlNM9ZiBKRy6KYXD+IZXK+kaVUaCNDqRLnNSQzsSXElPBv1298jngUqrJvtVOVHK0I9yL8nnvusQUx+ZrKY/rFopb+eBbJRDxHN6pcseH6AAAgAElEQVTZ6a8X936RyN27d5uwpmobeU11ODtyHIFNVTSRL9HXV65caTI8MxaE/lAdTX46Yv6NN96wCnLiYYiRee+99+zGQLRfoZ97EY6Ah0vmxvtUtterV89xQ4AxIL6JU4EN88tryH5uDsDEb0TKcHNj586ddoOAmxpUtHPTgddeeuklq4R/5513TKT7z+lRBERABERABERABERABERABERABDIJSIRnEtHXIhAhIBEegRHgqUR4AIiBm4ibCKeymRzv8ePHW5TIF198YSKX7GuiMp599ln33HPPlbiTN41Ebdu2rUMc+43rbtCgQW7btm233JHrpYlw4lrYkLZUVSPCke+rVq2yTO6PP/7YqsX9eZH3iHBiWjgeKU32N1ErxHzce++9btKkSfYaY2LMTz75pInwTp06mRTmeN4j/5w2ODc7FdPffPON27Fjh8XHcAOAavf169ebYCY+hgU3qUJfu3atVWKTo05FeOjNi3C4I6npQ3Q/efKkQ1Qj+Mk3R3jzGmMjy53FTksT4dG+kpfO/F+4cMGq0HmPhUTbtGnjuLnAQqvaREAEREAEREAEREAEREAEREAERKA0AhLhpZHR6yKgivDg14BEeHCkVW4wbiIcqYo4RoZPmzbNYkkQnIhwpC4VxOfPny9xRwwjRBHmURFOFXHz5s2L5VZn5lT7r4naQGD7jf4QjYLEpZqcc7N4J5XKyGz6hJgly5qoFo7hM4hdH4VCZAcRJ2fPnjUZTt43Ej0zGoVx8h4yfty4cXYO2vIbbVKNTntUU7M4JiKeSmzGyL8vKqTJ1EaUUzFNZTiV4mSDM47jx4+bMKatUBt9Ihqldu3aVsnesWNHx06kCVEziHiEPRnmiG94cVOAjHVuIjDfZYlw3iPqhmp55DmcfPQNY6Sy/v3337cYmFBjUjsiIAIiIAIiIAIiIAIiIAIiIALpIyARnr451YgCElBFeECYzpmoq1atmskyMpa15Z9A3EQ4RBCryE4yo4nQ8CK8cePGZWZ8d+7c2aqsyYyOinAWy6TyGgF7qx1BXVJF+B133GFtRzPG69SpY9KcaA/ENJEsxJFwbTMGMsIR1deuXbOvkeGMBeaI60wRTsU2/aZSnPeRx3zGb7SJTCdyxS/MyXOiQxD03AhASBOPQuU37E6fPm3V2Ih1FvSkQp3omWjmuG+/so9UqnNebkAwNm4UcMMCqY/8XrdunUXVMD9UtjMuomSIlUHaM66yRLi/HhD9U6dOLaoGp79EpHCT48MPP7SIlcqOQZ8TAREQAREQAREQAREQAREQARFIPwGJ8PTPsUZYBQIS4VWAV8JHVRFeApQ8vxRHEU7ONLnXn376qYlfL8LJBUeqRmM3os+RyAhZhGtUhHPdIWmplr7V3rp16xIrwu+66y43f/58OzexI1Q5t2/f3o6laps+UhGO3CYLHImPtEU8I6WpYL58+XJRPArnyRThZIzzGp8hyoXc72iUCW0g1amCXrx4sVV4w+nYsWMWfeLz1Tdu3FgklxHpSGliYai+hhfxJMjlEBsCG+EOd/rtM8JpnygZ4lLgxUKj3GSgip2bBVR3L1q0yOaXfpQkwuHqx0zsDEzmzZtXrNtErnCDxEeuFHtTX4iACIiACIiACIiACIiACIiACIhAhIBEeASGnopAJgGJ8EwiVftaIrxq/LLx6TiK8KtXr7olS5bYTtSIF+GI5mhUSCYP4kCQwkSBIMKRskSYkLFNjAkRIohmhCpfE7fCgpRUS5PPzU5ECgKaynHOxU6kCItllpQRHo1RQfYuXbrUPk/cx/PPP+8GDBhg0plK7q1bt5oERug3bdq0mAinQpv/31DpPXv2bDdx4kQ3cuRIk+eZ0pq+HTp0yBagRLgTN0JlODcOiJR5/fXXrTKbSm3aRYQTGcNOBjtyHfEcYqMdKuCJhmHRUl9pDnvmgkU/N2zYYM+feeYZGxOMYUD+OxIdxvSJingy3nkfsU1/YX7q1CljQkY4N0L8xrm3b99uC6Yy9kxO/jg9ioAIiIAIiIAIiIAIiIAIiIAIiAAEJMJ1HYhAGQQkwsuAU4m3JMIrAS3LH4mjCEf0IoGRwW+//XaRCCdOA3GKNC1pJzsbQYzwRoQT0UHVMdEhCFSqlvk8kR3IbhbXRLIiUKk8Rt7yb57KaeQ3Yp33yivCOfaHH36wKmcqtxHwXPMIW/pDRAuLWiJ5qZ6OVoTT1xUrVliUCO9zPJ8lcoW2ohtyH+FONvaRI0esEp2YEc5N1fqwYcMsegRJjgRHFrPIJOfmHOUR4chpmNxq4xhkNSIe0e1F+E8//WScu3btaouDsjgmgr9Vq1Z2A4KbGvCiL/ST95lrqsap8GYOGR8V4OR/0w4V9rDxG33csmWLI9edavhQct+3r0cREAEREAEREAEREAEREAEREIF0EZAIT9d8ajSBCUiEhwUqER6WZ4jW4ijCkbdUdVNtjej1FeFt2rSxzG0kckn7ww8/7Hr27GkyGVFMnAYxKVQWEyXC+0hXJC2LNSKiydNG5MJh7NixJm2R5FSN79q1y6qdyyvCEbFe7lLVjnwePHiwCVrGwf9PeOT8yGovwokvIWqFjHFkP+NH1rNYKNXqVFZHN8bDopFUSNNvpDL537SLJEeec0OAPiDGacPHrlABj2SnWrykjTHwHpnbVGyXdpz/LOPlRgN56Ihqbh4gx6mAX716tQlt4kvIKl+wYIHJbW5w0G/OBVtueiC+uVFARTjtEOFCfjgSn0VHEehU1HMt+I0bF1SbN2rUyPrqX9ejCIiACIiACIiACIiACIiACIiACJREQCK8JCp6TQT+PwGJ8LCXgkR4WJ4hWoubCEcKHz9+3LVr184WdSRixItw5DcLPRL/UdKO9CV/mjgORDGSG0FMZAlRK1QVI5mpJKbqnKxtKoypRiZehIUdkbYswIiEphr5xIkTJmtZGJMKb2QuO7IcORuNRvHzgRxGriPWEbtsSGkqtqmYRgAjpEePHl2U+U2/iVJBPrP4JuMm17tv376WOU4f+Rzyl5xtRPrmzZsdVfBUvTNOzoG4RkaTR04fxowZY8Kc1xkXGemMi3PQXuZGhTbnYvyIZ8ZS1ka7VJkjr6kKJw+cmw6MZfjw4XYzgP+PIssR3dzMYG6YY4Q5VfrEpPAagp45IeaESn1kPAuX8jnao+qb8TN/bFTRcx0wD0S+aBMBERABERABERABERABERABERCBsghIhJdFR+8VPAGJ8LCXgER4WJ4hWoubCEcWU/FMLAZSFdHqRXhmRjgiFymKrGXns4htqskRzUhS5CzVyLRFLjhymWrpo0ePFu1UhyPRke+8d+XKFXtE6CJYqVquUaOGyWaiO9jJsa5Xr17RYpnEl8CSxSsPHz5schgJjuAtaaN/CF6qnqnYRvQi4f3G2Og3cSNUilMhjUTnPIhv2iWbGz5kglNRjczn3IwN+c+NAD6P/GZDfsOHOJHS4lEYO/3gpgOCu6yNPiLd6QsinOOpDKcKHkaMn3PRHjcOuBHB/wMYL31jvqiaR7oj7bkJwsYYqZynLfrBGLhB8M0331h1PJX+VL1TRU+8DZEviHNtIiACIiACIiACIiACIiACIiACIlAWAYnwsujovYInIBEe9hKQCA/LM0RrcRPhyE4EdpcuXYrEcGkiHHFK5jdxJxxDJTPCmHgUIkZoi6gQpC/VxVQoU/VNBnWTJk2Kdr5m4Uyqk4n08IKd9hHsiHDiN3xFMu0RQ0K1NhXh9IGKZxaLROC3bdvWJHn//v2LLe4YnS9EOAtwEtdC1Tb985XO/jiqnxHxRKBMmjSpSHzTR+aNfrJR6Y0wZkzRsTVs2NA+y40FNj+usqq8ke/cFGDh0B07dtjnSvsPfFjgkpsCyHaq0JH1CHcEOTt99fnkyG/EP9Icec1CqCwmivD2Fer0kVgYxD4ckeRIcNiQIQ7jWrVqudq1azuq9KmEp10q47WJgAiIgAiIgAiIgAiIgAiIgAiIQFkEJMLLoqP3Cp6ARHjYS0AiPCzPEK3FTYQjPan8RlojRNlKE+FURBOlQcUwgpTrCylL5jT53shVZDIRHMSGEMeBfEVaZ+5USiOBkdzRDTGLjF62bJkJd/8ebfoYD4QwUSack6poxOyaNWtM+hLBUtJGFTcCmAp1qsipjs7cOAdjoMKbviOZeY0xRftJFTcV1JljYpFJPlcRSYzshx/V8Hy2rI3KbSroyTrnBgQc2GDGTn9pw8fZnD9/3uaSCnyiYAYOHGg3AmARvQkAM7LB4Um2OUKdjfmmEhxmxMJQac680S6V8dpEQAREQAREQAREQAREQAREQAREoCwCEuFl0dF7BU9AIjzsJSARHpZniNbiJsKRoAhdZCd53mxIX2Qq/x4RwX5DbiNCZ8+ebZXDVA9TmUzlsP+sP7Yqj1R8016mbEXQI2mRvohcZDYV0mRXI58RwaVtCH/kNceVVaHN52k7KopLazPE6/SdRS7J6abSvqyNsRNpAm/Gk7khxuGGvI5KdYQ2czxr1iyLdYFDdIMzLL34j74HB17nmqD96PUQPU7PRUAEREAEREAEREAERKAQCRw7dswKbcoaO79/+DWFQv7eVNY5K/MeP+vzO4n/K9+q/OxPO/yuye8R/D7B73gU9vC7XDY3OPP7EPPii58YB68Ta0mkZWXHRf83bdqkmMgKTqBEeAWB6fDCIiARHna+JcLD8gzRWtxEeIgxqY3cEkBOV/aHt9z2VGcTAREQAREQAREQAREQgWQSQN7yl6DIXP4i0u+8zl+RUmxCUQ5rD/HXl/59HjP/QpSCFiILly9fbjGLnghymPaJNyxtpz3/l6D+c9l4RFAjjvlrUv7iNvqXohU5H+3QX/4ymGIr/pKXnb/K5a9beS9bMpzfkTgv6xrxF7dEd7JxTgqDmCf20gqjmFduVJS203bTpk3dkiVLSj2G4q1czFdF5iTfx0qE53sGdP5YE5AIDzs9EuFheYZoTSI8BEW1IQIiIAIiIAIiIAIiIAIiIALZI0CEIesG8Ts16wz5nUpj1hsiLpI1ipo3b+6aNWtW9D7HzZgxo1jHEMysg8S6Sixu7zfiBx9//HHXvn37Uvc+ffpYhbb/TLYeKbYhfpHx0h9iJflr1IpuSGAiMFkDaejQoSajuQnAXxMTCclfGWfrr2+R0MRA9urVyyq/WWeKjap0/pKZtaKQ/KWdH9HdtWvXUne41KhRw9bBKu04ojsZv7YbBCTCb7DQszwT4E9DuCu3Z8+e2Ows8tamTRtXvXp1N3r06KLM4jyjSuzpvQjnGzPfeOM01+XtC7nL/PkSPzyUduc2SRMkEZ6k2VJfRUAEREAEREAEREAEREAECpEAVczvvvuuW7dunVV9I71ZOJ71hKgEp8KY91mUvl+/fraeDmvqIMhHjBhRDBkV4kRPzp8/334n92+ePHnS1kHasGGD8zuxiTNnznTdunUzN0J7nC+bG8KYqEb6jbxGYj/wwANu7dq1ZZ6b39W5WUBVPI9IftpCBtPWiy++aGsWUfW+atUqN3nyZItw9GsShR7Tjh077Jz0hwhK9lOnTtnO/N17772ub9++1lfcU3THT3CTg5sTpe3MYcOGDa3ivLRjTpw4YREwoceW5PYkwpM8eynrOwvP8T+IYcOGxWZv27atq1atmolwFoTzi/elDH3OhsPd5dtuu83VrVvX7uzGaa7L2xcWceRPm1jMjz8LS/omEZ70GVT/RUAEREAEREAEREAEREAE0k6AymaKsRCpr732muP3UqqKkb1IcL8PGDDAPfroo0VfP/3001aRzPus64M4J1ea33+piKYqHGHOuj+ZlcNkUCNjEa6IZH4P5lhf2ZwN5rRNZMnUqVPd4MGDbawI7kGDBpkQ37hxo0XElFRFvWjRIosKQdZT0IhAh9eQIUPcQw89ZOKbqBV2xg1DPgNDxsm5Q0Q+suYRNy6mT59ulee7d++2ok9kNRXgCH0EOH1ifpgH+szOmJHb3KRAnJe18bt8y5YtHUy0lZ+ARHj5WenILBMYO3asCWdEKX/eUbNmzVjsd955p6tdu7bdpWORA22VJ/DUU0+5OnXqxGJeK3N98ZcB3Bjhs3zj2rVrV+VhxOSTEuExmQh1QwREQAREQAREQAREQAREQATKIIBgPXDggAlpBCqxHhMnTrRqbSq22ZGoDRo0KHqtcePG7u6777avqYjGu1CJzO+0d911l6tfv76rVauWu/32293SpUuLnZ2/2OczFAgi3Ylnydbms7ypBCfKhX6Tq43IRlAj8pH8FNdR+V5SpAnHU2lNtjZ/0Q8jjuUv0mkvGvnSqFEj8zyw4HWqw8khh3FVNxbmRHo/+eSTJrTJW58zZ45J7t69e5sAp/r7448/vulULAzaqVMn98orr1j1O1wYD/ntVK5Hd+R9ixYt3Jo1a4q9zrHEr2grmYBEeMlc9GoeCFBxjWREPD/xxBN29447ePne+cZCfhT/k+J/ttoqT4A7ufPmzcv7nFb2mmrdurVdo/ygwB30NPyFgER45a9nfVIEREAEREAEREAEREAEREAEckEAQcuiiVQNUy2NGCaqk6phsrP9jnzFp/iv8RnkhPM1kSa0QYUymdLIVqJWOJ5s8ZUrVxYbCoKVSBJiTfm9MZtylbapNqc6GplN31hcksVAqf5GhrPYJbnaRMK8/PLLVuEereDOFOH33XefyWf+In3WrFnuyy+/LNqfe+45d//991uFPK/z197Xr18PsnAmrIh06dChg+vSpYtV6Ldr187GhvdCdJOIwOKnmQtZUpXP56j6Jz4Y8c3NC+aQqNnoTl47boJxRl+naA+xH2VTbGIL/AuJ8AK/AOI0fC/CuVvJoghUX8dhP3z4sP0ZS1oyofM552SR8Q04DvNamT4Q3cPdYqra+WbEtZH0TSI86TOo/ouACIiACIiACIiACIiACKSdALnWCGnEKpXRiGByrnmdbG8yvYnd6Nmzp8lrFmlkJyaFKmq/UWHM74AcR7U0619ROY0Upo3ohlju2LGjtZ9ZKY3ApVKZ+JSq7HgWKs3pq49rIYoFCU4hIgtGIug5DulPhAsRLTBA9uKOiHyhL5kiHGGOOKdKHjFNu36HC4VuRJDwGpncvpKax6qMCZlN/AkV9lSmI74HDhxoNx0oDqSfRK2yf/DBB8WENZ9FmvNZKsvpB3NFvAvzG92R+1T0c3Mk+jo3EtglwqNX843nEuE3WOhZngl4Ec7/pAj01yYCcSPADwp8A0KE86dM5KslfZMIT/oMqv8iIAIiIAIiIAIiIAIiIAJpJ+CzwcnKZidLGklNcRY7ESZIX2JMyMdGwLJTScxfRPuNCmsiNR588EGTv/v37zdZTpvLly8vao82+Z2XtsjU9uchugRfQxt8duvWrVXaaXvJkiUWF4LcRu4jvBH2P/74o8WkIP8ZP31HDFPURmEaY+D3c2Q4RXeZIpzqeOQ+wrt79+4mwxHi7LDDPcGRrxHxly5dsiJIpHhVxoW8R6ZTfb9s2TJbwBQxztdU8TMuhD4iH8ZU6vsbDYyT/jIXXsYjwqkQz9z4Xb6kjHAEOaJfIjyT2L9fS4SXzEWv5oGARHgeoOuUFSIgEV4hXDpYBERABERABERABERABERABEQgAAEqnhGpVE+T3U2kSb169SyuE+FJfAiSddy4cSbEec7uhbXvAnEcrHWF/CXqk+dEaxC38sgjj5gcRhCzs1Ya2eFUHfvXmjRpYnKdOBVE9B133FGlnXNS0Yy0P378uFV2I8FLE+GMw0elUCH/wgsvuBUrVliMSKYIZ0xIdSqyV69ebTw8lwULFti6X0Su8BptItOR09xMqMq4WAQTaU//8FzcoIA7Y2LjkcgTqtF79epl/UeGs1HdT0wNFd6+4l4i3NAE+49EeDCUaqiqBCTCq0pQn882AYnwbBNW+yIgAiIgAiIgAiIgAiIgAiIgApkEiAohN3vLli22ftnGjRstQoPqaIQ2WeDsRHmyAKT/mtiTp556ypGJTbUxCzci0YnqIJObHPBWrVpZ/jYxKVQz+x2pTnUy1cv+NarA+ctohDzV4UR9VGU/cuSIRZuQ040c9lXMZYlw2CCuqeBGHPuK6kwRzlpvvNe5c2cbc5TpokWLrAo9mntOVTZRrixIWpUxwYpxUZHOAqbcNJgyZYrdpKDSm/Mg31mHDllPtfqHH35oGeWcn8U9Efcc56NRaIcbBn4fPny43bggI5zPjxgxoug9qt25weBZRset585JhOsqiA0BifDYTIU6UgoBifBSwOhlERABERABERABERABERABERCBrBFAhFNB/NJLL1m1MFEeLJBIFTVV30hydqQoed/+ax7JwEYSsyAkudOI2kmTJlnsCLEpxKcQd5K5cCOfoVqcrO5sbQhvXykdPcetRHj0WP+8LBGOb3rzzTeLduQ0NwzIH+d15DdSvKS++PbL+4i8hjFymhsOSHCkPNXrRLUgwTkPFehkhHPDgSp/KsCZz6ZNm5q4R2TzGp/lxsbcuXNtJxamd+/eVqVfvXp116BBA/saqT579myLjSEeRSK85BmTCC+Zi17NAwGJ8DxA1ykrREAivEK4dLAIiIAIiIAIiIAIiIAIiIAIiEAAAghspCmVwFR4Iz0Ro1SEE5nid95n0Un/dfTx+vXr1hMWniS2o1+/fhYbgmT96quvLM4j2tVciPDo+aLPKyPCydFGELN4JqIbRr4ivEOHDlYBTmwJO1Xwd999t+vTp499TYU4wp9K86puyGv6QC44ESdU3jNPVORzDi/COQ9zQlU7n+E5x1ERzvywcSzV5cwjcStUweMlyISn71SEd+3a1W5q8FkiWKgq5+ZICKlfVRZx/LxEeBxnpUD7JBFeoBOfoGFLhCdostRVERABERABERABERABERABEUgJAap7qSBGdLdr184qjRGkLLZIRXffvn1tb9y4sWP3X0cfiTNhQ7gSRTJq1CjLo0YSI9WRt1F5mjQRvnDhQle3bl1bCJP8dKrevQhfunSp8YMhO5X15HMjmPmaxS1DVVDDkOp65DZxLzyyQCaLW8L98uXLRdX3HOvFOHnlRKREF8DkfSJSaIOqfarLWSCUjPPdu3db9fjMmTNtUU6uAyJVOE9mdX9K/hkEGYZEeBCMaiQEAYnwEBTVRjYJSIRnk67aFgEREAEREAEREAEREAEREAERKI0AUpWsb3LAiSwhHgXBS843Od47duxw/fv3NzG+c+dOl7lTVY4Ep/qbuI0ZM2ZYhMqyZcvc9OnTTcJ6gYp8RSx36dIlq9EopY0VAYw8po/0gWpqKqLL2oiAIQ+camqqpZHGXoSTix7dSsoIj75fledUfVMFDlciSugHVfcTJkxwVK1Tsc08MJ8cy3NkOJXhzCfzu23bNhPzvHf48GFri7ln3ohXQahz46JFixZu1apVJsl5ZLFP5pK4F+J0EOjaihOQCC/OQ1/lkYBEeB7h69TlIiARXi5MOkgEREAEREAEREAEREAEREAERCAgAeJMWFyRPGliP0aOHOmef/55E9lEcGzdutXk64ABA9yjjz5q8Rn8/oqQZUeUs8jloUOHLH+a/OrNmzfb4pkXLlww8cril8hYJCyLcZJFTVsI6VxvlRHhjBPxjDwm+5sxeBGORN6zZ0/RztjIU+czvM7YiR1BSFd1u3jxoluyZIkJ8DFjxjh25o2oFuaKKnRuNJALzk0MpDV95cYDi5sOHTrUsSgp88K8kQ2P4CYOhf4Sf8JG5bevHqc9zksUC38lQPY77SHM4aHtBgGJ8Bss9CzPBCTC8zwBOv0tCUiE3xKRDhABERABERABERABERABERABEQhMgMxn5C0LZCJT+RpBijTt1q2ba9OmjeVet27d2p63bdu26DWqhsmdpjKZSBAEOhIcSRzdqBjftGmTRauwYGPPnj1NLFO5nOvNi3BiP8jAPn369C0rwqmu/vbbb62SGjHMzhj5PDxYRLS0HXG8d+9eWzCzqmNlsUzaItOdxS+5iVFS7AqynupvFrtkb9KkiTFfv369yXLaYA646cHNCcYX3bhpwYKfW7ZsKXoZbgh2om4YN/NMFIu2GwQkwm+w0LM8E5AIz/ME6PS3JCARfktEOkAEREAEREAEREAEREAEREAERCAwAap9qVxGrJJp/dtvv5ngPHv2rFUGE3fid6I32PmaimCypYnRQArTDo9UefsYFN9VqqGRthzLTsUxVdIlSVz/mWw+kplNFjbZ176Kuqzz0X/kNxtCmJ3qabLQqbxmPKXt58+fD5YTzoKbZI6zU41d2gKc3HhgnphTbmzAHLnNHDAOhDpzyNiZr8xqdeaSyJUDBw4Uw8K1wbwx1pI+V+zgAvxCIrwAJz2uQ5YIj+vMqF+egES4J6FHERABERABERABERABERABERCBXBFAqFLZiyBF8JZ380I4258pb38qchxjJc6FeBCkeGlCuaw24cYClFSKx3VjbrjZkDlHfM2YM1/340B4E3Wjim9PpHyPEuHl46SjckBAIjwHkHWKKhGQCK8SPn1YBERABERABERABERABERABERABERABPJGQCI8b+h14kwCEuGZRPR13AhIhMdtRtQfERABERABERABERABERABERABERABESgfAYnw8nHSUTkgIBGeA8g6RZUISIRXCZ8+LAIiIAIiIAIiIAIiIAIiIAIiIAIiIAJ5IyARnjf0OnEmAYnwTCL6Om4EJMLjNiPqjwiIgAiIgAiIgAiIgAiIgAiIQCESYIHJgwcPVmro5G7/+uuvthgli1ZmLhxakUZ/+eUXd+rUKVuYkkxy2mVBU79wZ0XaKu+xLJzJOfbu3WuLn5b1udOnT7sPPvjA/f7772UdVjDvSYQXzFTHf6AS4fGfo0LvoUR4oV8BGr8IiIAIiIAIiIAIiIAIiIAIJJsACzOy0CILSF64cKHUxRgrO0ra/Oqrr4r2H374oaWkS6IAACAASURBVMymkLoshnny5El39epVh0ymjbNnzzokrt8RzOznz593Z86ccS+++KLDI/n3eeRzjO9WG+f77LPP3Lx580wmV3bBSfrOWJcuXepOnDhh5//mm28c7uDSpUvB2fpxwfTjjz92o0aNch999JFxOXfunHHhvEhyGLG//vrr7oknnnDcOOAYGBfyJhFeyLMfs7FLhMdsQtSdmwhIhN+ERC+IgAiIgAiIgAiIgAiIgAiIgAgkiAAS/OjRo27YsGFu0qRJVilMhXSobeLEia5Ro0ZF+9q1a8tsGmm7c+dO17VrV7d69Wr3+eefu/Hjx7tHH33U9e7du2g/cOCAYx8xYoR76KGHXLNmzewc0WM4N+O71YY8HjNmjGvYsKFx4PyV2ZDOb7zxhvXlnXfecZ988omJ506dOplgz1ZVOIyQ+M8884xVxR86dMgNHjzYPfLII+6FF15wixYtcg8//LBxuvfee12DBg1cr1693JAhQ9zKlSsrM9TUfEYiPDVTmfyBSIQnfw7TPgKJ8LTPsMYnAiIgAiIgAiIgAiIgAiIgAukmQFU1whZp+vTTTwcX4du2bXOPPfaYq1evnluwYIGjQrqsjWrsrVu3uubNm7slS5ZYVfXu3bvdpk2b3IwZM9zAgQNdz549rQKaY5HY7733nkldJPiePXtsR4I//vjjVh1d2vmoFqc/c+bMMUk8ffp0E+7PP/+8VXaXJq6prEbOs48bN87xOSqr6Sc3EwYMGGAV10h9ZP2TTz7p3n77bVfZSvPS+s/rVKHDGLF93333ubFjx5p837Jli/WPsfEcRuzPPfecHbd582aroH/ppZfKaj7170mEp36KkzNAifDkzFWh9lQivFBnXuMWAREQAREQAREQAREQAREQgXQQyLYIRzQjips2beq++OILE7dlkcsU4fTv2rVrlru9fPlyk8qzZ892GzZscLt27SraqYBGBvvXRo8ebcIXSUzFO9Xa0Y3IFeJWXn31VTdy5EgT2PQP2c4NgZdfftlkOOfP3D799FMT+wh+qtHbt2/vvvzySzd37lyT9IMGDbJqdpzBihUrTN5PnTrVqq/ff/99d/HixWAZ3V7kI8GR8rNmzbIbCch6hD43H6hw9zcIJk+eXCTCqQinr/v27XM///xz5jAL4muJ8IKY5mQMUiI8GfNUyL2UCC/k2dfYRUAEREAEREAEREAEREAERCA3BFi8EVFJ1TGLObLznNeiCztSHcxijbxHJMiPP/7oyI/mNaqfiTzheMSyb+u7775zH374oevXr99NFeG0l3lePkulNG2xcwwZ25yHc/LIeRHIvF+WCOd9hDTH+3H93//9n9u4caPFi1ARzrk4B5XVU6ZMsegS+oxcpzLc702aNLHID/91ixYt3N133+169Ohhx5Kh7TfaZEHLVatW2fsTJkxwyO2//vrLHT9+3PLGO3bs6BYvXmxZ35kLSyLWOR9S+80333QdOnRwRKEglal879KlS9Hetm1bd/vtt7vWrVvba1SLI57hFGJjDFScE23DmJgfbiYcOXLEXiMyhZsGzC/SnmgU+shNA+JkuEFBZjg3BQpxkwgvxFmP6ZglwmM6MepWEQGJ8CIUeiICIiACIiACIiACIiACIiACIpAFAkhgpCaVvkhUxG737t1d//79LdIDKesXhESEUgGM9FyzZo1FXyA5qXq+cuWKSWcWhSTSo2/fvkXVy1RYd+7cuZgI57xIac5LHAnn7dOnj0Mak0GNwEaqszjktGnTLJOa+BKELLndCFqOKUuEI+j5vZqKbMZEtAnV2LRHjjUinGMQu0R+PPvssyafEdNUeEcXxiTjGz7+NUQ5spcqb46NVnYTBcPimghszkW8ChLfi3l4w+T++++37HAqqv2NBKY4U4Qjk5HgyG6yzJkHvxPzUrduXZsPXkM4Myake4iNKnnGzfxxTTC3VJ8T0UIsCjcQuNHAeakSX7hwoc07Y4AZlfMslFpaDEyIPsa5DYnwOM9OgfVNIrzAJjyBw5UIT+CkqcsiIAIiIAIiIAIiIAIiIAIikCACVA8jdcm7Rt4iMufPn2/V0QhQRDViF4l74sQJE6D169c3CU5UBwtOUrlMZTcCm+gPhDNZ0bSDLKWimOrgaEY4opT3yQ5HrPKczyJbyZVGsCLCOY7Pk+lN7AbHrVu3zjK8eb80EY5YJjcbcYtoZxyMDTHNOerUqWMiHElLnvUDDzxgFc2ce9myZSZ1kd6ca+nSpe7BBx80Gfzaa685dmJLkP1IZzbkOW1RHY3MHzp0qJ2LSnFEOdKftrlRwE0DHuHnq63pG5XzHJspwqk+Zxws8ImQpgrb7wj8O++802Q/r7GY5oULF6xf9A1JXZWdvuAmuNlBFTsCnzmg8hs5zw2J/fv3GzNuLHCjgip1ol+Q9sSnFPImEV7Isx+zsUuEx2xC1J2bCEiE34REL4iACIiACIiACIiACIiACIiACAQggNimShcx/PDDD5toRc4SfUGsBvIbqYnMRLBGRTjV1ORFI76phGZHBBP1QZX0M888Y58njoSKaSqDEdmIcKq4OS+VxlSWU61NO0SpUP1Nu5xz0aJFxUQ4MhhhTlY25/MV1iWJcCQ473NexoaAJu6E/pDxjRj3Ipwq6tdff9099dRTFuHBmDt16mTxIsSYIH6pfua1Vq1aGSekNCJ81KhRdh6mA/lMXjgV8rQ/c+ZM9/XXX9v79JcM7dq1a7v169cXRc5QQe2lOhXxCGbOmSnCyQhH1pO5jWSGo9+R+jVq1DApz2swQuDDiRsUiPmq7AcPHrT+cP527dqZ4EZ+M0cw4OYFc0k1PZy4OUAFO5XgSHr+cqCQN4nwQp79mI1dIjxmE6Lu3ERAIvwmJHpBBERABERABERABERABERABEQgAAGqqalMRhRTlUxcRzS+ArFN7AaV4ghY5LKvCCeiA7GLvGbjPSTzxIkTLe4DsY1QZ6NS/L333rPYE0Qtgvr777+3Y6nCJjubY2mDyuUdO3aYIEc20x9fEc6x9JH2oltJIpy+nz9/3iI6kPLIeB8VwuvIWWQtFczkj1PJjThGQiOzeQ9hjvynX+zcMECS+6+R9h988IH1keMYM+KdSnAq0aP9LEmE+zEwRsZFtTtV19yMyBThRKgg8qmy58ZBdIMfWeVI7+iGrO7Ro4erXr16lXbaIBediv6aNWu6Ro0aWV+ZMyJfkOxEu8AXNrDlBgfXFl/DppA3ifBCnv2YjV0iPGYTou7cREAi/CYkekEEREAEREAEREAEREAEREAERCAAAWIzEL9UcFO5SySHl8U0jygn1gNJTtUx73kRTiwGcpnqbjaf902FNBEiVEcjo9k4DzEnCHdEOF9TKY2gvuuuu0ycU0XM+2SEE/3BYotUFCPNvQhnIUb6GJX1tF+SCEdC87lu3bqZtEW8I2XZaIOsccQuIhyhTcU7QpeIDyQ2i1Eiub3cRnATC9KyZUuT3XxNBTk3CKhghwVimL7QHjcFoizLEuH0i/5SmY7s9n2PLpZZGRHOOI8dO2ayGmFd2Z02Pv/8c7tBwLwTMbN9+3arAmchT6JjqGrnxgUsmH9uJCDs+ZpjCnmTCC/k2Y/Z2CXCYzYh6s5NBCTCb0KiF0RABERABERABERABERABERABAIQQM4ibcnzRjqfO3fOhLZvGuGMDEaEE4ERFeEsAom4RZazeRGO3KY9Kqy9CEfsUq2M7PYinLxspDkymiryF154waJEiBPxO7IV0e5FOFniVG9HBTPnLk2EU2WNCCeyAynsRTiyee3atUUV4XyeGBbOixhfsWKFVXUfPnzYhD154ez0/7777rPn/jUeiVVhoUi20qqfyxLh9sGM/5RVEU5l/MqVK4t22NWqVctiSXidCBOqsZmTkBtxK/DkJsLevXttAU3yvznnli1bTIwTkTJ8+HCLUGFRVb7mGirkTSK8kGc/ZmOXCI/ZhKg7NxGQCL8JiV4QAREQAREQAREQAREQAREQAREIQMBHoxB9MnjwYIu3IBscgcpOVTMLL1L1TMU4ktdXhCPCEaNetiKZL168aDKW6uXdu3ebjOUcvI4spsraR6MgaokCQZpTde4rqGkH+U3VOI98PirCkerlEeF8FlFPdTJilpxrxDztUQWP9G7YsKGJb/rC+9wMINZkypQploNNdfjJkydtkUvEPQ6JXGyeZ+70t6ytMiL8nnvuMclMtTqLZPpoFLLSWcTU74jxO+64wyQ1r9FP5D4MQm5ehFM5j6ugcp+bAwhv+MGKnZxz+sSNBL6+fPlyyG4kri2J8MRNWXo7LBGe3rlNy8gkwtMykxqHCIiACIiACIiACIiACIiACMSPAOIZKUwGNFXfxGcgpZHDVP0SR8LijyzwWJYIZ2S0tXDhQockZ7FI4lCQ4LRJ7En9+vVNhCOkkdlUXyNMEe379u2zBToRysh25DjV6pUV4fSVinYkuI9HQSSzE+WBxL3zzjutD/SHCBZkPwtRInfpO3nciHTYsDdu3NjG4L+OPnJ8WVtFRTi533Xr1rWqdYQ4kSRkm9MnIlmIYfE7FddEzFBBz2v+ZkFp1ell9bOs97wIJwYFV8HCmESgcBOFawhW7DAk2qZHjx72NWK8kLeCE+FkC/GnAiNGjNAeMwas9lutWjUL++eumeZI12jcrgHujvONhbu7fDPhT8Hi1seK9ocfrhgTi2yQecYPRHwjr2g7ST+erDTunPMng9pEQAREQAREQAREQAREQAREIF8EqJBmkcZBgwaZ9Ob3MwQyO1XSb731lklY+ldaRbjvO1XAM2bMsApmfvcjKmXChAlW/d2uXbsiEY6kJVd78eLF9nsuMpzzkivNOalEp1/lEeHI9/bt25vYpmLbLxqJmEfY8rsXwh2hT0EkUSycgwUmkfEIcyrbkbnkgNPPV155pSgDm0UzWeyTzyN6aT9zJ4O8rK2iIpxYFyrWZ8+ebdEuRLL4ivDyLpZZVn8q+h6LmDJmFkkl0gYZPn36dMtM54bA1KlTbc7gTUU9/WXRUW6msAhpIW8FJ8KR4A0aNDDhinTVLga6BnQN6BrQNUCGGz9gcadfmwiIgAiIgAiIgAiIgAiIgAjkiwASGFm5atUqy+pGFJOrzaKIFHeSHe43FsEkIxpBi/zNjCmhIpnfcXif6BOcGFIZkUxlMNncnA8RTnQHi2YuXbrUTZs2zYQ5VcYIaeQz4pf2OT99Q1pTvY3gjm5r1qwpWsCSRSyJNGHjHPSRtmgTIf/iiy9aBvjOnTutb1SiUwFPRTfnJg8dSY7Mpb/khXMjgDFzo4BiNfKw2cni5nV2okGofi9tq6gIp/qasXAzgLbnzp1rFfNUhFOx/s477xTt8KVqfM6cOfbanj17LJLkVnEtpfW1pNfhSLvcDGBe4Qknqui5XpDixN9s3LjROFKFz1wjw7mGEOLku4euUi+pr3F7reBEOPlHSK/q1avbhUklpPZ4MEBE+blp1KiR5kXXZuyuAf50jD/Xuu2221zt2rXtjnDS///BN2jGxP8TeeQud9LHVNH+16lTp+im6Icffhi379PqjwiIgAiIgAiIgAiIgAiIgAgUDAFkPDIXyYtw56YA0p3Ka8Q3VeJUnBP5wvNOnToVvUZxU5s2bSyyhAiY0jZEODcDiDtBrBNfUtbGTQLytZHZ3DjgayQyNwxatmzpevXqVepO5js53kSphNroL7noVIXv2LHDInCo+EfUc+MDXkSk0C8kODu55uTCE5HCDQbkfuZNjFD9i3M7BSvCEa3+rowPkNfjv0H6+eLA/+QQ4WQX8Q85X/3QefN7HcSZP3dUiQ5BghMFwt3UOPe3PH3jm3+/fv0sW4072dw958/ryvPZtBzDXXP/VwES4XH+kUV9EwEREAEREAEREAEREAERSDsBqp35PRUBfvXqVas655Hqd6rREbjR/cyZM/Y1i3HyOyqC+NKlSw7ZXdpGBjm/+yGxt27dWuaxtIH0JrIFccxzX0m9fPlyi56hX6XtCHAq84mVCbXRD/qDmKdSn8U4yXBnzEh6ePH62bNnHXz8o3/Oe3y+ELeCFeFUDPKPQ1t8CGixzPjMhXpSMgEtllkyl6S/yp+NSYQnfRbVfxEQAREQAREQAREQAREQgTQQQNBevnzZBLgXzuUdV1RSl/UZqrqJTqEQDDnM15XZqF6nCjufm19cFG4V5ZXPfufr3BLh+SKv895EQCL8JiR6IWYEJMJjNiGBuiMRHgikmhEBERABERABERABERABERABERCBGBOQCI/x5BRa1yTCC23GkzdeifDkzVl5eiwRXh5KOkYEREAEREAEREAEREAEREAEREAEkk1AIjzZ85eq3kuEp2o6UzkYifBUTqutqK1olHTOrUYlAiIgAiIgAiIgAiIgAiIgAiIgAp6ARLgnoce8E5AIz/sUqAO3ICARfgtACX1bFeEJnTh1WwREQAREQAREQAREQAREQAREQAQqQEAivAKwdGh2CUiEZ5evWq86AYnwqjOMYwsS4XGcFfVJBERABERABERABERABERABERABMISkAgPy1OtVYGARHgV4OmjOSEgEZ4TzDk/iUR4zpHrhCIgAiIgAiIgAiIgAiIgAiIgAiKQcwIS4TlHrhOWRkAivDQyej0uBCTC4zITYfshER6Wp1oTAREQAREQAREQAREQAREQAREQgTgSkAiP46wUaJ8kwgt04hM0bInwBE1WBboqEV4BWDpUBERABERABERABERABERABERABBJKQCI8oROXxm5LhMdzVv/55594diwPvZIIzwP0HJxSIjwHkHUKERABERABERABERABERABERABEcgzAYnwPE+ATn+DgET4DRZxeYYE/+OPP9xff/0Vly7ltR8S4XnFn7WTS4RnDa0aFgEREAEREAEREAEREAEREAEREIHYEJAIj81UqCNJE+FIYgTx9evX3bVr19zly5fdt99+6/7v//7Pff755+7EiRPu/Pnz7u+//y6aXKTykSNH3NmzZ93vv/9e9DpPfvvtN/fFF1+4/fv3u6+++qrYe5lfcN6ffvrJbdy40e3YscP9+eefzlduc45Lly7Ze5wrc6M/P//8s/vxxx/dL7/8YqL7jTfecB9++KG1c+XKFRsP/bl48aKbPXu2O3ToULFxZLZJW2fOnHH/+9//Mt+q0tcwgis8r169WqW2QnxYIjwExfi1IREevzlRj0RABERABERABERABERABERABEQgNAGJ8NBE1V6lCeRDhCOwkc/79u1zp0+fdr/++mux/iOcv//+e3fgwAH30UcfmSz+4IMP3Hvvved2795tEvqdd95xW7duNfH85ptvutWrVzvEMpL68OHDRXIYSYxYnjt3rtu7d+9N50JsI6Nfeuklt3LlSpPRUYke7Rj9PHr0qIPZvHnzTGZ7Ef7DDz9YOxMmTLB+RT/Hc0T5119/bWOmDdp6+OGH3WuvvWayedu2be7YsWMm9T/55BPXsWNH99Zbb5VZFc7x9BnBfvLkSZP5CH12uGXuvA4DeJS10R7zM3/+fGPJTYd8bhLh+aSfvXNLhGePrVoWAREQAREQAREQAREQAREQAREQgbgQkAiPy0yoHyZ1q1Wr5ho2bGjV1NlGgjj+9NNP3ejRo13Tpk1NKCNxoxtV0YjvHj16uPvuu8/de++9rmXLlq5BgwbuzjvvdHXq1HHNmjVznTt3dg8++KAbOHCgGz58uJs0aZJbvHixiWCqtdmQ7h9//LHr3bu3W79+vQlpxK7fqapGUD/xxBNu2LBh7uDBg1a1zfs+noQ+I9Spvl64cKEbM2aMW7VqVVEbiHuE/oIFC9yLL77o9uzZU/Qe7dAX5PL27dvd+PHjTcpTFY4If/XVV407z9euXWt93bx5s+vbt68J/yiXzOccf//99xdVkLdv39516tTJmMEtc0euN2rUyG3ZssWaYlxUf3sW/vG///2vSX3aon+Mzb8XfSzthkFmP6v6tUR4VQnG8/MS4fGcF/VKBERABERABERABERABERABERABEISkAgPSVNtVYlArivCka+vv/66e+SRR1zr1q1dv379rPI7OggEKzEjCFAqwKliJoqEuJBevXqZ+EZqI9S//PJLq16mippKcKQ6Vd6ch43KZqrBZ86cae9/9tln7vHHH7f9sccec/3793d9+vSxvrRt29YENGKdY6ZNm2YV4Ehs5PFDDz3k2rRp45o3b26SmePY33//fWub95H2Xbt2NcmN3GZftGiRyWriRng+a9Ysd+7cOTsv4pzKeG4MMAZ2xjlq1CiT4lEumc8zRfjTTz9tLKkUZ9yZ+86dO127du2KRDjjGjt2rM2BHwuPMIFz48aNbZzMUfR9/xyW3ATI9iYRnm3C+WlfIjw/3HVWERABERABERABERABERABERABEcglAYnwXNLWucokkEsRjuCmopiKaiQ0srdFixYWAYKUjW5UUROPgjAm0mPFihVWPU5FNpXVFy5csCpthDkimagShCk54H6jspzXnnzySRPqiPJdu3ZZ5AeRJOPGjbOKaqrNiTShmpyd93ikMpv2aAeBjbgnQoVzUf39wgsvuCZNmljV9Ntvv20V7Mhz+sjx7FRscx7yx4lwGTlypBsyZIibM2eOSXXk+XPPPeceffRRk/3r1q0zMc3rU6dOdUuXLrX2X3nlFUccDHExxKEsWbLEDR061CrjEeuDBg1yAwYMsH7Dior1zJ1+M1ZfEU41fLdu3exzVH4zbvo8YsQIE+CTJ0+2sfJ6STtsclEVLhHur+h0PUqEp2s+NRoREAEREAEREAEREAEREAEREAERKImARHhJVPRaXgjkUoQjlE+dOmXV4ESEkPGNCKdi+5tvvik2foQ5EpxccKq5qdBGoPOZ48ePW5wJFc9I8RkzZphIRhCzaKbfaBORTOQJz8nhJkucinHE+6ZNm0xKI8qpLqe6mfPSBotE+qpyZC8S+YEHHrDYFCQ9sSkchxxnLFS5I/aJEYluzzzzjEl2+vzss8+avKZKvEOHDhbxwviR3vSBjHPk8z333GMyfPDgwcaKY6lER5gj06n8RnwTdXLXXXfZ5xHu3bt3t7HyPuelTSq7iX3ha8Q5bSHU2bwIR37DhMUx4YCk53Oci1gZXs/cGQ/xLrnYJMJzQTn355AIzz1znVEEREAEREAEREAEREAEREAEREAEck1AIjzXxHW+UgnkUoRTxU2VMtEay5YtM2lMdTSCG6Ed3Yg4oSKauBIkMHEdVFM/9dRTJsWRx2RgkxFOFTYV18jtaIXy8uXLrWqbym4EL8chmpHYRKrwHLlNLjhZ4rzOeTkH8tXHfngR3rNnzyL5iyQnMxwRTh+Q+WSDI5ejG1KaavMrV65YZfl3331nAp7M8vr165vwRs7zvq9eb9WqlTt06JBjAU5kP1Ep9J3cdLLKfa43ld/EsNAPbhZwHirkEdQcQ/Y5uelIa77mxgJjZrxsURFOtTycyV6/++67Xc2aNS3DHVFPFXl0Z8zkkfOZXGwS4bmgnPtzSITnnrnOKAIiIAIiIAIiIAIiIAIiIAIiIAK5JiARnmviOl+pBHIpwk+cOGFVyRMnTjRpTPQJQpzKZ0RyVGKTp031NzEjxHYQGbJhwwarikaKI5KRv1RRI9HJq45WKCOqyd9GXlNNThU2MploFKq9iTihH0hovkYws3/77bdW2T1//nzLBwdcVIT/+uuvxjIqwmmLHHP6+eGHH5qM9sBZxJOKcWJEELpEqlBdvnHjRlvsk/e5OUDMCuMhloS+kjvOopVIbAQ30Shkf0e3zIxwKs6R217gU8WNKCd3nA0Zzg0DBDtbVIQj4qkUZ5FOqs1pG7HPHLAzvuhOHI1vxxrL4n8kwrMIN49NS4TnEb5OLQIiIAIiIAIiIAIiIAIiIAIiIAI5IiARniPQOs2tCeRKhBM5QswJlcXkW1N5TVQKApuqcGJFzp8/74gdYeN45DEyl88R04FopjqanciTI0eOWMU07yOuqXRGHrMhqolCoQIa0d6jRw/L1kbGI3zJ0yannHztNWvWWPs8Ipx5nc+Qi02VOIIceU0lNNKahTrZObZRo0b2GgIdqU57CGSkMxvV5Yhw3kcuM3aOQ96THU6kCvEjxJO89dZbNi76TLU3jHiPxSp5j4puNsQ81e+0RRU37RKDwgKkPCfyhRxwbi4QnYJg52u/I9eJQvEinHHADY7MA5yR3JyHGwcsVArPfG0S4fkin93zSoRnl69aFwEREAEREAEREAEREAEREAEREIE4EJAIj8MsqA9GIFciHMlNVMntt99uQprKZEQ32d1kWFMFjfBE0LIhoKlSRtoin6mUprqbKu/du3c7IkbYqZL2QhiBTNUybSBuaQPRThX2yy+/bKIcsU5lOJXYXbp0sTzuzp07W+U0MSC1atWyzG3ORayIj0xBhNeuXduOI4+bvVOnThYhgthG6hNFwlgQ9WSFI5IR1D4ahYgWIk+o9iYOhn5/9NFHJrj5LP0md5zxcm6OQ+YTD0MFNhXvPjudqJcpU6ZYvAoV8hzTvHlz6zviHJ4shFmjRg0bJ1/7nf4i1ZHdHIMIZz7o6+jRo02mI+7ZeY0KceJX+AyvXbx40VEZ7yvPs/1PSSI824Tz075EeH6466wiIAIiIAIiIAIiIAIiIAIiIAIikEsCEuG5pK1zlUkgVyIckcuCjbfddptVhbPQIwIamVyvXj0TuYhdMq7ZEMKIbUQtgpfKZwQv+eJEnbBTAc2ijrRFZXaTJk2supzYESqyaYOqbl9RvXPnTrd//34T6JyHSBMWmEQCI9WphOZcZF9TbX706FGrBkf4IsKJGaFNss4R+1SgI88Ry4j3/8fefXhJUhxY2/+fEN57D4MZvPfewwjvER40eO/9gnDCC++FE8I7IcSRhCQkpJVZaV2+5xf7xXw5OVU93T1d1dXTN85JqitNZOTNqCrmiZs3wHBObpNatmu1tAAAIABJREFUgsvaAIyLYAGR/S1PXLa5HG7X7732yTynkUgYLnAOdvWA6vaRaa4dMsMBbSDf+q222qq4tmlrcR1AtcX1rrPOOiXapK7zCrhrGw3oSyPXok0m6gTVDRJY5Ji7P/W9V5OPgvSJRhnzozXmRv3IUwf6rScQDJAY5JhNJSB8Nt3tXGsUiAJRIApEgSgQBaJAFIgCUSAKzFYFAsJn650fweseBggHiWV5A7ic3SI7uKHrIh8b2ObCBnzFowDN4k9MmAmQX3HFFcVJLvqDWxqsdbwYEAv4DUJze6uvZl7LzQbMgWwxJDW2RLQIp7ht/lbkkJuoklOd47k6yxeXEQ6EK/YDOE1qCWoDm2JftEFdIlk4rEFv2efa7Hq43A0IOM4x3NcVdIPnAD1ATkcRJk8++WQB0a4VmBahApqLYHG863C9p512WnGxizvx3vW6D/bnlv/yyy+L5nLa1S9+RgSLdtVFFrsJReWz13Uc+ZzhwwK3cYSX7rXU/ScgfKm7pbmgKBAFokAUiAJRIApEgSgQBaJAFIgCiygQEL6IJFkxXQoMGoSDw+Dt+eef3+y9997FvQz0mqCyLuA30M1dDXraH5yu+eDgrAXA5cYGbjm3Hee93G/7cjtzKgPi6gCWwW/54VzPwLq8a3U7Vp738ccfX6A3/dsg3D4c0+oHfIFkoL7XZJkVhKuDa1uEiWtTBxAOUlvPQc3hLTdc5Aknusk1gW73QQwM2A3i00smOce7awLSuwVE5+imJygOuDsneG5gwXvnMnCgPpnkYlRqfIx4FQMBBg6Aexnh3cXghfsGfhtEaG93jcMoAeHDUHn45wgIH77mOWMUiAJRIApEgSgQBaJAFIgCUSAKRIFhKxAQPmzFc76+CgwahHMey8E++uijS6wJUAsKtwtYXrOw58+fX6A2IMwZLibEOm7n6tAGxUFzYBzANRmk65AHDlo7VhH/4RiAXNSJc3BlA8cgMjjMnV6dzW0QDlLbV643MA2Ei1HhnAa61SumhIO8DcLrdWn7t99+W6A0SO2aHQvSc4Xvs88+pc4TTjih6CKyBSg3MSdHOmjN9S7+RLu1gU7t4hrErADaXOV00i7w2mBBu9DCYAGHN7AM8puwU1sAfrEv4me6y2qrrdasuuqqi6y339tvv90+xcD+DggfmLTTWnFA+LTKn5NHgSgQBaJAFIgCUSAKRIEoEAWiQBQYigIB4UOROScZjwKDBuHAt0gOecgVCFdQ3W6fjGru5YMOOqi4tk1SKTdZlIrJJrmRQXWlDcLBZqD04IMPLhnZoDHXNmgsBkRutokp5YGbrBPY5gqXNS6D3DnAZwUI58I20eUbb7xRoDXIDaQD4aAwMA1iW+R4r7TSSj1BOFguY9wAAOd5BfvqevbZZwu4d7zziR4BtcXBOAbYdz2c5NoIwN99992lXaWh/99/HCMjXGwJCC4qZrwgHOh3Hq5xx3PIA/vdxUSZ7gmIzrHe3u4ah1ECwoeh8vDPERA+fM1zxigQBaJAFIgCUSAKRIEoEAWiQBSIAsNWICB82IrnfH0VGDQI50TmdpZrDXb3KxzKYjdAWdEdYDWADdTKpjYJpLpMSHnvvfcWJ7aMaxBbXjU47lpAc1nXALlIEXBbneoGtTmnTz755OIwf/TRR4sLu4J5bdx5550LIOZAl02uLSJAgHAu9BqzIs4EyDOZpHq1i0Pd+QBpGeDaD+QD1n/+859LXfa96qqrihsdIBeVwpXOwW2biBjtA/HpZQCAO9wggZgXGeQAtAEG+wDpYLm6OLyBcLBePIrtdRELA5bLFDcYIOpEVrnIGFC8X6Gpa+Borzr123dQ6wPCB6Xs9NYbED69+ufsUSAKRIEoEAWiQBSIAlEgCkSBKBAFhqFAQPgwVM45xqXAoEH4uBrR2emdd94pQFieNSAOdMvq5tIGpsFjER9ff/11ObK6rQFv1wNAiz8Bp9txIsC4yTfnzZtX6hVV0i7vv/9+ycsWF8LB7jwAvOgU8B2grjEqzqlNgDNQy8EuKgS0PvTQQ8siW5sbXnSJfcFx7TvrrLOae+65p7RR5AkQDWIDg/K8wWnrwedar3Nrj2uQKw6Qc3Rzi3Odg+/aD4TLFQf0HVMXznh55dtss00ZKKCVvwFxkSz9SkB4P2WWbL0BDX1s3XXXLX3Fkwm1by1ZzTPn6IDwmXOv0tIoEAWiQBSIAlEgCkSBKBAFokAUiAKTVSAgfLLK5bgpV2AUQTjYLUtbXAf3M2At8oQje5111imglzPbhJjtwh0ORnOH17zt9nb7A9vqtG/X4QyaWy/f29LeB8jWnna+uX3keYPVjgUyAfgaH2Kbc9kGynPGc42LbqkOa22weA+I294+b93GMa/9olOAblpwdIt84fSWpe5cNRoFGK/X4dU2OekGELjWAXD3Xhu7OrQ1CwhvqzF1fweEN2XgZ5lllmksBndSokAUiAJRIApEgSgQBaJAFIgCUSAKRIGlT4GA8KXvns7YKxpFEA74ysuuwFg2OBAMJJsck2McwAV4uwWUlsNtWxfwWqeutku8e3y/92JZtKddp7+tB66VCsNBZ4tt9VxANzjfdam3z6d+23sVbXceoNv10wLYlmcOnqvbOewDlnPRt4t2iFOp7nTRMcD+4lzINTu8fd3teofxd6JRhqHy8M8RR/jwNc8Zo0AUiAJRIApEgSgQBaJAFIgCUSAKDFuBgPBhK57z9VVgFEF438ZmQ08FJgupJ3tcz0YMcGVA+ADFncaqA8KnUfycesoVMJBpoHKi36sGTLsDt+owsGlg13bv66DqlDc8FUaBKBAFokAUiAJRIApEgSgQBQasQED4gAVO9eNXICB8/Fplz+lRICB8enQf9FkDwsencIWiYCko6qmRGoPkKY/uUx2Aqcl5ez19Aq6CtSYAVsdYRT3qdky3ePIE+PU6UfDbrWtJ3muj69DOyYLifvqC0J608fSMeK4KpLvtdbxtH374YSPrny69NOse5702i0nyZE8bolvv3nryx9NR7qWnfMwd0e+poVq/9kxWi1pHXqNAFIgCUSAKRIEoEAWiQBSIAlOpQED4VKqZupZIgYDwJZIvBw9BgYDwIYg8DacICF+86BWyAtuAqKgi8yC88MILzSOPPNI89dRTzXvvvbcQ+ARUzQNgP3+3i9ipxx57rEzIa+LdsUqNUgKEuwUYFlNVJxPubh/Ge7AXBDffgYmCtXeihb4guoEBoJm+YLY6H3744ea2224rkxSfd955zccff1yitbrnMEBhfgcTHZs8WfzUeNviWJ+Diy++uEwEbWBBsf7zzz9vdt9999KODz74oDnhhBPKBMkmjdbufkUddBkvjO9XT9ZHgSgQBaJAFIgCUSAKRIEoEAWmSoGA8KlSMvUssQIB4UssYSoYsAIB4QMWeJqqnw0gvDp+77nnnuaiiy5qnn766eLqbUsOxAKdJr6lyYUXXtice+65BayefvrpzWmnndZ4PfPMM5uzzjqrrD/nnHMacPbGG28sALVCT25kUPjoo49unnjiiUXcw8C4iXVPPPHEMsnul19+2XOuBe0DYo855pjSNnD3kksuWbCAvocffnhz8sknl3a0tz366KNlTofapva1TuXfwPW9995b2nHBBRcUHRZXP0hs8ED7zzjjjKLtqaeeWiYO9lto8b5qbh+aux8AeXdQgDubTrbT1P3g2gay3VdzW3z22WeLDEhop3sFoLtXV1xxRQHx1clNO3M/zJkzp9F31KnvnH/++eW9OTLsSwMDEnS4+eabm8suu6z0M/WZ4BnQ12/oo1+1Fxr827/92+Iky/YoEAWiQBSIAlEgCkSBKBAFosASKxAQvsQSpoKpUiAgfKqUTD2DUiAgfFDKTm+9swGEA5o//vGPm4MPPrjZaKONCiwVodEugCnICiqfdNJJZR8Aetddd23WW2+9ZvPNN28OO+ywAmQ5h0Fn0Pzaa69d4BauAPWrr74qoNT5gFOOba91Aam5nHfZZZdm7733LnU8/vjjZTuncZ1oWPtMyrvmmms2L7/8cmkfCFsXIL5CekC1rvf60EMPlXoGCcJFlgDahx56aLP//vs3Bx10UBlE0H4TIvcqXNS2GZDYZJNNmnnz5jXHHntscVrTHvQGtGkMJF9//fXN7bff3tx3333FRQ94t53edQDjpptuKvfH/lzjtXCZc+Vfc801zZtvvrkIRAex3QsAHcjm1nddIHoF4VtssUW5R+6rwRJt87nh6netJka+//77m7PPPrv0lyOOOKL8ffnll5d7f/XVVzcbbrhhuVfuU3vZZpttmu9///u1uXmNAlEgCkSBKBAFokAUiAJRIAoMTIGA8IFJm4onqkBA+EQVy/7DViAgfNiKD+d8swGEy47m3N55550bUBPUFklSwXVVmlP7o48+Ku5hTmAObO7iAw88sEBMoBx45WgGWEV4cBqDp7WoU93HHXdcc9111xVw+uyzzzabbbZZOS8gCmyvttpqBcprS3sR68FBDJ5zPr/00kvNGmusUYCzc6sfCNbWXotjarRHbdNUv4LZQPHrr79eoPXcuXPLQAOIvc8++xQIzwndC8I7tt6PAw44oFyDusaKGenVfvu7TvcJ/N5+++3Lq/vRLtzgBh623nrrArDdQ8c5Xvs48/fcc88C2+nO2W0wAiDnAAfPOcINjnBu6w8+M9zqgL37A4Q75s4772w23XTTAtTb98BgyX777Vf6Trtt/gbP9ZWUKBAFokAUiAJRIApEgSgQBaLAoBUICB+0wql/3AoEhI9bquw4TQoEhE+T8AM+7dIOwgFJWdpg9pFHHlliKYDlO+64o0RmtOUFRkVliCoRhQF+iuiQUw2wynwGornJb7jhhmbfffctsLvtLgfFAVHgEyAFV7mzAVf7cS7vtddeBYxzIAPvHMy2eeU65jIGWrnFd9hhh2b55Zdvtt1221IvwHz88ceXKBKO9fbi+lynWJZBFhpV97xoFoBYdvqrr75a9OVypp/okG5pg3COeZpPFIKrUxvksgPJHNVc3Sa7NFhQi3rFppgIk6vc+ejKZW8/7nLH0dn1cHUbiDBowtXt/oLkBi249/1Oize58sorm1tuuaU4wp1Tdry+4V66Tw888MBC1xQQXu9IXqNAFIgCUSAKRIEoEAWiQBSYTgUCwqdT/Vl4bo+DgwXcgc8888xCC2iyzDLLlH9w33rrrQttsy9I4h/+kwEGs1DqXPISKMBlCuBxOrb7KWAKBq200koFKHFGtre/9tprBRb2coEuQXOm7FBADLBqL++++25zyCGHNOuss04BiM8//3yBkO19fO7a7s4pa9CIVLS0g/Bvv/229FNA07X6/uUOFivC0dwu3MPiLmQ4i0EBrIFRERdAqgUAtx2AFd3hc+K4WsSfzJ8/v8SUANIgqGgMn6uvv/66/M01LUeam9nvAvANinOYA+3WaYfzgbIrr7xyyZjmTgbKuZ9lZpuMs72Iall//fUXua7atql4BeKffPLJMkgAyAP7rkubueTpIWZE3InrBphtq79dXqsjnBOehhNdxNyYqFSUylZbbdUA7wYt1OOcQHW7TvcdxKabgQXOdZ992oHo6qCziTDdd7nuolgMlrh/niJQ/4MPPlhgP5Bu0MJ1c+dXiO489Dc44fsRZDcII5bFtWob93p72W233YpWU3FvUkcUiAJRIApEgSgQBaJAFIgCUWAsBQLCx1In26ZcASBOVqlMVG4zTrq6yK0FwldYYYXiTqvrvQIxHHceeQdJUqLAIBUAurg5gaN2P9xpp51KVvJyyy1Xsn2BxfZ2ucRc46DXKBYT4mnfI488smABq3bcccdm9dVXL5AM8OTmrPuAkVyewPjSWpZ2EM7JDXrLr+b45eCtjuq77rprAaB1fzmEOX71bW5g+5nkUD8HLIFU23x/g611gLLdN0BwEy+C0lzDoCsQqg8BuICqevVHgyygsD7Gye17Hjhtl5oRDjCDyNoP/KqTI7q9gLdrr712Y1BKsb9BHJ9J51mShYOaUx4Mdg0GCVxfvQ7tECdi4MH5wXAObICZU1y7DQa0QbgBKPtMdDGIcPfddxeo7XvJvQKwZZUb2Gov7p37IX5Em/QDn3kA/6qrrirfc9aB3XvssUdZ57daXItXfcK1uq9c/a5XTjiQbvGe418f23XXXctAoQge5/M0gYEL/Uw7tcPvf3txTt+dKVEgCkSBKBAFokAUiAJRIApEgUErEBA+aIVT/0IKAACcYxtssEGz4oorNt/73vcWLCB4Xdrr/S1PFnQJBF9IzrwZkAJAOMjENdvti7WPeu1uA5NMnDeqIBz4AruWXXbZhRbXUa+nu22VVVYpwBEMW1rL0g7CwUtxFSYo5AAHagFjQBuABIp9NytiTeR7y5TWl8FnTwk4dvfddy+gE9T0JIRt8qTB3Vp8R3Mp+46XBe57Hlj3hAWIDHaDo8BwjQRxfpAYHAXNuZHbpYJw7bCvviiH2uApIN5e5JAbTDWxpuIcADzHOUg92YXzWfvp4HygLue7DG2AHAy2nuPZ+ehpnUkl6WBSTC56A8FtEA5Y02yiixgSOtR7QV/xJ5644koHsPvVSU+DG8C5CUrdc/qD8drob8e6r66Z+92TMFz87pGBaX3Bd8mWW25Z3Nyc/4A3B/m6665bBhLr+d0H4NyTCOB6XV9fZYvrRylRIApEgSgQBaJAFIgCUSAKRIFBKxAQPmiFU/8iCnAnemx6vfXWWwC+23Cx198cYxxnKVFgGArUrFvuxl79sd+66n4c1WgUYBP86tf+XuuBcC5yT2MsrWVpBuGgqPgLLmnw2yAPVzRoySkMagKjNVcaqHQMyOqpABCbi9er402eqQ7f454c0J8MGoGwCshrm31lUTuHfsc5fNFFFxWgut1225WnfrjKnV8dHM3c5oC9CRiBa5BWLIfoDnCbi1w7wFjAGww3iWN7sR6E9xuj34K8BoDUIQd7sot2aguXM2c0cGtAgV70BL0NnHFY188KtzsdueBFjogq4RSnkW2c4q59MsV3jDrcC9congT81haDBSBzvwLUizUxKF3vpc/A6aefXuJoxNwYDHG/XC/tXJvfYfcU7Nan3Hev3Pw1HsV1yp/XZwxouI+eMtEPDILY7r7Lcve3xWCAARCDI+1BlX7tz/ooEAWiQBSIAlEgCkSBKBAFosBkFQgIn6xyOW7SCviHt9xQmaS9wFuvddxr/tGeEgWGoQDIBOyAaSaJ69Unu+uARm5QQBHoGsUCWLWhb/cauu9BcGBS5MOowv2p0LmtCRi3NBUAGnAFkkHMm2++uYBMkR6yojmbgWJwVOFwBpBF5oCU4lDEaMi7BnnFgohXsR2Ylge9//77l9xwrl/9RLRJjUBxjMkyOdHFDTm/JyfAa6D1kksuKYBURIj7AILbhwNb1AYArf7qLAdrOa/FrrRzprt/cy8D18AqIOtvbufJLj7bwLwB2TpwUD/n/UA4PekBVNOgxqOA1PR2rYCwemgOMIPL/RYTkMpMB5cVx6lfVrj13OGLW+zHLa/Nvqs4yA1oGJxwj8XNuMfaIAvefdY/bHMvRLJwfztGH/LkAPCuPjobPBSzJKJFXe65e0O/uvjtF52ib9R18uF9z4D7KVEgCkSBKBAFokAUiAJRIApEgUEpEBA+KGVTb18FAEZwhrusRjJ0AVx9b7s8ZoDgN7/5Td86syEKTLUCIBPo49H/2h/7veqnANCoP7UAvoGYNZao3/XU9RtvvHFxif7qV7+aanlHqr6lFYTrw4CliYgB67lz5xbXNee1hXta/wZjAVGAFszmALav7SA4AGofUSr2B5k5uOVGA+WAOrcv8AlkckuLEBGnUeGuKBVPWogNEnMFbnMwayN4C476jhddYgJN8BgIF90CmIOrAK4McfVyLXOu65vc7RZ/13xx1+DzO5Wln8t6LBDe6/zgtWt1fdzt6qUHJzs9xY70Wmi0/PLLN6JEFMc5twE7Awl0WdwiZsyTK46jvagWLnvxLeC1ey1H/OGHHy5ucedx37wH7rnaOf7dX3DcoIV7Tn+Q3cCKthh8cV+dyyC27WJWLK7Vsdzy7rV17clWe2mWdVEgCkSBKBAFokAUiAJRIApEgalQICB8KlRMHRNSwD/eARD/4F5ppZXGhIz+0e8xa1m0XGcpUWBYCoBEJoqUm1vBcL9Xudqcqm+++eawmjep8/jsgZSyfRf32XOtICh3KCi5NJelFYQDrpzTBmk4r2VsizapC0gOGIPb3LgcwgCtwRJQkyuYs5vjmKNb3vXmm29eQKz9wEsOcrEg3L0mkATUwVHf72A5EEpfbmrw1TGiRUSC1Cz9NgjX5hrtIWLEwkntd6ALwrURgK9xJ/4Gv/XzQYDwfp+BiYJwcSomGfWkE820FxwGxukjcqW7APxgdD8QDizX+9E91nv3iZOc7m0QLiKFG9u5b7311pIHri8YNKu/ue6Tp0nElxhAEW3ie9EgB+e+et0L8Bsgl92uTgDdNn3wgAMOKN8nvlMManiCxt910UdSokAUiAJRIApEgSgQBaJAFIgCg1YgIHzQCqf+ngqAjP5xDMj1g4vWr7XWWuUf0FyKjkmJAsNUgPPxrLPOGrOP6qdAOCgEAo56AbTANxPajfXZ43IHFrk2a370qF/bZNu3NILwCi9lPIOsnsIBQ8HJuuivYitM5Ahkcu2615zVHNyc2/KdQe/vvvuugFIg3GSK4kHkQ4u+cNwnn3xS3MXq9rkBr2WD20eEhrxxsVgmmPSZAlUBYaUNwoFVLmWuZ3UpzsXJ3AXhfkMAb7EjFvXq22D6KINwGotCMXjGjV1BuH6o7b2KfVxjPxAObgPX/X4nrbede7wNwg00uN/APADuvtWJUAF0RXtNuOqpAE+JyPsG5d0ng9QGNgBwIN395Vw3gKa4Hr/fBlNcs4Vr3XeLSTj1EetM9pkSBaJAFIgCUSAKRIEoEAWiQBQYtAIB4YNWOPX3VQAYkRU7FozzaL4MUXAkJQoMWwExPnJyORj7xfgAU6CyyeVmAjAGNbk1ZTSP9dnjwAXMPL0Bwi3NZWkE4fouSA04iroQX9G9j97LdebKBczBTn0Y2JYNDVb7/uV4VsSS6DfiS0BQLnAOY/0J/AbfAVdAFRD1RIVJM0F2LnMTRZ599tklq5zbvDqOKwgH5gFw7y0VxPYD4fK+QVlOdwuHtdzyUQfhcstpB4TTxn0wWDEdINzghHsJRoPXYLbBEffafTRw5l7qB6JTxOBoK3AtK9z+fsfF4rhPok7kjVcQ3ut7A1A3aOE+9QP3vY7LuigQBaJAFIgCUSAKRIEoEAWiwJIqEBC+pArm+Ekr4JFsLrJ+gNF6eaPgSZ3IbdIny4FRYJIKmAwO/AG8e4FjTlWZyYDRTCiAqM+ez1a/z57rBLMMAsyGsjSCcPnZ3MZHH310AZv97iN4Ccjqw+JL5DWD0DKqQWtOcsAarAXWKwg3QCJmB2gXvXLdddeVAUswnJ7mgABM1c1ZLi7FhJU+S9oFnFcIqt6tt966OIfl7HN6m1BZ1Ifzypju5QgX92LiTNnlFhEp4Lj2jqoj3PWICwHwZW6LnKkgXDwJ1757110MCoip6ecIN5DhWDFG3WO9t168Sjcahcv8lFNOKZnw7g3YTUMDFxZxOPoCbQ00uJ+idNwnsFt+u37iO8X9NJghPsU218X1z3XuiYK6HHLIIeWcrknb6nq/8/0c8f36b9ZHgSgQBaJAFIgCUSAKRIEoEAUmokBA+ETUyr5TqoDH3m+66aaSVdwLyK2wwgrFaeYfydU5OKUNSGVRYBwKgHCc0SuvvHJPEC4qQnzETHlqAZwCnLgyub57wX3rANRnn312HArN/F2WRhAOKAKu+iVA2q8YGPGUgLgTYNtkiIAoB7DMe6DSPl7BbLEXHOH6EWezASCAVAY0l6+YDTD9iy++KM5ydYsNAmANvvisgO/VZa5dIjLEZYDnBmBAXZ875wHD9UNPXWhfe7JM7RPj4XwW1wDEapcIEOcaRplIRrjr4ZQ3KSbYDxJXEC52xIBEnYxUxnpdrNt22237gvD11luvDAaYwLTfYrBANnc7GoWDm64GnMXbuH90NZDA6X3yySc3d955Z4lOcS9tM4ANjOsL2uWpgjpJaRuEuzb30ZMFMsXr4l66VvXXdV5957iPKVEgCkSBKBAFokAUiAJRIApEgUEpEBA+KGVT72IV8I9/QAD4AL27QM4/lDnm8vj0YqXMDgNUAEgEgsSjdPuo9zvvvHPJLp5JTy1w7YKEc+fO7XlNBqbA4dkCpZZGED6ZjwR3MDe2viH6AhQFMjmvzz///AKoAdIKPTmA9SVxJlzf3MOiNsSrVLe3dqiD61scirxogLRdRLH4LbAPNzrwDboaKPUbwLEMmorqaINwg6QAfS2gvJgWMB9MF8syjAKEy9IH8z1FAcT3K1zQss5pXN3gfgtPOOGEAp9pRIfuYj2nNkc+l75S9a+g2fdUjZXp9Wr7fvvtV+qpMTYidGhoYLq6sb0XXcb1LfLJ94D9Fd9zolTULw5FOw1Y1IGN6nYXtaIf+P400OFe1MXAiLbU9/XV+Zb2iXmLiPlPFIgCUSAKRIEoEAWiQBSIAtOmQED4tEmfE1OAu8zkZqusssoiQI6rDdRIiQLTqQA3LLekgZluPMqKK65YogSAwTrx33S2dbzn9oSFSeq4MLtw38SfYigALvEXs6EEhP/fXQas9QvwEtgEJU1yOG/evPIEgegOsBI8bRdAVjSGfdtAte4DnqrLZ6QNyOv2Xq/6HgDvyQWuZP0RHK+TYoLg3SLjHMj3mwKiD2sCRp8nAwD6kTztsT43tnFNGxBoDygA/PTrp4/1XPYGGwxQKNY5twlJxaYA6mMV2+u+jut3LvuB2BWMd+t0nPvsHhjUaNfjPdDt+lKiQBSIAlEgCkSBKBAFokAUiAKjpkBA+KjdkVnxD1rAAAAgAElEQVTWHv+gN1kY8NYFcuCHR+hTosB0K8ARKQqgGyWywQYblHzc6W7fRM8PdImREGXR/dyttNJKJfPZ5IOzpQSEz5w7bWAKVF8c9J05V5SWRoEoEAWiQBSIAlEgCkSBKBAFosCwFAgIH5bSOU9PBUANj4dz23KiVignKsWj9u3H3ntWkJVRYAgKeNx//vz5zRZbbLGgj+qrMnc5VWdi4Uw1weFaa6210KSZBqU4f99///2ZeFmTanNA+KRkm5aDuJQn4iyflkbmpFEgCkSBKBAFokAUiAJRIApEgSgwkgoEhI/kbZk9jeLqM1mXCcGq23a55ZYrOaj3339/30ezZ49CudJRUMDj/iblM5lfHazxKoJBnMRMLXKAd91114UGobjcxV+A/7OljDoI9z0JAM9GF7TrFuPRr4jlmI269NNjqtfTv+aJT3XdY9Xnvo4V3zLWsdkWBaJAFIgCUSAKRIEoEAWiQBTop0BAeD9lsn5oCvzud79rLrroogVuW9EMRx11VPPKK68MrQ05URQYSwEOVLm+hx9++EIg3IR3f/jDH8Y6dKS3gfhnnnnmgslqPZWx5ZZblnzfOvndSF/AFDVuVEE4GAhEmkxSlI1c5qmCvuoezzIZibURPPXEj6d6ZGF3J5O17ZNPPlkkb7x7Pr8Pn332Wcmj7ubwyyo3UaN6POHgerrFOsfRsV2s18cN+HjtdWx7//bf9fqc33m77ar7Oqe6XetYmdv2l7etvsncX/VrR7e4JvXqN5MpQLTvN9nkdbLMfvW4Tueyf1freow2upfdjPm6vf2qzSZH7U6sah+TkX766adFV9r3079dX/6OAlEgCkSBKBAFokAUiAJRIApQICA8/WDaFfCP2ieeeKLETHDZrrbaas0111zTfP7559PetjQgClAAUAJ3jjvuuIVA+C233NIX+swE5Uw+ePfddzcGn3z2Vl999Wa//fYrkxJOBAzOhGsdq42jCsL1OQBZlvsZZ5xRIOLigORY11m31f4MdI61OP9k+gHgaeDIQIsne6699trG0wft8u677zYbbbTRYgc8Te74/e9/vzylAIq3i8FSAznbbLNN8+GHH/b8LIKk2gK+tq/FdfuNEXnktR+8bZ/P3+oAaQ1OvPrqqyVCqNuuegyI64mnn/3sZ81HH33UE+rWOk12+dJLL/UF+rXO7itwrv5eUUau8cEHH2xMIjqZ4roeffTR5rzzzmu+/fbbMasAy13DzTffvMighwO10+Sl4qVefvnlhe5Fr4rtu+GGGzYvvvjiIoMDJkxVjzlEtNFEpe1726u+rIsCUSAKRIEoEAWiQBSIAlEgClAgIDz9YNoVAHZMmskFDsbJKBZD0csJNu2NTQNmtQIc4Jtuummz/PLLN9tuu23z2GOPzWg9AEugaeWVVy6fPVn9p5566ox2uU/mhowqCOeuBRZ32GGHEhd1zDHHNKeddlqB4sB4v+WSSy4p4Nkg48MPP1zuKZgJGt9www0Fjl588cXNBRdcMOYiQ/7ZZ59dEFHB8Qu4qhM87rqXTWIJeF944YWNth522GHlnPR9/PHHF4KVIPmKK67Y9JuUtQJnnzkT1YK9rkexjQMZYKfN5ptv3tx0003Fudy9/9p04403lqUNYDmK77jjjtLGDz74YKG2devwniOfXnVQgvann356YzBM28BxbZCv397Hfueff35z1113FXjerZtTHFS3n0Ep8Hq8xW/k008/3VxxxRUFQrePo5G6TzzxxHKd7W3+rp/966+/vrRZu+vimugLoruPO+20U7km168feaVH+/7rqwYtDjnkkOa2224rAwDtcxpoePPNN5tVV1219Kn2tl5/v/3226V/+H+B9nns++STT5YBc32KZuYT8dRBnOG9lMy6KBAFokAUiAJRIApEgSgQBdoKBIS31cjf06KAf7CD4WABh+D2229f3HPjdehNS6Nz0lmpwE9+8pPmyCOPLDAHNOJanMnFZ49TdccddyzXtPvuuxcH73iiC2bydXfbPoognAMXhD744IObo48+ugDwCioX9wqMGqRxH32vbrXVVgVeyoM/4YQTCqi89NJLy9wMonB6LVzW4OwLL7xQ4CxwDTqKsTrggAMan4UutAWdOYgvu+yyZp999mnkzYPpnvgBm+0PQHPwgqJAOHevJxOAT+0FPcWVOKaCVe1zbnVrx5dfftm89tprBbIfdNBB5fXYY48tMLg7gAreO/aUU05p3OfqzAbzgXoDWtpIr/biXECr6BVQWPv8Ps2bN69oarABiLefaxIB42kK7Tn33HMLVDYgQAuAHLwVC+L8Bgvqct999xWQ7XfPNdT1/V61Ud8wKKBNrsughusxSAEcOxf9rNt6661L/7GuLu4FSG5gwHW4V+uvv35z/PHHl35CD479s88+u3zfAd+u5cADD2y222670ifF0bQBNY3cE33miCOOKP0DbK/FvedMN+imX3eL9nDuu7e0HA8I1wdBexrop5lcu6tq3keBKBAFokAUiAJRIApEgSjQVSAgvKtI3k+bAmAFyMBl5x/EKVFg1BQA8DgoPbIP4IFsM72AkMApYAYocVbOtkGoUQPhBgbFZICKe+65ZwG0+h7X7eIWedHt+weSivSpg41ip0BM+wC2HNVAaHfZbbfdCoiu/RsUFUdRn4i48847F3HgGlhRr1eAFzTVvxTrtI17l4v5jTfeKCAcFAVvOZcBWs5qQNXgjCcU1llnnQLUtZMz2e/Dv/3bv5WJarUJLAeYDz300OJWBspB2Qppndd7Tng6+PxycAP6m2yySTN37tyeC+jt3GA48Azcr7XWWqXdVZP2q0EAAw233377gnO3t/ubixoUp2PVct111y0Z/b5T5syZs2Bb3af76nOqLQbhrr766mbnnXcu0FtMiPfuI+3oBa5zYK+33nplnfUWAL8WmoP1tFYHVzWHus8Ed/dVV11VvhM8tQWGm9ja9wWg7362i/dgvLkU7rnnnhJbUrer131dZZVVeoJwESdAvScg3MN+INx9dU9Mri1DnA6c/eC9dqdEgSgQBaJAFIgCUSAKRIEoEAXGUiAgfCx1sm2oCvhHMrgiUzbOrqFKn5ONUwEwB7QD3WT/toHjOKsYud04aDlDDUKBXpyb4OFsKqMEwmkPBIKOnNe33nprAbh77LFHgeLA+FgLF3A7sxoIl7EtaxwIVh8wrIjBAdu//vrrhRaxJ9y/3La1AJPcz0AlQNwLhNd9vXZBuHMClaI27r333nKN1REua7s6toFZQPXjjz8uQFXbxYpwKMuhlgsO+IK03NEGo+zvc+lauJrtW2NUtIWmnN3grSxxLmjXblCAAxmg7i7OyYkO1Ps9Gi8Ip0u/YjACMHdOi1gibdlss82Km53udVu/V987jvNUAAe6XG5aueeAvXtJZ9djwAMoN2BgXV20oRZOanEn7ovzc+O7z7vssksZKPA0wV577VXeg/Vrr712yWTXH0WntAtIzdmtDTRrPzFgvcEdINxASB2oqMfb3/eQJyBoXwdK3Nf2vr6DueVFqIHu6nWs66/9utaZ1ygQBaJAFIgCUSAKRIEoEAWiQFeBgPCuIiP63iPjDzzwQHFieUx5aVwAD/AF4JCxurRdIyckSNUGNCPa3ZaoWaAWd97Sdv9cj5gJ0ShcmkCa9zP9OkEynz1OU3ALFOZqBcVmSxk1EA5YeuIAEOSsFZnBMe2pGeBU9IR+6D5xR4POvl8AVe7Y6sJ2/4BwQN3nkpsaOK0FGAfVuaXbC0AsMkS2di0GTPQJx4vR6AXCAVbb1WWwiNvZZ8QAi3YBoKJZgEywv2aEA6ec3cCubZ5KAK3FjMgIB785uOWJg6+yzsFwABjkBko55TmKXe8PfvCD4ijmLq8FQAXNgfCTTz65/Na4fm2rizpds+sUu+EzATq79grCZbTTh97apD6lOsLHAuG1LdqrTvfNbx7HtjZxZrveXgsXe71Wjmj7cGYD2VzmolBsr8XfoklAbPv2K9pgAMH/X9DQgAmntevwfQBMq9+gQO2D+iF3vvWu+6GHHiouc33TQAmd221xbv8P4/6bmNdgt+tvlzpQot/4POrXK6ywQunrdLbOYoDI/yOoR3usc8+tB/7b8L1df/6OAlEgCkSBKBAFokAUiAJRIApQICB8hvQDLq3999+/WX311cukdiaVzDKzNOBgAz2W9tgX0AUoS/+cWf2z3i/wCfQCFWdLAdPq9QPG011AWy5nrmAxFgYGgUrruaLBRtC0RoloLwgo5qMbSQESgqEANeDJRV0hpW1gs/rbC9AMnjtnu3DdjgXC/U5pm0xzE1iuttpq5W+QV/1yyZ3T0z9tEO66xJs4p4kW69NBoKg2cKOD6hzqBhN9xxhsk82tuB4AF5QGZbVfHjUXOKj9+uuvFzeyepwHwAVTwdyTTjqpQGht5IoGvwHbp556qnwO9AdAvYJwbTIIZnJn8Rz0VLixua85tZ3PwuEM4tf31bXMwcxpbkBD1Ay9QHlu9u5iGyc2+Aygu1b6AODqNujgaQ6ubm21zeJvAweiUFxjXe8VVOcYd12APthtIAL0V6drdT3aBDCL5RH7Uh3gXNiOMWjgnmuDQRb7yJane7cY3HAvDX4YSHD+blGvz6L7q10mJeZMN+hDb4v+qp/b5nxy3us21xUQ3lU176NAFIgCUSAKRIEoEAWiQBRoKxAQ3lZjhP/2D0tgAaz53ve+V/4R6B+CWWaGBu6ZeyeHtRcAGOGuN+GmASIVKi633HLpozPoc7rssssuuHfiK2ZLGTUQDniK3eEMB109dSAiAuSzcCtbxynr+8Q6UNxvBCdtzXkHTYFn8FaMhFcwGXhWPygKDvu7vXDngqjqtL6WxYHwup8IDC52mdeypV2PqAugG9AV79EG4Y4DhwFVLniQ276uD5S1LxDOJS9exGAA9zvo7Rq1F2zmNAawrVPkRwPEssA5iLnRa+H+Bljrvtar1yAQuG0giJ7azVldQbj3dV9A1vkU4FgmtwFP3/MW5zQYUN+D+Nz6IL3BCduA3Xpfe70aOAXnRdq074U2qcfTKcC/fmJy0n6LwUkaevUUADe5gQTHyRF3ryx0pYuBGHE1HP3+/wOQpq82cHdrd/uJARroezTj8O8W91w+OxDOVa/t3eL69Un32fUalOtGo6hb/6Ad7Q2ApESBKBAFokAUiAJRIApEgSgQBcarQED4eJWa5v3aINw/oP2jPMvM0cAEY7MNhIMrYGr66czpp9yfdRAjIHx6vvRBY25hENhTQCAqQMn9ahJCy+67717gKBALGFu39957l/xlMBakNCAFiAPhNSNcZAgnuWgN7vBan4iJ9gIYc0xzI4OX4LMyXhDO1Q2cmlwSTJU5DQKD4yZk5ERug3Bg3m8cOM3JDHDLogaAxaWYABJAFdUBxnLKA672cxw3M3jLcV4jRLTXeQwmyAw3CDAREC5qBEDXXtc/FggH08WKuEc+Q86nHe4Tp7n3dR3Q755xyHNri0Whc7/FfQB92yBcH+He5mC3zVMAIL5z9lpcA7DvHPQTO8MZz93vt0nfMWhgMShUQThHuIxw791LE6hyrOtPgDtnd7uMBcINIIhhMtDATV7d5e3j6SgyxeAJ93gvEO5a9GNZ4yJtXEdKFIgCUSAKRIEoEAWiQBSIAlFgvAoEhI9XqWnerw3CPQacMrMUAA5mGwjnjOQoTZk5CgBZAeHTG40CBgKSQCBwKH5DhAbIKy4CWAU0xV2ITakLOGjwyXcNoAy4cssC4eAlty3H9fz58wvsBCQdwzEtXkI9toHVBlsBc3+DrSIrlMWBcG5hIFNWNIjNfcxRDK6ClvK/AWMgtw3CgW0DL9oCdIKb4jG0CYgHjV0b9zLHcAXhYL6YE7AdgOaUB/97Fcd2QbgoEzpxqVu4pMWQcIRb/C0vm3ZArnvBiV/3dX0GFWz3Gw3U26a4j+A7HWtxXRz5BiC0lb7ug/vSb6ElJ3cF4eqlkf4ApHOdg9wiYOR6y2KXHd9dtMPghPaD4a7P/Tdwoh21qAP4NpeFfmMQwr0wIGM/7ddWgJwzu13aINzgBue4++1v997/u4iOMcCjj3K1u55a9AsQ3MCJgRlPFHUd4bZph2uxj6cPUqJAFIgCUSAKRIEoEAWiQBSIAuNVICB8vEpN834B4dN8A5bw9AHhSyhgDh+KAgHhyxRH8lDEXsxJQEEQlvMWFOduBqQ5psFI98qkhCCsYtAJMOVkbkdotEG4iRHBbjBdvSIoAF6wFUAGmbl8wUpAUt43mAtYKosD4eCp+rjZ5W+DpXKyAVNAW9yG61K4koFjQJizG+wHzOvkk/YBSSuErtcGroK+Ijx22GGHMihgwMBxtolJ0Y6qSzlZ0xSI3gXh6qiueK/c5+uss06BxIAr0K2d2lFBuEEC+4K5toPQ7o17BRpzp9e2d0G4WA9ObvfTIAV4zx09VqE5538F4fTjuBeHYkDEvCE0lO1tDgqubQ5vf7cX4BhY3m677cqAgH5gMMV6gwS1AOGuD8DWT/SfsTLC63Fe9UmaAv4c6lz0onfEwdS4G/3X76F7JpqlPm2gb+tzBkS0S9a4SLEKwt0D91b/BNSB9JptDrSnRIEoEAWiQBSIAlEgCkSBKBAFxqNAQPh4VBqBfQLCR+AmLEETAsKXQLwcOjQFAsJHB4SDxuCm6Iyaew0aArMAJdjJjfzHP/6x9A8Z4J7CqJnVtdO0QTiACr7KaAbCTbgoSoNbm8saEAcZRbOA7BMF4fLKubPBStAZdAV/gfSu+xeolguuz/l+BF/B0wpGtR/gdH1gs2iOc889twwEiBkxyaRzgPlAtPoAcFnUXMLqbpdejnBOeMcA6BYwW+Y2CM7BTCOTkFYQ7l4A2RXGA7ZgL1Bsf/U5VnFMF4SD2K4J0LV9siBcfruM7do/gHD1yikHjvURzvx6Xf4GoEFzETX0so3egLQYnVqAcHEs+gPHNWA+ERC+0UYblXx5TwIA9eJXaKPPebrAebnVnVO/qxnf4Dm3Opc+XezTjkbRL7RX/9L/ZadzrutrQDs9U6JAFIgCUSAKRIEoEAWiQBSIAotTICB8cQqNyPaA8BG5EZNsRkD4JIXLYUNVICB8dEA4h7b4CmAW7FWAVODWeo5YABTwtR4clqttXbsA4WJKgEd50FzX4jtEXXB+1yxyUJGbmEMYaAS1JwrC/U6pD6DlAAbCQcpuAYJBTREbYi4AUMeA/4A597U2gJ7arW0yoefNm1eguOgYIFz7wN9anJ8jXmQKsNouFYQDps4jWoRjnbO6LtrC5S2/2kIjrmXw1j2wv4EDhYOZC5/+ALqYEREuXPVKLxBeNrT+A/g6h+P6LWC0AY7qCFcvt7aBCoMfYL17br22qFOUSTsypPYP0S51oMT+roEOXRDOGe94QFx/cB8MAnDBG4xwrfLTRdfUAsSD6O6T44BwTyDol7R3P703YPHxxx+XmB/9sQ5afPPNN2Vgx0CC6zLgIBce2HeM7fquc4t2cQ9N1uk8MtLbT0HUNuU1CkSBKBAFokAUiAJRIApEgSjQVSAgvKvIiL4PCB/RGzPOZgWEj1Oo7DatCgSEjw4I950vJgJ85coFCOsCMsvTBrntw+Ur39rEicAgiCg+hIvWPttuu20B1P4GTbmDgWTQVKa0YwBZwFk9ACcXcBuEA7zec/ZyFptI0blByToBI3cvlzmIb1sbhAOVID6HtTa4Bt+L2gAyg7LgLEguAxuk1y4uded0bXQAwYFUERxiSADYWgBp9XJm1/kJ1EkHIBbgBdzFdQD2Yk681gWQd04OdNdKe0DdhJvOBQS3o1ucF5Cmv7rkjRtAUJy36wiv7ayvrt11uC/9FoCcG76C8HqsV87vNgjn/AaH6eqaDBLQpxcIr/XInQeuXbMF6KaT6+fSp6V74TyuBzjXVpOVtkE45768dsDcgIKBBFobdBFh4jzc+toCYnuawXpgm8Ndf7e4Bm12j4BwfUVkCme5/umpBoMo4Hid3NNggb8NWKREgSgQBaJAFIgCUSAKRIEoEAXGUiAgfCx1RmhbQPgI3YxJNCUgfBKi5ZChKxAQPjogXPQDwCpH26SI7UU2tkkOLf7m+AYqTZwIUFYQCTyDliY9bBcwF4AFrRXQe8899yznq/sBucAm+MmlzTXNBdxvAdTbhfsXCHcdACWYyenNyQ68Oh/IDTR33bzObZ1XhQtbRjiwqgDT6ga9Hc8tbAFLRX2AuWCpApgCwmApbcSpiN0QywGq1nO4RgCfFlzTAK3MbxEhr7/+egG5gLD3iuMAdtsMSrg/YCyQX7ePB4R3M8LrtWs3IEw393dxINw5acYtTld9wMBAjY0xOWnbEV4a2TTFla/tQL5Fe0SYcN+D8LRoR6NoH63sB7rXop30BKvdLwMxBkj0UQMZBl/ahY6uybXpW9VJX/epIFw/kiEvZsVAhWuqxfXarj+5B9z7QHtKFIgCUSAKRIEoEAWiQBSIAlGgnwIB4f2UGbH1AeEjdkMm2JyA8AkKlt2nRYGA8NEB4UAokO27X852e+Gs5azmCAYUOXnBRNARDAaFHQsKTgSEA45Ap4Vrl+OXI7hCYgC631KznmvHrSBc+7nDDzrooOJMB0oBdqAToAaTna9b2uu6INz1gauiXLjdTcwJ5vqbixkw59RWgGk6if8Ah0VxOF6MSLvNgDZYTkNueRnsQC+wzNVsMIHONYqFJiI8OM1BYW5w22q7vU4GhLvvgLwBBPdY1AuAb6Ch1l21ajvC6zpw2D3iiFcPp712cWCLWOGwbhdaue/OZzGw4L2BEtE1+lcF4Vzx9KTtAQccULbXukB7rnBA3MCHe8xBD6pz+OtP7WJ/fVqMiz7htT34UUH47rvvXrQH97WlDjTUupzP95Z779r0+5QoEAWiQBSIAlEgCkSBKBAFokA/BQLC+ykzYusDwkfshkywOQHhExQsu0+LAgHhowPCx+oA4Cw3N/czJ6xJGzl4L7vssuLEbR8LINreLhzhc+bMKREq1gOmJskEfIFR8FxECPjLhduFj+26+v3N4SueAxzlBFe3/mUiTrB1IjEWXRAOQgOlomJAdoAWeH/ggQdKzAbwC7Qq4GptgwkmbQObu8VvrDxqedOgNuitnUAyGG1QQN551QJw5ZYWb3L99dcX+Azq1wJay8a+5ZZb6qpFXh3bdYSrV7SN83Fku3fgPt26pRcIt4922Obe6x8GAfQPmdwm92wX976d426QwPUC3XUiUvuA1eJSaKTdBjY4vtvFNdPbAIx+5H5zgos76VW0U8yN82hX283NUe669emaG97Wt9bn/oij0RagvNc+dd+8RoEoEAWiQBSIAlEgCkSBKBAFAsJnSB8ICJ8hN6pPMwPC+wiT1SOlQED4zADhwCT3q+8VjltxH4ChiQm70PGRRx4pkxi2OxonruiPmncNvproEGwFd+V/g+DyoOtkhe3jx/M3uApuApXq5yIGoLuu5vHUxQHPeQ2aDrqAsZZ2O0VuiBZpF5EjIC+ICzr3KjUnu9c264D7a665ZqHNFYTL1ObyNyAB9IO83QIAG8Dowm37gfhAuj4iVoSD3mCEez9W0bfqwAW3tVL7B1e5/mTyTO02QNGvcNtz3Y+nVM3b+zrW+Wjbdu6396l/u1cGPtogvW7LaxSIAlEgCkSBKBAFokAUiAJRoK1AQHhbjRH+OyB8hG/OOJoWED4OkbLLtCsQED4zQPi0d5Q0YCQUMMhgcKA7+LEkjQOVAeV2TMmS1Jdjo0AUiAJRIApEgSgQBaJAFIgCo6RAQPgo3Y0x2hIQPoY4M2BTQPgMuElpYokyWGaZZRqLyInZUn74wx+Wa3bd3Un9ZosGuc6ZpwBgLSYGtJ7KAoa3HfFTWXfqigJRIApEgSgQBaJAFIgCUSAKTKcCAeHTqf4Ezh0QPgGxRnDXgPARvClp0iIKxBEeEL5Ip5gBK0Bb2d29sr9nQPN7NlHUR80577lDVkaBKBAFokAUiAJRIApEgSgQBaLAhBUICJ+wZNNzQED49Og+VWcNCJ8qJVPPIBUICA8IH2T/GlTdALi86sXlX7fPz0Ute1pOumiRdr40AG1SzS+++GLB5JjtY/1tf9EkbTe2v9v1APTO8dvf/nah9fX4fq5r62V8W0z+2G+/bpvyPgpEgSgQBaJAFIgCUSAKRIEoEAXGViAgfGx9RmZrQPjI3IpJNSQgfFKy5aAhKxAQHhA+5C43JaczmeP+++/f3HHHHeOuD/w2EeicOXOal156aSHg/c0335QJKg899NDmq6++WqROYFokiQksnVux7q9//WsB1/UAEPv5558vE0v+/e9/r6vLvt7b3i3qAfbPPvvs5owzzmhMOhpneFelvI8CUSAKRIEoEAWiQBSIAlEgCkxOgYDwyek29KMCwocu+ZSeMCB8SuVMZQNSICA8IHxAXWtg1QLHf/rTn5q99967ue2228Z9np///OfNlVde2ey+++7NO++8s5Bj+/XXX2+uuOKK5rTTTmt+/etfL1IniP7mm282J5xwQnPPPfc0n3/+efPdd9+VY2699dZG3QrYrU0HH3xwcYZb9/vf/74A+HPOOad57rnnCuR2DY4Dvk8//fTm1FNPbbbccsuyHH/88aUdtrUXED8lCkSBKBAFokAUiAJRIApEgSgQBSamQED4xPSatr0DwqdN+ik5cUD4lMiYSgasQEB4QPiAu9gSVQ9QP/TQQwstDzzwQHP77bcXaHzsscc2Dz744ELb6/7PPvts8+mnnxbnt7/PP//8Zp999mm23377AsTVAy6LOwG3Dz/88ObAAw9sbrrppuIO/9GPflRef/GLXzR/+MMfmnfffbeA6VNOOaW5++67SywLsH7yySc3l112WfPJJ580v/vd75qrrrqqnAOs9/6JJ55oTjzxxEZbtYPbW5zKUUcd1ey3337NpZde2syfP7+074ILLijvrauLbUOZp+kAACAASURBVNtuu21z3XXXLZGWOTgKRIEoEAWiQBSIAlEgCkSBKDAbFQgInyF3PSB8htyoPs0MCO8jTFaPlAIB4QHhI9UhO4258MILm1122WWhZZtttmnWXXfdZpVVVmnWWGONZuONN2523nnnsrT3rZD8j3/8Y7Pnnns2G2ywQbPFFls0W2+9dQHLm2yySamXA/yiiy4qYH2rrbZq5s6dW5bNNtusWXnllZv777+/gHDA/KOPPmrOOuus5rzzzmt++ctflkzxiy++uAB0nyUZ420Q/tZbbzXg9o477tg8/PDDJfbEJQLhBx10UHPuueeWPHGZ4v0WOeh77bVXcZ935MnbKBAFokAUiAJRIApEgSgQBaJAFFiMAgHhixFoVDYHhI/KnZhcOwLCJ6dbjhquAgHhAeHD7XETOxuILTO7vfzkJz8p4FnEya677lpiRWR3A9rt/USSyPM2CeZOO+1UYDdQzeEt2oTTevPNN2+efvrpEk8CSvvdVY/lsccea1ZbbbXiOOcINzGmjO+6nbPbYvLNF198sdTrnG0QDpa//PLLzVNPPVVguixwBQg/4IADGjB+3333HXPhYl9zzTWL63xi6mXvKBAFokAUiAJRIApEgSgQBaJAFAgInyF9ICB8htyoPs0MCO8jTFaPlAIB4QHhI9Uh+zRGpjYQ/fbbbxdntEiRe++9t0xKKdf76quvbt5///3mb3/720I1OA7E3mGHHZobbrih1FGBtggUznKO7UsuuaR5/PHHFzr2pz/9abPqqqs2jzzySPPaa681Pivc4Z999lmJU3Gua6+9dkHsiZxved8A/frrr19iVMSmzJs3rznmmGPKebRfAcLFsBx55JEFuIPu/RbnF41y+eWXL9S+vIkCUSAKRIEoEAWiQBSIAlEgCkSBxSsQEL54jUZij4DwkbgNk25EQPikpcuBQ1QgIDwgfIjdbcKnArK5urm4OavFkOy///4FNr/66quN5cYbbyx526C0zG+54PK5ubXbIBz4rgUMv/nmmwuwlvNtgkvOcJnejlOAcNEoALVz2w/sBsO1h9N8u+22K3ngYliOO+64ngsIDnqLWrnvvvtK3RWEO+aVV14Zc+E2F61iMs+UKBAFokAUiAJRIApEgSgQBaJAFJiYAgHhE9Nr2vYOCJ826afkxAHhUyJjKhmwAgHhAeED7mKTqh7ABou5rk1Sec011xQYzNnNcc0RbvJImd3gNcAsYsQ2k2IC1998802JMqmOcHX8/e9/Lwu47nhOa/uZONPklI8++mjz3XffFYBuos4VV1yxefLJJ5u//OUvJTaFK5vrmxu9gnAAXn217u6ruBR17bbbbguBcNEoHOlg+liLNnKmm5AzJQpEgSgQBaJAFIgCUSAKRIEoEAUmpkBA+MT0mra9A8KnTfopOXFA+JTImEoGrEBAeED4gLvYpKo3MaV8bbElHOCHH354AcHPP/98yeQGlk1YKXsbLAelf/aznzV33XVXc9JJJ5XJJb2KFakgfM6cOaUu9VlMnAkyA9WffPJJiU4B2N95550CtcWhLLfccsUp/o9//KNAdRNa/upXvyrnqyC8W2+tv77K+JZlLg+87Qg3WSao/vHHH4+5fPDBBwWixxE+qa6Ug6JAFIgCUSAKRIEoEAWiQBSY5QoEhM+QDrA0gnAOPwu331QVdYETJlUbpRIQPkp3Y/JtMbldneBu8rX835Gcpiba8xkYlRIQHhA+Kn2x3Q7xJEDz3XffXSJJOLB//vOfN++9917JAvcq1/u5555b8Pn85z//WRziYDP395133tm88cYbC0D4IYcc0ohHsYhTOfTQQwsIB8o5uk3CaZ28cfBZ7Mqyyy5bzqE94DxozYVuUs4KwtWrvlp391VbzjnnnGbrrbdeCISLSwHLb7nlljEX9W255ZbJCG93kPwdBaJAFIgCUSAKRIEoEAWiQBQYpwIB4eMUarp3GzUQDjjLVfWP/zohmXWyWEGE8RSPsH/11VcFXKtrKoo2yHCV5zpKJSB8OHcDVAbA2v2pO9iij4g2EIHQ3k8Lu/u2W+24zz//vEyOV/OG29sn8re6OFYfeuih4iydyLGD3DcgPCB8kP1rSev++uuvy+eGS9vnXHQJcPzmm28WQG6CS78riu1+Xzi5AXC/oZzc1REOKNfie0BGOEe47cqXX35ZssI5zV966aUSr/K9732v/G1/g6233357c8cdd5TfmwrC1dP9Xqnn8frXv/61XIPYFpD+X//6V/kNPOWUU0q++M4779wcccQRJdpFFriYFHD9qKOOao4++ujyaj2g7vd2lAbS2teZv6NAFIgCUSAKRIEoEAWiQBSIAqOoQED4KN6VHm0aNRDuH9+A94MPPlgyW4E9/6B/4oknSv5pj0tYZJVj58+f39x6660LYPoiO01ghTYAEAcffHBxB07g0IHvGhA+cInLkwXgl89Ke3AG/KoT3mmFv7k7ASv5vbXoP1yevRzftW+de+65zVlnnVXiE3rtV+ta3KvPzw033FAyjMc7cLS4Oqdie0B4QPhU9KNB1fHFF1+USSJFlogwOeOMM8qElICwWBGTVALTPl++B3784x+XCS05rcWo+OyPF4T7fPtsAuLguuNFo/juUDzNceKJJzZnn312iWSZLAhXD6D+wgsvFMf7VVdd1fz5z38uznMud9832lDjWHxHPfvss80999xT8sr97qZEgSgQBaJAFIgCUSAKRIEoEAWiwPgUCAgfn07TvteogXBAQQTJkUceWVxtADT4eNpppxXAN5Zg9vvwww+befPmFQeeSc38Yx9k7Ld4BN05OXnBdoDg1FNPXWThqttggw1Kvb22W/fKK6+M1byBbAsIH4isC1VanZYnn3xy86Mf/ahkCusvog1kBYswUIAkMQlcluJJFO5OE+qZWA/wAsHAb4DqzDPPLMBN395qq61KpIG8YRDOtvbyzDPPlPr8h0tVREKvfqifcnWuvfbazQknnNBzH0Bv2CUgPCB82H1uIufjAP/BD35QokV8dn0mjzvuuPLbICrlxRdfbN5+++0ywHXxxRcXaO7z7LPuuKeffnrcILwOfgHQwLSoFJNlcpgrMsv33HPPMpjLoV5BuAk8ten444/vufjdkwe+2Wable8hTy+ZOFPbudS5wQF430kyz11j/T77xS9+0bguzvcrr7yynAeYNxCQEgWiQBSIAlEgCkSBKBAFokAUiAKLVyAgfPEajcQeowjCTRK2/fbbN9dff31xYvvHu5xTE5r1KyA4YPHDH/6wuGFBAxOf+Ue9eizXXXddmQjNo+C77LJLgQZiJMBJxwOWAKXJwrrL5ZdfXgCDx8672+p7dQ27BIQPXnHubrAbzAa9wCODNWC094C4aBPASqyAvgs2cYgC2MA2aA1IVRAOWnnCwLH6KAil73rfXrg4gW19txa5wvfff3/PfqifGgAyaFOBXe2f9RX0G3YJCA8IH3afG8/5OLwNYF100UXF+W0wFKDmAq8gnDPawJe8bp9zn1tPHPl8G/iSy+2Vu9vvjt8X/d0ie1zsSDsapd0ux/g+WXPNNUsMikHZ999/vzExJnjdzgj3ufYd4dy9Fr+PBtJMzumz79y+O956660yiGwiTeczuOw3lqvddxI3vAx0+eCg/MMPP1y+1/xmcoynRIEoEAWiQBSIAlEgCkSBKBAFosDiFQgIX7xGI7HHdINw0AFABBv9Ax0IGA8Itz9ADmJYOMFFUvjHPsccOHHttdcWcMF1B3Q7j8nPgEcAGVyUDbu4Uh18HoMHIkapBIQP526IRuGaBJv0AYBK3wGXOS3lx+u3bRAOaNnOlcmBKXJBAd/ANH1UfMFYizr33nvvcU9gp279Wh4weDcqJSA8IHxU+mK7HQamqgPc00A+o36H5Hcfc8wxzSeffFIc2j6HPs/6saeVxG75rPkNevLJJ8ticMwg2Prrr1/yt2VwW7yvIBxU57JWn+8PGeHOa4JLA6k1usRAlogv+1dHeDcj3O+SNmivV8fKLDdY63fBIJrBOw5zT67ssccexXUO5ju/nHOvzitOadNNNy2ud3MceLrJd9enn37alit/R4EoEAWiQBSIAlEgCkSBKBAFokAfBQLC+wgzaqunG4T7hzuwCAhw2I0XhHNvmxCQC9wj6+oALuSh+ge+x9a5dTlv77333uLMBQgPOOCAEpfC+QYUAiGLKwHhi1NoONu5NJdZZpninuSKHlapwEnf5KissEzfAZVElYDZAFcbhIPlog30bdsAKwW08oQD8KQ/jrUYfFlrrbWaSy+9dFyXq+6A8HFJNZSdfC/ps5aaAT2UE+ck41LAZ9vnGOT+7LPPFnxGObw5sAFqENsyd+7c8pkVt1VjTHzeDMoaaK0Z4T6rYLLF94KnNCoIB5Y5rQFzg7YikfxtUIz7mjsb8La/uBXt6wfCtdt5fbf4LXP8Aw88UOo12Os7EsjXPr+Lfh/Vu80225RXf1tc41577VVc5sC47ymDy8C677yUKBAFokAUiAJRIApEgSgQBaJAFFi8AgHhi9doJPaYbhAOYnPZXnjhhcWtvTgQXsEF4Cj3G1jwj3dgHNwWSeEf/iAARzh3HNAoO5VLVlyKR845w7ntgIx24e7r9dg5oLXJJpsUyNDdzjnnkXpaDrvEET54xQEygOmRRx4prnD9BoASYWJSOxEKok+Aev2NA9R7ed0m2XOP9HF9XdHn9EdgCuwaa9EfxS1cdtllC12o/t3th97rp6CWNnCDdve57777CvRbqLIhvIkjPCB8CN1sUqfwm2IeAE8n1eLpD/BYTIgIkbp4/+677xY4Xff1qg6/O7fddluJOKnbrLe//m87qA2iG6yygOL1M6kNnmzyuyVeRca30g+EG5ATbWJSTXnfnoQ67LDDyneO7xT1OSewbQBPfWKR6rW0X0U4mS/D/ilRIApEgSgQBaJAFIgCUSAKRIEoMHEFAsInrtm0HDHdILw+tg3eiZfwqDmwzSUHEvhHvHU1Ixwo1+Y60SAXnvfAIMDw+uuvF/c3tzjQIIICcAQjQQLw3Pp77rmnAAHAgCudm47DDhzgzusuYMNGG21UoGR3G4gPkHCiD7sEhA9ecYDolltuKTAbDNdnDbjoozJ45fKaSLPXAk4ZfOH8lAWsAOH6JYBuAGesBejaaaedFgHhnoTo9kPv9VNRLOuuu24B8919TJQ5HVn2AeEB4YP/pE7vGfxW+e3i0G6XCsB97i0Atd8s3yOeGmlHGDnegK7vivp74vfPAJennBxfi98+3w8c6vU7yFNQIlXqsXXfvEaBKBAFokAUiAJRIApEgSgQBaLAYBUICB+svlNW+3SDcNnLoJ6JujjhAOmxQDgo8Pjjjxfgx9kNjAPgQKVJCUVJcNDWCBRggBMXnADLZbsCkCCmyAnxFIccckhZz2EHUnQX55Qju88++5Ts2O72+t7j5GDIMEtA+ODVdk/FHIgsMAmdwZIKwrnCRQjoI70WTkyT1cn5boNw/XPDDTcsDnIu8rGWNdZYY6FoFP2s9rnuq7aIYgDoQbbudu+BOYM+3KrDKgHhAeHD6ms5TxSIAlEgCkSBKBAFokAUiAJRIApEgWErEBA+bMUneb7pBuEcbnJUTzjhhJLp7dHtsUA4ICl2Auzj/gbCPfLNBQc0cs0B6+IsZDMD3uIlgD+PvnPRqZ/LlxNcpIlH4DnrAHLu3fZy6KGHFrjOlbvaaqs1m2+++ULb2/sCpeodZgkIH7zagLF+pu+YEM+gSAXhc+bMafbbb7/SRwzCdBeDJxza9muDcI5wTzXIGB9rEf2z5557LjRZpn7W7nf+9rSDAR1A3UR74Ln4le5+3psI0GcGuB9WCQgPCB9WX8t5okAUiAJRIApEgSgQBaJAFIgCUSAKDFuBgPBhKz7J8003CNdsLlZRJfKUOW7ls2633XaLRKPIYJa3Ci7an4MbSOd8FYUC8Mlivuqqq4q7XEzEmmuuWSbMFLPSXsSjcPOqD9QEOOVA33333QuWu+66q8RLgODywSsEl09um8W5gHk54SA8UD/MEhA+HLU9uWAiO9Cay7uCcADaUwaygXstN954Y+nTBmTaIBykBs09yTDWAnp7WqKdEW7SxXY/9bfte+yxR9l3s802K1n2l1xySWmb7droiYmLLrqouf/++8uTF5zlwyoB4QHhw+prOU8UiAJRIApEgSgQBaJAFIgCUSAKRIFhKxAQPmzFJ3m+UQDhIONHH31Usk7lnXJVb7vttouAcI5t7m0TiXF7t6Md6qRhRx99dNkOMqoDwBZL4Zi6HHnkkc2+++5bJhR88803F1FOvSZEFNMCInLuyhYH1m+//faSsQzCc53Lc62Tb7azXhepdEArAsIHJGynWoM1ALInD2RsVxDu3rdzezuHlRgSfVt/A8L1KyAdlN51111L39SvPXkgJ597XKa9bHFPSXi1zsANJ3q7zztXjW159tlny6CNPioXHBiXPS4r2BMQHOCAu8Ea5x92CQgPCB92n8v5okAUiAJRIApEgSgQBaJAFIgCUSAKDEuBgPBhKb2E5xkFEA7uAXpgHmf3hx9+2BOEg77AtagT7W6XWod6LO+8806BgQA2cFnXe+WEBc5lhAOE3SJGhbPbsaCiTGjRGIDiU089VaCkSRMBzJ133rk54ogjygSd4PiwS0D4cBT3xIC8+fnz55fBmMmCcP0KUNeP9SFObbnd+iH3uEnxRAXpb/qqvmibyCCDQEB6Lfq8vG9PR5gszxMP+qh+KPZH5v59993XcIZzpBsQcj5PXAy7BIQHhA+7z+V8USAKRIEoEAWiQBSIAlEgCkSBKBAFhqVAQPiwlF7C84wCCHcJoB64CAJyYgN3wB4YKMv4wAMPLCCSM1dW81ixDkDgHXfcUVy2zzzzTNm/LRPwCLqbKNNEhu3CQQtQnnbaac3WW29doLf6tM85AUZgkatctIr6gftvv/12IUjZrnOQfweED1Ld/79ugNkEl2Jx3O8Kwk3MakCEc7vX4v5we2+11VYFWOtvnN8meBWloh95kkC/Njgj2gf0/vrrr5tf/vKXZTDnueeeK08dnHLKKaW/2t/5RaToi+rjIneMPloHbbjVAXKDOfq0SWN93sHzYZeA8IDwYfe5nC8KRIEoEAWiQBSIAlEgCkSBKBAFosCwFAgIH5bSS3ieUQHh9TIqxOsFwkHCfgWo/tvf/taYXFB2Nzf3hRdeuAAOtuMrQE1OWdEUJtZ0LLgIOHLMXnnllcWZK1YFULedMxek5y7nWhezAkIC4Vy+nLr2G3YJCB+84u69eBMDI6JxDIxUEC6CRz68PtNr0UdE64jpufTSS0sOvckv9SOgWuyJqJI6aezTTz9dBlv0UfE/jhNn4kkE+fl33nlneULh3nvvLeeVUQ+EiwRSDBxpm/YC6z4HYljEssg3Nwg0Hf00IDwgfPCf1JwhCkSBKBAFokAUiAJRIApEgSgQBaLA9CgQED49uk/4rNMJwkE5kRMc4HUBsjld586dW0A2ePf+++8X2McRW/err1yzIDaYyPEKLprAEDR/7733ijsWGLSfyQ7FQohWASXVp35gkA6A4Yknnlhgo/zvXXbZpcRL2Ca3/OGHHy5OXs5b2eHymE0++NhjjzUffPBBcZ4D+cMsAeGDV1s/feWVV0revEEQ97iC8G5GuL4EagPSXj3NYEJWGeEmVQXSAXN9CBw28St3uP5W+7RXx3CMmyhTzI8nDryaPFM/5T4///zzy8APx7c+b0BGfzagwwHuGGAdjNfXRaiIWdGf5fK3B4cGrWJAeED4oPtY6o8CUSAKRIEoEAWiQBSIAlEgCkSBKDBdCgSET5fyEzzvdIJwkA6gExtRF+Bvzpw5Jb97ww03LCBwiy22aNZee+0yuWXdr77utNNOBfrJVt59992bgw8+uLhuwUTAEph84IEHmkMOOaTZeOONS92cvaIkXn/99RJJQTKREmA31zd4+Zvf/Kbkf8tVBh0do27OWmCU+xyYFJWxxx57LIhRcfwwS0D44NUWlwPkeoIAZNan+oFw7vF//OMfZXBGH/H54uYGvEX9GIzRN+0DgOv/2223XXF+e63LNtts03Cb33DDDaVPgtaeOtD3KjAXp6IeQNxnxMCMzwCHOPc457r9ndNnQJa9Jy1EuQDvjh1WCQgPCB9WX8t5okAUiAJRIApEgSgQBaJAFIgCUSAKDFuBgPBhKz7J800nCOeKBaM5qie7cHeDeuIjwLaXX365gMN2hjgXuIkGuXm5uh9//PHijP3uu+9K5AnpgEbZyUAmNy93rfzmY489tgBMANw5QEj7KJzoHOziUTjEOdLBz2GWgPDBq61/icgBrd1jpR8Itx7gFkkiZ94TBmJLTj/99BJVoo/pm/obx7aIFH1Yn3ziiScWWkSbVGjevkpubgsg79WkmKA5p7lYIODd0xD1PIC3z7knLQBx20H02o/bdQ/q74DwgPBB9a3UGwWiQBSIAlEgCkSBKBAFokAUiAJRYLoVCAif7jswzvNPJwgfZxMXuxvnN6gNLI5VamyF17EKSAkUyhEHzkFFABMg71Xq/m343mu/QawLCB+EqgvXKb5HNApY7fOicFqL1zHA0u5Pf/rTn8ogC5c2+C3GREwP2D3VTws4r74vSxwAB7q5wK3rV/RjTzwMuwSEB4QPu8/lfFEgCkSBKBAFokAUiAJRIApEgSgQBYalQED4sJRewvMsDSB8CSWY0YcHhM/o2zdrGh8QHhA+azp7LjQKRIEoEAWiQBSIAlEgCkSBKBAFZp0CAeEz5JYHhM+QG9WnmQHhfYTJ6pFSICA8IHykOmQaEwWiQBSIAlEgCkSBKBAFokAUiAJRYAoVCAifQjEHWVVA+CDVHXzdAeGD1zhnWHIFAsIDwpe8F6WGKBAFokAUiAJRIApEgSgQBaJAFIgCo6lAQPho3pdFWhUQvogkM2pFQPiMul2ztrEB4QHhs7bz58KjQBSIAlEgCkSBKBAFokAUiAJRYKlXICB8htzigPAZcqP6NDMgvI8wWT1SCgSEB4SPVIdMY6JAFIgCUSAKRIEoEAWiQBSIAlEgCkyhAgHhUyjmIKsKCB+kuoOvOyB88BrnDEuuQEB4QPiS96LUEAWiQBSIAlEgCkSBKBAFokAUiAJRYDQVCAgfzfuySKsCwheRZEatCAifUbdr1jY2IDwgfNZ2/lx4FIgCUSAKRIEoEAWiQBSIAlEgCiz1CgSEz5BbHBA+Q25Un2YGhPcRJqtHSoGA8IDwkeqQaUwUiAJRIApEgSgQBaJAFIgCUSAKRIEpVCAgfArFHGRVAeGDVHfwdQeED17jnGHJFQgIDwhf8l6UGqJAFIgCUSAKRIEoEAWiQBSIAlEgCoymAgHho3lfFmlVQPgiksyoFQHhM+p2zdrGBoQHhM/azp8LjwJRIApEgSgQBaJAFIgCUSAKRIGlXoGA8BlyiwPCZ8iN6tPMgPA+wmT1SCkQEB4QPlIdMo2JAlEgCkSBKBAFokAUiAJRIApEgSgwhQoEhE+hmIOsKiB8kOoOvu6A8MFrnDMsuQIB4QHhS96LUkMUiAJRIApEgSgQBaJAFIgCUSAKRIHRVCAgfDTvyyKtCghfRJIZtSIgfEbdrlnb2IDwgPBZ2/lz4VEgCkSBKBAFokAUiAJRIApEgSiw1CsQED5DbnFA+Ay5UX2aGRDeR5isHikFAsIDwqejQ/7Xf/1X889//rP53//93+k4fd9zas+//vWvRvuGXf7zP/+zsUxn+Z//+Z8J3ZO//vWvzW9/+9tp0Ws6dcq5o0AUiAJRIApEgSgQBaJAFJg5CgSEz5B7FRA+Q25Un2YGhPcRJqtHSoGA8NEE4Z999lnzi1/8Ysy+8re//a158803mz/+8Y9j7lc3grx/+tOfygL0jgWhbQOqQeFa/vu//7ux1GIfbdBWQLRdAFVLr+K4r7/+unnllVeaP//5zwvV2Wv/7rr/+I//aP7whz/0hK9/+ctfGr+d7XZ2j+/3niaOf++995pvvvmm325lPV1o+ctf/rJcQ6+dXeenn35a9PH34soHH3zQfPTRR4vbbcztzuP6x9snupV98cUXpb3ua7/7V4+xXXt/9KMfNf/+7/9eVy/xq77097//fUH//Pbbb5vf/e535Z6OR8clbkAqiAJRIApEgSgQBaJAFIgCUWCpUiAgfIbczoDwGXKj+jQzILyPMFk9UgoEhI8GCAf4gMUKm0899dTm3HPPXfC+rm+/vv/++80mm2zSPPPMMwv269e51A/evvDCC82LL75YIG4/WGxf28Bqbt8KH8FJkLK+517+5JNPGm398MMPF5zadvuCqbXUOtWrHffcc0+z/fbbF5APPrevy9/9IKz1v/rVr5rHHntsEQDtHG+99VZz8803LwLmtcP2tsbtc9oG5r777rvN6aef3jz11FMLtanbHiCelpdeemnz2muvLdCkfb3A+sknn1zq6x5f92u/Ou8555zTXrXg77HavWCnpiltvummm0qfqOv7HVuvv922iy66qLTB/TQQMlZx/++4445m8803L32l175Vc6/jKfYzIGAAQf3e/+QnP2kefPDBcn+0OSUKRIEoEAWiQBSIAlEgCkSBKDARBQLCJ6LWNO4bED6N4k/BqQPCp0DEVDFwBQLCpx+Eg33vvPNOc9111zXz5s0rC8ANMNb3vV7333//ZqWVVmp23333st/ZZ59dnNK9Og1XrXt96KGHNkceeWRz33339XXxclxzo1944YUNMMp1DoDfe++9zQUXXFAgKyc3UPr66683m266afPyyy+X0/7jH/8o6+bPn99cf/31jbqA1ieeeKLxnWg55phjmh133LFZc801mwMOOKA5+uijF2yr+1x99dUF6navBei+4YYbGtf661//eqHNzsOdTBfX2y0GDkDiY489dpHzuUYQ/IQTTmh22GGH0q6TTjqpvNemhx56aCEHL+EOjAAAIABJREFUuuv8+OOPi+5nnHFGgbXt87mnQO7xxx/fnHLKKe1Nff/ugnADBL///e8L8D///PObQw45pDnqqKOaI444ojnwwAObM888s5y37cZ3Tnq6zlrcd9dCd8c5vuqszrvvvrv57rvvCnT294knnlhgONg/VhkLhLt+Lm7949Zbb22+/PLLvoMb9Rz6Coe9e+v+Oz/wra8aIHBvJ+t0r+fIaxSIAlEgCkSBKBAFokAUiAKzT4GA8BlyzwPCZ8iN6tNMoGGZZZZpNt544/KP+z67LRWrARzXCmxx86XMHAUCwkcDhIukePzxxws8BpC5pXfZZZcF763rLoDhKqusUmCtbVzW4Gm3iPDgAj/44IMLSAXCQdG33367JwwHOEWD3HLLLQXigrCff/558/DDDxf4CiQ//fTTzVdffVXqBeOfffbZAlN/+tOfFgc0oHznnXcucPVq33bbbVdgv7+BziuuuKJcE7DdXsDZww47bCHwrE3O5zjgWb8VrQKw33XXXWXhTgaK119//ebaa69dsB5ArTEmrgGYnjt3bnPQQQctOP+TTz7Z3H777c2+++7bXHLJJWU9R/5WW21V1qmj7Ub2NyjrGoFjgwbOoZ0KEGyg4LjjjusJwm1/7rnnyj1z3yx77LFHs/feexfo7vef05zOgPA+++zT7LfffsWBDnRvtNFG5T3dOe/feOON5rbbbitueAMoBhi8d02WG2+8sXEfHefe05tG2267balT27XJYIFBjN1226043q3vV/qBcE54fdn9BeD141dffXWh+9mt0yAGp/9VV11VBhf0PQ596+nwwx/+sAB8A0aeNkiJAlEgCkSBKBAFokAUiAJRIAqMV4GA8PEqNc37BYRP8w1YwtMHhC+hgDl8KAoEhE8/CO91o4Fkjt+xikGnddZZp8DSfvuBhkDixRdf3Oy0004FIIsOAV2vvPLK5mc/+1nD3dwtoKhoFKAXOP35z39eBvR+/OMfN7vuumsB2qAkwF5BODev/ffcc88CksH9WgBOx8mUBtXHWn7wgx8UV3eFyoAySAp4c1gD1SJbwFawGtC2cDsD16uuumoBx3U9N73jFVAZDAeVtck5aMR17DqtF3kCCFu3xRZblHMC4UB8G4aDtGA4AM85bztXs2Kbeg0aAO/0bBfbL7/88gL8QX+LQVOgGugWzVJBNhgNbGsvh7j7B5gbEPD/Ca6B7tbttddezeqrr17qAs+BfW53UNmr++76FW01cACIa6s2qsvgAlc9vfUP91UETnehEUCtzTSznUtfvaeddloB4FtvvXWz7LLLljrr/WzrUP92X5zXAJC4GeethVtdv+PUd+2c+O3s+rpfXqNAFIgCUSAKRIEoEAWiQBSIAr0UCAjvpcoIrgsIH8GbMoEmBYRPQKzsOm0KBIQvvSAcbOX69sTGzjvvXMCu3xWxJ1zCXNGczIBmuwCigK8FQOUOBx69F3fx0ksvlQkV/d0G4eJIwHFOZ+C5DY1B99VWW63ATLEoYy0c3SBuBafaC4CCquoB5YFwTmgAVxstgKl4GTDcMXW96JDaFu3ieOZUBoQNAohEkeUtjmbdddct8HvOnDnFWb7CCiuUV+856UXCtAuN1VHPUYG383Hng/DO5X3dVo93XG2jV/sB5+JfAGYudZrSgZsfCAelQXMu9EceeWRB3Aj47Hz2B7sNfHivXg5tAw9c4KJxZMprt+0GD4Bw72uhESe6nG4w/PDDDy/xNyJw2gu91lprrWb55ZdvNtxww7LtrLPOKtfqHoHjnOgrrrjimCDcuR999NFyHuCeu12ba6GbQZVrrrmmDKbQAXDv6ln3z2sUiAJRIApEgSgQBaJAFIgCUaCtQEB4W40R/jsgfIRvzjiaFhA+DpGyy7QrEBA+miBcpMY222xTHM9cz70W0JT7GbTsFg5bIJWz3H6AJIc3dzUAC4wCikAtx7LJJ0FUcJHrGCjndBZpATaDlffff39xK9eIFcfWnHJOat95QCu4yrnNUV2Lc3H7grAA6ViLa1dfBeGc7wA3CA5eq7dXRjjYLI8a4AfpexWuZdErwLoJIZ0DVJdxTmNwF/ylG2c7l7I2Ox/HNXc2+M/NbZJQi4iWLpSt9YLnHN7OUa9Hu+zvPO37qt1iTWR4ixPxSjeOfjnw4LaBDa5vn9vf/OY3i1yiAQvt1L5a5HPTxeDCZZddVnLegX8w3b00EWW76B/6j4EG4F3cDYe6SSv1tbrQhvN7vfXWK9Eu1gPgrg2A18f0oX4gXJ/St+SvawudRL3oh91iP2DewA3nPt3kj3cHJrrH5X0UiAJRIApEgSgQBaJAFIgCUSAgfIb0gYDwGXKj+jQzILyPMFk9UgoEhI8uCAeOuZf7LWBmG4QDi+Cl+BH3FQAXfQH6gohgIrDNcQxU2o8b2D4gpHgN8RnvvfdegbTnnXde2c6hy3HM7csRLLLF3yJMuottIDLHt+iOWgBdedScv6DqWEuNKKngGMAHzrVLlrZ6uZS1V3114ZCmCZhs0se6XoSK6+IiBnU322yzMvkijWwD1+kDCItC+eyzz0oWOdBfATdoDYwD4TQE5kFgTmiwt1voBbSLZzFYQEP616JecSvuLcAtv1t0zZZbblkc3yaH5AoHsLUdCAfjQXnufq57+ljcR+/Fh7gGjngQ3XvLAw88UM4DynPzuxb1g8narp3gNw1qPaC3vqSdBhVAbmC7OzGn4+ntHnWL/4cZC4QbcNEP9FN9xj1zTv24V+ESd//oZcDFkw7a2WtAoNfxWRcFokAUiAJRIApEgSgQBaLA7FQgIHyG3Pc2CPePaY6yLDNHA4+vz7bJMmXTAlbppzOnn5q4UD+13HvvvTPk23HJmwky1usGNketAINcsmChRTyJpb73CmqKpgApFVAUzJSxbLJDMBoIdRyIyGkLIKoX0OWgBhEBWfsCqNzhXLmgLUAs+5oTW+wI+O23CFCu7em++t2S7+wcbRCujjXWWKPEdnA0j7XIyhaRUUG4a+N0FtkBdHOLg+Cc53Kj+y3iTCyyyYFmENk1LbfccsU1Di6DysA4oMpB72+w1XX7Dq96A98iR+hWCz1NAApWd4uBBufjwubuBnlp2C3VFc21DXTTn8O8Dc3dOy52enJha7P7qj5gWpY42M7NLj7GBKqy4z1RYHEt9rGIjKnXBHC7f+rgADfIYICB/oA8vbUPiOcyF60iRqfGlrg/SwLCRdIYhHE/b7rpphJ/oj3196Pbt+o290d/Mmhh4IVeKVEgCkSBKBAFokAUiAJRIApEgX4KBIT3U2bE1rdBONcfSJFl5mggDxdoAxU8Xr40F84812pSNDAm/XTm9FOxBhUIB4SPzqdUPAi3MUhoAT8B3/reK8C68sorLwDhMp8BRRC6Zn8Dt8BlPxBuvX3Ej1TnOSAMcoK5AKkJIUFzIBzM1pZ+C1czOAwot0E4RzjwDMRyD4+1cCoDuxWEcyWDo9znwDbHuDb5jQRru4tJK33ngtdypW0HfwFTsNn3FOe0NogdMQgAhIuHoad2cjnLCzdJJeDuO81+zlvLWCCcbs7veIMSviNdQ7fQmFucg9t5RZqA4G1XtHsEhNvGle3+XnDBBc3zzz9f9gPExdYY1OJmB+y5+elg0RaDHdz8zgHOW8Bt1wTSu79iRgyMqKeCcO0FzIF3gyCiVUB77VtSEE4/kTSiUbjrPQGhPZ4csOjv3tfFe/ExdDDY4t653l4DDF2d8z4KRIEoEAWiQBSIAlEgCkSB2atAQPgMuffcT2AHl20FVXn9P+fqTNEBDAcbAJuluYAjbaA6U+5P2vl/nyeT3RnAEBMxW8qoO8JBWwMTIKEFhASZ63uvYC4Xb42lkP8NEIKLYkS8r0C1Hwh3v4Fm+4rIkPEMnjoOtObalavNkQ2Eg5EiRbRNVnd30R4gFchug3AOXiCWW/2KK64Yc+EWbzvCTZQosxwMNjjALS/Kw7l896izu1xyySUFYAPRwKn2WqddYL58aQXUNaAA/gPhG2ywQWk/p7L1HOQgsIksOcv7gXAgGcAG3A1IgO/qoAFwDTx//PHHC8F910VLMVqc3BYudHE1Fu12jysIN5gA+tb2GPSohSvd4If7BNxfffXVdVN5VQ/tZMX72+LeAc4GC9oFVG+DcH3Db5j91OupH21aUhDueIMwnjCo/d19orMYGucD6a2z6AM0MmCjPQYRtI32KVEgCkSBKBAFokAUiAJRIApEgX4KBIT3U2bE1vvH9C233FIeBfe4cpaZp4HH+MGKpd2xJpqB0zJ9dOb1UfeMw1buLng6W8qogXDfEYCzmJbuAmyDqty84lBAw+4+wC6IDRAD290yFgjv7lvfi+EATmVvy24GwuVMq6vXORxnG0gJAFsAdY5iOeWcyty98sgtYCcXsLgW35ViQSygP9gNyMvaFs0h2sQ9czwo7TrBde0x4aP9a5yMV5N1cqWD7+oGcIFwfX2jjTYqdWpvBeHgskWUCNe1/ftlhFd9qiOc89s1+x50b2R2ux+uzW+4SBJwX2Z5dYXThb6c4J4act30bS+AsPxsmhoEAMKBbgMf1tNEAYJ9fgF1cBkIp5G2WLi8QW8QGaCvBUS2L+jeLl0Qbpv2GiiRIa5ObdInXN9kM8Lb56zncF9dBx30mzbkFuFiIMN9NyDRrw926837KBAFokAUiAJRIApEgSgQBWa3AgHhs/v+5+qjQBSIArNegVEC4YCeeAzwD7itC5c+Fy8H8worrFCyrcVkefoCPK37eeXgBZT7TRwIXAK33YzwsToCRy6gym1sYFb7gFvOZxAVlO0utoHLoi6AcNu5qkFf2ePWcUbLMgfHayY2gKtopxxq4BZkBW45p0Fm7T/11FNLm2q71QM6aw9Yq9BTPQA4IF6L6A+TM9ILXFcqCK+uY7Eu2se1DtbX6+NGrpNl1vpEjthflIv2im0B0E1OCS4D4cCxAQrauVYDGeCu662A3ACBa7OuvXA+d0G4a3O86Bxaeg9IywE3AEAHLnh9Zv311y8LsE1r8S60rNdUwXIbhKtPjErbEV6v16v6ObHdZwMVHPn2rU8ltPc1ODDWZJntff1t0MP9AP252+v9rPtprwEFGrvmlCgQBaJAFIgCUSAKRIEoEAWiwHgUCAgfj0rZJwpEgSgQBZZaBUYJhBMZXAQWQdO6iOrwpIWILJEdMqs5YsFdk0WKQan7gsfykkHOXmUyIPycc84pcFUWNfAJ5oLwQCWg3muxTawJ6Ar8gsWgLaj94osvFvewbGfOX8DZ9YlSAaaBUBMy3nXXXQXGcsCLP+GUF6EBEpscEZxXgFIRMQCw4yqM7QfCaWDAoRcIB1fBb5NMui7OcM5xbbeIpbHUaBQwGui1n0kb7QOWv/XWWwU6g9HqBJ4dI05ETFbN+dZG8WfeG/AAvF1Xe3G+NgjXZ0WvqNMTAu6Pa5KHDvrrJ57qoBtILtbG4h6IYBHVxW1fHfnc9O4np3kt2kpLUN95ujDa0wkGOUS97LrrriU+hnOee7tbJgrCRaSIuNE+/btdtEMfkLcO3LvulCgQBaJAFIgCUSAKRIEoEAWiwHgUCAgfj0rZJwpEgSgQBZZaBUYNhFehK7AGHIFVjltuZQATeJTjDhyDlZzWJrnkdO4Cy1pffa31jscRDvJy3IqoAFiBVhAaCDdZIRCpDb0W28R0cE/Lu+bkBlxdA+e2OS9MTKk+cB0cd63iRLi/gXR1vP3222XCR3BaDEwt2lBBOJj805/+tEwcyVXNfW1AoR8IV4fBAyCcg1r+NNc7cAywg/JgtegNenN0c21bwFmZ4RWE08cghElD7Wsf0SGc4UAx7UBo7aE9pz5wDWwD5PLXDQa4xzQVQQP+thdatEG489CGA13Ei2MNHogqcZ+4pcWluD5AmXubFgonvPbTkzvc4pxiZUBy91w/kh2u7SJobHcNngaoxX0yUCFmxqIeTn/3shb3Vj1c3a5hueWWK3W6bu23qKcW56aHQQ/30eCAAQX16NeuQdv0H9dgUKVeV60jr1EgCkSBKBAFokAUiAJRIApEgX4KBIT3Uybro0AUiAJRYFYoMGogHLTk3AVTxYicd955zemnn15gp9iMCy64oLiAgUHAF8jlQpZP7T2wyFHbzyk7ERAOrsrJBjHB4QpUQehuRjggqU3qt9Rjq2sYtATzQUxuZe5p8BTodq1AvleOcPAUiAZaAWSOcZAWKK+lDcKtA6SBcsfJ+JbBXUG+SSq5xdvF+cBWAwLgNjcz57pXgN0Ag/sA2oLNrs0CULejUcDhd955pzivRaFwT4PyILK6gH9a1ELDCqw55kFsbfVqgIMenO/thav7/7V3Jt42Vv8f/5++viVTZRYi0lxIiFCkaJI0KJU0qlChREiRuVGGQskYSYYmoohI8/6t1/59913PPc7lul33nHPPa6/1dO4553n28HrOWt/vej0f750V4WxUypyoxkZoMz7rR74jwPk9sC6queEE08SX+TA35gBvDkQ+1/FAgPlzLizIDed6YnDgwL8I4DsO/uUBcpz58sr7dB/5nocZSHHuP+uq6kCe83tBcLNmOMCNqnbiY3hwwL9wSP/i4b333osPWHgYwAMgmwQkIAEJSEACEpCABCQggeoSUIRXl5TnSUACEpBAvSRQTCIcmYxAJE+Z6BM2H0R0E+NB1AnfU11LHAYNgYj0Xrp0adyglk0QqZSlEhtpnq9xDd9VpyKcqmekMiKc6uhUfZtPhCOJEZ9s9slBdAfiFOmKmEVyUu3Ld0S/jB49OiB0iR0h5zwdvKeSOQlcxkRos37mnhrfp4pwPuM8xkfkEjVCjjTvkajwyp7L+chnOJNFzXkIbf5mrpyPzKVSGwGMKEdg8x6hj0AnniONy7y4nn6QzuSFI2rJ5E4PD+LJ//sP5yOAkcTEniCSyV8nnoTqc6qws0eKTOE67gUPFBgL+U3/8OGBQarwpvoeDpzH74js7sSZVzLD6ZMD7uTPN2/ePN4P5oRQp0KeBzH8VniPnOb3xbkcKZue3ygHG5LyGX0T30OGe5oj86zqYE08cGDOxMiwfh5cINW5h7Dht5Iy8pknvw/mx2/KJgEJSEACEpCABCQgAQlIoLoEFOHVJeV5EpCABCRQLwkUkwgHMIIVsc0GiWSDUw1NtWxqiHHEbGoIYqQzUR8LFiyIVb3Ia8RovoZ4ZAyEL4IRMY1Izdfol6psKtKpJE4tnwhHdDIH5k21MjIZCcvfCGe+RyQzPoIUiUlGOLI89yAmhXUzt6pargjnPGQ81dfEkyBTmQPimNiPyZMnV+oKgUx2darWZm5UqvMQAcmKhIUL66cvIjqIGaFPZHE2JiSNzfgIdsQxa6OaOT08qDR4CFEwI3upcmedVJpTNY0Qplo7eyDxqWhPIjyb5Z36JT4EZhyMy7p48MC84Qlj/sUAAp6qasYhmoaoFH5vHJxH5TUZ6zwU4P4zJv3xOXOlj9RP6oN+sgf9wxJ+Va0/zZtX2PNwhN8Yv10eQvAb4Xp++3BiTMZgTOZJTA+/KZsEJCABCUhAAhKQgAQkIIHqElCEV5eU50lAAhKQQL0kUGwiHLFNNS9V4Ig+5Gq2IQOzUjr7HXIWuYvERIzma6lym80lkZ9IyKpkJTIdoct5iM3UFi5cGKNK6CtdSz/IbSqmiXPhIMYFKYzIrO1GVAqCPV9DpiK0Ef3kcXMekv5kDe6IY4QxcR+pETuSMthZG5EpyFhEer6WHkzweqoGuySLud/I8CTms9cyJ+Ji4M05vM9t9MW1HFXde86hD8ZEcHNe9uCz7D3NHSP7nr44n3Vy0A/v03qy557qb8aEJwI+Vdrnu4YxOWwSkIAEJCABCUhAAhKQgARqQkARXhNqXiMBCUhAAvWGQLGJ8HoD9gwvhPgTqq9rsyFk01Gb/dZmX9UV1bU5pn1JQAISkIAEJCABCUhAAhKoDwQU4fXhLroGCUhAAhKoMQFFeI3RFfRCqo85bBKQgAQkIAEJSEACEpCABCQggeoQUIRXh5LnSEACEpBAvSWgCK+3t7bKhRmxUSUav5CABCQgAQlIQAISkIAEJFBvCSjC6+2tdWESkIAEJFAdAorw6lCqP+eQYU0GO5s/VpVnTewKG0OyYaZNAhKQgAQkIAEJSEACEpCABOoHAUV4/biPrkICEpCABGpIQBFeQ3AleBmV4GwAOn78+DBs2LC4sSSZ27lt0aJFoV27dnHzz9zv6INIFjYHPXbs2GkfXJdvzNxxfC8BCUhAAhKQgAQkIAEJSEACtUtAEV67PO1NAhKQgARKjIAivMRu2L+Y7u+//x6WL18exowZEx599NFYEZ6vu5OJcDbo5Psbbrgh9OzZ87SPIUOGhG+//TbfsH4mAQlIQAISkIAEJCABCUhAAmeQgCL8DMK1awlIQAISKH4CivDiv0e1NUOiTp544onQp0+f0L9//zBlypQwderUsHbt2kpDnEyEHzp0KKxbty4899xzsS/6O9kxevTo0KNHj9C8efNw/vnnh379+oWvv/660ni+kYAEJCABCUhAAhKQgAQkIIEzT0ARfuYZO4IEJCABCRQxAUV4Ed+cWpza8ePHYzY4FdlUcg8cODDwN8ebb74ZY1K2bNkSs8MnTpwYWrZsGRYuXBg2b94cNm3aFNavXx9jVYhG+eOPP8LRo0djhjhyPd9x4MCBsH379rB06dJw9913h169eoXBgweHV155JRw8eLAWV2ZXEpCABCQgAQlIQAISkIAEJFAdAorw6lDyHAlIQAISqLcEFOH19tZWWtju3btj9fddd90VlixZEn777beKg8xvNtDs1KlTaN26dWjRokX473//G9q0aRPat28fX5s0aRJWr15d0SdC/GTHrl27wqRJk8IVV1wRLr744vj3tm3bokTnOpsEJCABCUhAAhKQgAQkIAEJ1C0BRXjd8nY0CUhAAhIoMgKK8CK7IWdoOjt37owyetCgQbEye+TIkYFj8uTJYcOGDWHHjh2hY8eOFTEnyPCZM2eGlStXhpdeeik0atSokgivappkiM+YMSPceeedYfjw4bG/ZcuWhT179sSNNau6zs8lIAEJSEACEpCABCQgAQlI4MwSUISfWb72LgEJSEACRU5AEV7kN6iWpvfjjz9Gqf3qq68GZPjll18ennrqqfDGG2+EL774oqIinDiU3IzwNWvWhKZNm1ZLhBOjQvTK0KFDo3gnT5xNOq0Cr6UbaTcSkIAEJCABCUhAAhKQgARqSEARXkNwXiYBCUhAAvWDgCK8ftzH01kFG12SDf73339XXJaiUf6tCF+1alVo0KBBmD59evj+++8r+vcPCUhAAhKQgAQkIAEJSEACEigsAUV4Yfk7ugQkIAEJFJiAIrzAN6AAw9eFCJ8zZ05gw0ybBCQgAQlIQAISkIAEJCABCRQHAUV4cdwHZyEBCUhAAgUioAgvEPg6Hpbs7sWLFwckONElnTt3Do899lgYN25cIMObjHA2xiQ2hYMoFDbWHDt2bBg2bFg4++yzw8cff3zKWaeKcCJXiGOxSUACEpCABCQgAQlIQAISkEBxEFCEF8d9cBYSkIAEJFAgAorwAoGv42G/++67MHfu3Ci2r7rqqtChQ4dw3333xWPp0qVRhF9wwQWhT58+8WjcuHHM+R41alQU44rwOr5hDicBCUhAAhKQgAQkIAEJSKCWCSjCaxmo3UlAAhKQQGkRUISX1v2qjdnmi0bZuXNn3EATKZ67Weann34a2rZtGz755JNTDm9F+CkReYIEJCABCUhAAhKQgAQkIIGCEFCEFwS7g0pAAhKQQLEQUIQXy52ou3nkE+HHjh0La9asCT/88MMJIvzQoUNh5cqVgddTtawI/+mnn051ut9LQAISkIAEJCABCUhAAhKQQB0RUITXEWiHkYAEJCCB4iSgCC/O+3ImZ/Xss8+GXr16BSq933///bBt27bw999/B2T4n3/+eYII/+uvv8LRo0cDr9nGNb///nv8jusOHjwY41caNGgQ5s+fH37++efs6f4tAQlIQAISkIAEJCABCUhAAgUkoAgvIHyHloAEJCCBwhNQhBf+HtTVDP7555/w22+/hSeffDJ069YtTJgwIYwfPz6sWLGi0hRyo1EqfZl5c/z48bBr167wzjvvBCrB33rrrTB69OjQvHnz8MEHH4Rff/01c7Z/SkACEpCABCQgAQlIQAISkEAhCSjCC0nfsSUgAQlIoOAEFOEFvwV1NgEqutk086GHHgpdunSJr+R+Hz58uNIcqivCqQCfNm1aYCPNhg0bxtdWrVqFAQMGhK1bt1bq0zcSkIAEJCABCUhAAhKQgAQkUFgCivDC8nd0CUhAAhIoMAFFeIFvQB0OT0U4VdxEoXz00Udhx44dUYITa5JtGzZsCGPGjAl79+7NfnzC33/88Udgk8158+bFSBTiUIha2bx5c4xLOeECP5CABCQgAQlIQAISkIAEJCCBghFQhBcMvQNLQAISkEAxEFCEF8NdqNs5UBmeK7+zMzhw4ECgUpxc8FM1ZPiRI0eiUP/ll19i9MqprvF7CUhAAhKQgAQkIAEJSEACEqh7AorwumfuiBKQgAQkUEQEFOFFdDOcigQkIAEJSEACEpCABCQgAQlI4AwRUISfIbB2KwEJSEACpUFAEV4a98lZSkACEpCABCQgAQlIQAISkIAE/g2BshXhjRs3DkOHDg333HOPhwz8Dfgb8DdQxr+BSy65JPznP/+JB7nRNglIQAISkIAEJCABCUhAAhKQgATqH4GyE+GjR48OzZo1q5AeSX74+v8SSA5y8Dfgb6AcfwMNGzYMrVq1irnQ9e9/6l2RBCQgAQlIQAISkIAEJCABCUhAAmUnwl9++eXQo0eP0KJFCw8Z+BvwN+BvwN9A/A107tw5DBkyJGzbts3/ZyABCUhAAhKQgAQkIAEJSEACEpBAPSRQdiL8wIED4auvvgpbt27xAeWUAAAgAElEQVT1kIG/AX8D/gb8DcTfwPbt28OePXvC8ePH6+H/1LskCUhAAhKQgAQkIAEJSEACEpCABMpOhHvLJSABCUhAAhKQgAQkIAEJSEACEpCABCQgAQlIoLwIKMLL6367WglIQAISkIAEJCABCUhAAhKQgAQkIAEJSEACZUdAEV52t9wFS0ACEpCABCQgAQlIQAISkIAEJCABCUhAAhIoLwKK8PK6365WAhKQgAQkIAEJSEACEpCABCQgAQlIQAISkEDZEVCEl90td8ESkIAEJCABCUhAAhKQgAQkIAEJSEACEpCABMqLgCK8vO63q5WABCQgAQlIQAISkIAEJCABCUhAAhKQgAQkUHYEFOFld8tdsAQkIAEJSEACEpCABCQgAQlIQAISkIAEJCCB8iKgCC+v++1qJSABCUhAAhKQgAQkIAEJSEACEpCABCQgAQmUHQFFeNndchcsAQlIQAISkIAEJCABCUhAAhKQgAQkIAEJSKC8CCjCy+t+u1oJSKDECPzzzz+B43RbTa453TFO9/wzNae///67RoxOd/6eLwEJSEACEpCABCQgAQlIQAISkEDpElCEl+69c+YSkEAZEPj111/D77//florRTj/8ccfAUFcLI05sY6//vqrVqdEf4cPHz5tRrU6CTuTgAQkIAEJSEACEpCABCQgAQlIoOgJKMKL/hY5QQnUfwII299++y0cOXIkHDhwIHz77bdhx44dYcuWLWHDhg1h+/bt8bssid27d8fvfvnllxPk6tdffx3WrFkTVqxYEfj+ZO3YsWNh/fr1YcqUKWHv3r2V+jp06FBYvXp1WLBgQTh+/PgJ3SB3mTdzRjzTWAvnJuHLOX/++WfYvHlz+OSTTyr1ka7PJ6z5jj5nzpwZ3nvvvbh+PjtVYw2rVq0KM2bMCHCoaWMs7gNr//HHH0+ouGZ9Bw8eDG+//Xb46quvKtZb1Xg//fRTeO655yLr3HV888034cknn4z3mfsF93xM8vUN+/Hjx4dNmzbl+9rPJCABCUhAAhKQgAQkIAEJSEACEpBAJKAI94cgAQn8awJULX/33XdRPm/dujWK02yniE+qgb/88svw6aefRiGMqP7444/DRx99FIX1+++/H5YuXRreeuut8Prrr4dXX301TJ48Obz00kth4cKFsX/6pC/GQ9BOmjQpjpUkdBpz48aN8dp77rknbNu2La/ETufu3LkzvPjii6FHjx7xXKR1ashr5O299957gojnHIQ317/55psVEpfqZET0F198EYVumu8rr7wSnn766dR1OHr0aNi1a1dc+759+6L4hVES5knkd+/ePdx2221ROPMZMj17/PDDDxV98gd9IsFZz8qVK6OER9YjipH68K7q4IEDbJkz13D9wIED433js2xDgtPP3XffHZYvXx7HyX6f+zcPLtq3bx9mz559gjRnPeecc06YP39+fLjx7rvvhp9//vmE83L7ZE5I+Isuuij+HnK/970EJCABCUhAAhKQgAQkIAEJSEACEkgEFOGJhK8SkECNCSA5p06dGlq0aBEGDx4cpW22M0Q1lbsjR44MnTt3jkK0VatW4dxzz40C9KyzzgrNmjULbdu2DV26dAlXXnll6NOnTxgyZEi47777wvTp0wNj0KhERvY+9NBD4ZZbbqmovkaKclBJ/P3338cKb8Tra6+9Fiuj0/e8psbfSHZE9x133BEroLk+nfvGG2+ERx55JEyYMCFWlvNd+p4+GIf+W7ZsGZ566qmAgP/888/DFVdcER544IEokjkfOX7//feHG2+8MQ0dz3vmmWdCx44dw5IlS6J43r9/f+jdu3e44IIL4tGmTZvQuHHjcN5551V8lr7jtV27dmHevHkVffIHrNetWxc6deoU5s6dG4UyVeJ9+/YNzZs3j7wbNmwYXxs1ahTSgYiGAWzT/Zo1a1acH5X5ue2zzz4LDz74YLj55pvjOvk+yza9T5+dSoQzJ6ryeVjQs2fPyJKHBamle5J95aEF8v7iiy+O9zH7Xb6/U1++SkACEpCABCQgAQlIQAISkIAEJFB+BBTh5XfPXbEEap0Ald233nprlLWXXnpprKLODoKURK5SKU3F9+LFiwNVvxMnTgyDBg2K1z366KNRCBOFkqqXqUheu3ZtrAZP0SRULE+bNi2MGTMmUGWNGH/++eejkEXKIuL79+8fLrvssiior7766jBgwICK7xHHe/bsCcRxjBgxIkprhHmHDh3idch3+mPOSHD6Qc7fcMMNca7M9/bbb48RH0SGUBFO9TrXUaGOmKVaffjw4bF/Kt0R5kmE0y9rHDduXJTTSHZiYBDmVIbzEODxxx8PiGaENuunYpr32QN+zIvq+Wyjf6qpqdZGgCOLqTSnUp+KcGJEkOsvv/xyPIf+OWDGgwq4cA2V1jzcQEqzpmwjuoTIluuuuy5WcbM+ZPnDDz8cBT/3iIgT5r9s2bJYaV+VCGe+jI8I518EEGczduzYOD/mQCO+BiY8+Mge3G8Ef9OmTcNVV10V73H2+/Q3rOFhk4AEJCABCUhAAhKQgAQkIAEJSKB8CSjCy/feu3IJ1AoBJCvRIFRBI4gRuXfddVesAM/GjDAYcRrkVlM5TbU1sSNISsQzkhfBivRE2lKNzIEEZgwaMp3cavp/9tlnY7QK3xOhQiUxAvWaa66JUrtXr17xHMbg4HzGQYginIlMQYAjzpGsTzzxRMypvvbaa6MUZp6sB8FN31RvcwwdOjT2j+BlvkhfzqVq/Z133olRLcSVIOmz4yURjvBmrUS+MC4V5CnHHHF9ySWXxMpsBPfJDuJcqKCHEY0HAuR1I+V5UAATKqzJFyefm+/hx0MIRDjyOXt/qAYnSgYpzzlUuFPBTuwI86QvqufpA7nPgwj4IKtT9AoxKQh27l+KiHnsscfi74MHBvmiUZgXD1KoSCdiBXZEwHz44YdR5LM2+p8zZ06szOfBQTr4HXTr1i3eDyrgkfnc6/R9euVa5mSTgAQkIAEJSEACEpCABCQgAQlIoHwJKMLL9967cgnUCgHkLfKR6mQEKqIYIUk1N5tfZhtClmpoMqw5B9FKhTJiHAGLVEWCUimOoEYeI11TNTjxKohdvkMAUzlOBAmbXVIFTQb5sGHDYvU2ohjJiuxFriLQqT6mIaMR0MSzEB+CaEe2IrWpaqYKnLxqxC7CPtuQwRdeeGGsXKbKGQlOPjqSnz6YKxXUVGzDgyp41kTFPLEnCHjWxLhUjvM+K8IRu4yPgD/ZAT/iZKjMpiGokdNEylCpTSV869atK8WdcA4xLE2aNIkiHD6pkUM+atSoOB8iT5gD17NWHm4QxcJDBu4R5zE+spx7wL1DYiO9qb5H4HOvyUmnaptqf+Q/US48TIA96+YgE501UBHO7yJ9ToU5faR7lubJK5/xHQ9g+C1Qyc7vjg03mQs8s2vLXlvV39x7rqW6Pd2Pqs71cwlIQAISkIAEJCABCUhAAhKQgARKj4AivPTumTOWQFERQEwjjBGjSESqoIkRoTqb99mG8OzXr18U0FSQcw0iEyF+/fXXR9Ga8sGRnIhmJHWSoWy0iVBGvBOjQaUv+dBUNyOkkdZEnCDXkZoIbwQ51czEnCCC6SsrwpHRfMaBNEfaUmlNbArRIIjabON8cr2pYmY9rH306NGx4pi5In+pokayI5Lpi4Ocb8Q1Mpjsb77nc+bPQwMalepEyzAuFdUnO5DtXbt2ragIZ/5karNeuNNnksOJIXKYqnEqwpHz2YpwHiAguBH6jEtlN2ujsp2xkMxIcfLUqb5m7mzISQU9sSTMhc+IKeHhBBXY8IYN/aQMeXLhOQ8O6SBbvkGDBjFjPn3GKzE6PFzINtZJv2Szsz4eFvA7Qb5Toc5vibWxhtNpPIzhN8lDAGNUToec50pAAhKQgAQkIAEJSEACEpCABEqDgCK8NO6Ts5RA0RJASpPFjChFwiJaiawgWxopjHROjfxncrSR0lRsI1mJ3UCCU4GM2KRiGGlK1TRyOzUEKHEkiGNyoZHtyNsXXnghVhFTqc17qqIR40SsMDZymP7I7KZCm1zvXBGexkAUI8K7d+8ekO5ch2ynSjlJYyrFifhgDGQv75HDPADgGqqd2ZSSynKqrxH2+Q5EP8yQ6h988EGcAtX1VISzPuZxsgNpzTipIjytgcpmqrSJOoEzESkIZSJkqKinUp2KcER5ksyw5R6yjsSN+0OlNVIZ0Uy0DNKb2BU2KuWAPZEwMOIBAXxZN3NDpMOMzzkHcY3wZvNTzktMqOxnXDZM5V8A8DAjfcf9T5XdvJLtzrXcY4Q3Ip4KdNbEvzTgt8f4/P6oVoc/mefpXxQkRvle+dcEd955Z5x3vs1B813jZxKQgAQkIAEJSEACEpCABCQgAQmUDgFFeOncK2cqgaIigOQkIxvhioBG5qZ4CaQpVb9UiyPHU6NSmcpb8p+RpyknGwFKVjhSGaGJZEaSI3CRn4yFrEUyI0GpIiemA7lN5TeCHTFLvjailWvpi+upFCb7mrgQZC+SmArpFI1CxTKyloPzBw4cGOUq4hWRiphHCiORmQf9EhNC1AfSmDXxGeOwtiTC6ZfPU9+5r7Nnz45rzifCkfxI8pMd9I9YzopwpD8ynrzzli1bxmpshDDrhzlr4AEDVdvcL86HK+siwgR2sKHimrGpik/3DA4IZirkuT+IdR50IJqJKeHecx1cYEH0CwyR6NzTRYsWxSp41p3kNr+LXbt2RaF+9tlnx1fud7bRZ5o394HfSopbYU7kt3MwLyJwiGjht4SMp7qbmB2y23P7zY7B36yB3yu/D8azSUACEpCABCQgAQlIQAISkIAEJFC/CCjC69f9dDUSqDMC5CgjXdmUknxpqqOpaCaLmwrg888/PwrK7CaFiFeqfJGViEquvemmm+IGjwhtBCTCkmplKn0RwkhtIkMQoghU5DsbQpJHzSt9UvVMNTlynCppRDXxJJ07d46bMCKb+Y5oD6rKmXsS4Qh7qszTwfXIcBprQeqTu01lNFIfWc41CNM0JyQwB0I5ifDcflP/6ZVMdebDeakiPEWjJPEOj6oOxC99UFGNzIYNY8OFinXEMtEzcOHBAXypjKZ6mngShDgcqI5H6HMOcp01sE4eLBBpQtU4Ihm5TtU7a+YeIJ33799/woEY5zvuCw2xToY6DwKIg8kV4fyGGJfoGH4TubEkzBGRzj0h95yqbaQ64zBP1oyg5zeVImD4nKpy5k9kC/EpVJLbJCABCUhAAhKQgAQkIAEJSEACEihfAorw8r33rlwC/4oAkpiqYWQzlclEm5DvTc4y4vmcc86JER9I1NTYDHHQoEEVGdPkYSPDyQ3nc+Q30pnMaTKiEaecQ3wK8SSIV/pDilIZTsU1B5XYVB4j0BHLiPGdO3fGTTQRz8wTYYrEpsIZmct7+if+hGs52AiSOJAkwjkPcU5FNQKWamcqncn4RvAjnxHVVI4jmLmefpHp9MscUt+5r4hsJDZ520mE8yCB+SLx4XCyg1gQIk6oCEdeU9HMHHmwQIV+o0aNIjvWQmY3IhwhzflIZyq6uY4DsY0sRn4jvokGYc0cRMkgwLkHxM9wPudxn4lKyR7E4Vx++eVRdqdIHO4NFdtU67MhZq4I5/4xNg9TeKWaPNtSvA3z5YApm7Byr2HO/aEyHJ48EKBxX/h9cr+Q6FSusw6bBCQgAQlIQAISkIAEJCABCUhAAuVLQBFevvfelUugxgRSTEmS2AhTssLTwUaZbGpJ3jVZ0VRL06gKJsMZYUsMBwITaU18Beey2SGiFkHMQTU40R5UK1PBjNSkMrl3796xD64jpxo5SuUw4pMqayqGmSNyGDGLlKZamIprRG+qnkaEM6fU+Jxc7iTC+RxxTvQKghbRTaQLkp5MacbgM8TwhAkTKmWEI42TDE79Z1+pWkaAI715RfJT1UwFOhwQ8oyF8EcQU9lNzjYZ2uSL8zfZ2vBiM0uqumE2b968eA5V31SHwxBmbO5Jhjb3BimN7Gb+yH64MAaZ4jBgLmwwSqU1MSMIee4Va2ZNzIVcd5hkD/4lAOuhoh25TtQIfTJPZDxzSiKcfrg/cEPeE92CDOc3xIadWXbMCZHP2lkj37Em8ub5TRCXwnyR7qlfKsv5FwP8PrhHrNMmAQlIQAISkIAEJCABCUhAAhKQQPkSUISX77135RKoMQGkM5KTSnAqhYkNIQ4jHUhLoikQrohcRCTSFZGK9EWeIsARzEhsqqup/EZsI0Gp4KWymvxorkGGr169Olb9ch0SlAM5S7UyIphIFaQ2VenMjZYrwhG8iG0kbaoIP5UIR6wSKcLamBsilugR1kRDvpI/znyym2XynqrlVatW5T2obEcCI+6pbKbaGXG9bt26KHhZF2Mj9xHLCGmq4okcobqZ87kubVjJ2qiCRrAT20JVOt/DkKprJDscEd48iKBCncaDAf7mcyR5auvXr49rQmyTN861jMF95CEHgju38bvg4QjzpbodOY2kZoNNOFBJn0Q44/Jb4CECByKfyn365XeR3eASiQ1LZDpSHTHOZpmcy32BFQKd+04/PAhBgjNnqtR5OMB9P1ljPDiwxvTg5mTn+50EJCABCUhAAhKQgAQkIAEJSEACpUVAEV5a98vZSqAoCCCqx48fHxo3bhyzl3PFIbIU2UzVMMKSOBGkLp8jkKlSRpgiLvkMeUv+M5tnIrSpyqYqGulM31xL41yk6OHDh6MUpsIZ6YqARvpyHdXjSHNaVoQTYUKVNiIW2ZxEOJKUPjmQoVSsZyvCY0f/+w/zRLAirxH4NB4CkEnOmhCpKRqF6mcqzqs6kMscyGFkPGvlYQDXk5lN1XVqCGOEMhXQjAs3YmT4HDHMfHnwgKinJRGeHgggnblnVFyTlc6aU1QI4pjqcLjxUCM1WLM2zm/dunUcB+mPhGbT0VOJcIQ980BAMwZseIAAf6rzuR/Mh3VRDc49puof/lTDMz/mQON6fm+sFf6cy+8Kcc/fjMVDAHLDyaAntoUHBFSL9+3bN1acs+aTNa5DnPMb4eGBTQISkIAEJCABCUhAAhKQgAQkIIH6RUARXr/up6uRQJ0QoJoZGYpwRJYmUZ0dHDmJ1ESGUxVOtjQylupdPkNUUjlOy4pwrkMGE51CZAZVwkhOZC7V0VQzc1AdTPY0AhrJyRjIdaJCEKI0RDhzpIoc0cmYHMSEJBGOfGZTTg42l+zQoUOVIpz5El1CHjpiF0GLgCarGylPRXQS4VQoI9yprM53UOHMvMgIpyKaCnKiSMjxRuhToU0WNuKZhwrIWaQyLIibIfKFsVgL0S9IbL6jZUV4EtJ33HFHZMEGklRrI82ZP3/DDJnOnFOjb+4Va+WhBPcC7lToI+FPJcKZN2Mjvfl9JBHOWOR5I7Hpj9x27j+N+0WOPPKaKnKu4QEF62J+VMxTFY8gR9wzB34X/LZ4ZS08HKAKnH7ol8p5JDqbZTKnqhrMkP6wTw9SqjrXzyUgAQlIQAISkIAEJCABCUhAAhIoPQKK8NK7Z85YAgUnQJQJVd5kWCMf8zUEJkIxZVpTTYyQRMQiNJHDiE+qsJG/bJCJGEaa8lmqDk6ClupeBCrSF0maxkeo0ieyFomZ8rKZEwKZ65HACHX+5nokLwfV2lReI4A5kNxsQsl5NNZGpAjjIVbpn40o6Q8pjVxHxNMPDwQQrfRLLEluRjjfIWuRz7wid1lDly5dogRHCBPpgfxGdCN6EdHEi/A+HTBMm3cyB4Q2cpjqb9ZLSyIc9ilSBOFOpAnzoqKejHH64l6wXiQ84zM3KsSJqeFhBK/cC9YJI8ZkY1Nyw8kEzx7Mlc1TqdLPbUmEjxgxIvbJK/Pj89QQ3PwuiIHhviC1ebhAdTjzoOqf97QHH3wwrocHG9xT+HD/qCbn/nAtvyX+RQEPUFK+eRor95V1MX8e8lgRnkvH9xKQgAQkIAEJSEACEpCABCQggdInoAgv/XvoCiRQ9AQQykhuqpypfEYWk8VMhTiyfMmSJbGKFzmbGuIYuUx0BnIaaYw4p/o3RWYgUakEv/nmm2NeOAIXAZ8aFcnEiSCA+/XrFw+EMWKViJZrr702LFu2LJ0eRTbzpNqchvBH/lJpTpUy8yDOg7lQbYy0JU6DSmLGplUlwhHcxJqQlc26iEOhipvqZeQ0jFgf66bKG0FN5Xyad/YVJjBLUjgOnPlPEuHIa9ZP/ApzZJNNIkkYh4cHPHzgczLOEdowYZ484Bg1alSsuIcVTLmO2BrkMg8dunbtGqvEqRRPB0KdinqkdG6jSp/4GwQ6fIk4oc/cxprgyhhU2yPtuec8OEiin2t4cMADAe5LYgMv5kDVuTI7l6zvJSABCUhAAhKQgAQkIAEJSEAC5U1AEV7e99/VS6BOCFA5TTU18haZiqCmupvKXSRtx44dY9QK1dfZhoBFoLKpJDnguVnk9IOsppoXgYpEzjaEOdXlnMf3HPSJzOVvqqX37duXvST2lfK/qY5mfOI1Pvroo5g5jZAl7oO+EdpUVSON0zVViXAqkpHSbdu2jWtm3cSOUP3MAwHmlAQ/4pe1pjnnvlJVnuZQafL/e5NEOLKd2JjevXvHqm7EM+NwIPJ5GMHB33CCH31zH6iihg3n0tJ1/E11PXnucM0e9A8LJHVuo3Kd9RNRgqSGbeo7ey4MuEecz5wSE85Nf3M+62euuWx4T9+5v4XsGP4tAQlIQAISkIAEJCABCUhAAhKQQPkRUISX3z13xRKocwIIS+I7kK5JuKaKaiq0ibEg+oTq49yG8EScUg2cKzd5j4hFnGYlaW4f+d5zLX3Sf7bxnjnS6BOpSlUy5yJZs+dTWU1uOPKbedA4l/VQ4Z2dE5XWnMt604GIR5DTb2025krEB5EzPCRA5KfK7jQOYhkGHNl58p5zWQdc8zXWwQON3Ma16cFE7nf0RQV/+g3kfp/7Pld8537vewlIQAISkIAEJCABCUhAAhKQgAQkcDoEFOGnQ8tzJSABCZQAAcR2NkImK7pLYPpOUQISkIAEJCABCUhAAhKQgAQkIAEJ1DoBRXitI7VDCUiglAkgjctFHJfTWkv5N+ncJSABCUhAAhKQgAQkIAEJSEACEvj3BBTh/56hPUhAAvWIAFEouVnk9Wh5lZZCzAtrLRfxX2nxvpGABCQgAQlIQAISkIAEJCABCUigrAgowsvqdrtYCUjgVATef//9MGvWrFOdViffk5P91VdfnbChJ4MjsNnAk807T7chvskR//jjj+MGpsSoVNWYQ8oZZ3NQcsBzG/2RDc4mmuSSK9ZzCfleAhKQgAQkIAEJSEACEpCABCQggUITUIQX+g44vgQkUFQExo8fH4YNG1YxJzZ5RDrzunnz5rBs2bKwYsWKsHz58vg3MplNINMGm+nCLVu2hA8//DCsWrWqyoN+2Fjzhx9+SJdVvLL55vbt28Ps2bPjZpcVX/xvE082tHzwwQfjXLLf8TdV7Www+umnn54wNpuWIrOZ1yOPPBJuv/322Afr4DOuyVaJI8J37twZXnnllTB27NjIIHdzT/pbsmRJaNGiRdi0aZMiPPeG+F4CEpCABCQgAQlIQAISkIAEJCCBghNQhBf8FjgBCUigkAQQ3IjjdFDVPHTo0PgewfvTTz9FEczrrbfeGpo2bRrat28fWrduHRo3bhwuuuii8MILL8RK6Ow6EMznnntu6Ny5c5XHBRdcEM4666ywdOnS7KUB+bxjx44wbty4cNttt4W33norivg0R0Q139P3tGnTKubO91R379u3L0yaNCn07t07dOjQITBOp06d4vkPPPBAQGTfe++94dJLL42f8co6OnbsGHr16hW+/vrrOAcmRXU350+ZMiX06NEj3H333bH6O1v1zZiLFi2K60WE2yQgAQlIQAISkIAEJCABCUhAAhKQQLERUIQX2x1xPhKQQJ0SePXVV8Mtt9xScXTt2jW0a9cuSm+qpJHUEyZMiPEgyG0kOVXTEydODN27dw89e/YMa9euDYcPH6407zvvvDOeS2V4Vcf8+fND8+bNw9tvv13pWqq5mdc111wTJThxLYho5jlkyJAwePDg0K9fv9CkSZMos/ksHQhpsr/37t0bFi9eHO64445w8cUXh3fffTdWaxOnMn369HDzzTfHNSCu161bF5hv//79w3PPPRcOHjxYqaqbBwJUhb/22mvh6quvjv1yTmo8TFiwYEE477zz4hjpc18lIAEJSEACEpCABCQgAQlIQAISkECxEFCEF8udcB4SkEBBCKxcuTLGfhD9wYEMRhwTkYIwfv3116Oo/vnnn8OIESMCFdVHjhyJwhj5PGbMmEBMCTI42xDQ1157beyDfvIdjz/+eGjWrFlFRTh9UOk9derUcM8998SKcEQ1ESlEsjA/vkOKU7lOFAlins/SsX79+oppEM1CfArzJOcbeY1UHzRoULj88sujJKcvRD9C/7LLLosV6FS4M2a2UW2eBP3nn38eiG5JjVgYqtYR4Rs3bqwk0dM5vkpAAhKQgAQkIAEJSEACEpCABCQggUISUIQXkr5jS0ACBSfA5o6I3XQQGYLApkr7vvvuC88//3xALu/fvz+KY74n03v48OFh9OjRMeM73yIQ4RdeeGHMGydzPN9BVfc555xTIcKPHTsWK6vvuuuuMHLkyFh5To44AjrbiE4hvoQ4E6q0q2ozZ86MIvzFF1+Mm2OyVoQ1IpzIFGR4nz59YlU6Epz53HDDDTH6hfOQ3VSCwwYhz8adxKBkY1EYm+iUOXPmxGgUNtSkIt0mAQlIQAISkIAEJCABCUhAAhKQgASKiYAivJjuhnORgATqnMATTzwRK8CpAuegyho5zWvbtm2jzEYWz5o1K0pjBDdRJzfeeGN48803q5S+yOxRo0bFTTSpmM53INhbtWpVEY2CUKZyHKlM5fY777wTxTSV4Fn5XF0RTtX4o48+GjO9kdPMgaxzqitY6EgAAAtTSURBVL1ZEznixKIgxd977734PbL7iiuuCPPmzYvV3VScd+nSJbRp0ybGqVAZntvok3mTn75w4cI4Ru45vpeABCQgAQlIQAISkIAEJCABCUhAAoUkoAgvJH3HloAECk7gyy+/DKtWrQpEpCCD2QySTSGJLSFvm88/+eST8M0338QqcHK6Of/6668Ps2fPjhtV5lsEwpy8cSrIqzrI6W7UqFFFRTjV1oyze/fuOJcBAwbEiBSuZ17Zg407EfXXXXddpc+JdCEPHDlNpjkbYbLhZpoD2ePEvFD5/dJLL4XNmzdHEU7lOe3bb7+NInzu3LnxvA0bNkQGZIgjz5HpuY2q8WeffTZuHkoFPfEuNglIQAISkIAEJCABCUhAAhKQgAQkUEwEFOHFdDeciwQkUBACZHMfOHAgLFmyJEaSUM1N1Xc2B5uJkdudKsKJOkH6bt26Ne+ciSNBHj/99NNVHo888kisLGfzzdSo/EZOI+LZSBNxTU45lev5Ds5jXmysef/994dp06ZFEc6mmL179w5XXXVVzDtHkCO/OQeZjchHkJMPTvX7uHHjYjU31edUiL/xxhtpSvEV0d2rV6+8IpzNQskip2qcHHU2GbVJQAISkIAEJCABCUhAAhKQgAQkIIFiIqAIL6a74VwkIIE6J0DUB1XYxJAgji+55JJYPc3mkhzkapMJThwJwpnNMokwQSCTIY44piHTDx06FM/nGqrLP/jgg4r3fEa1NdnevPJ+27ZtUXITkcJ7DsYisqRbt26xWpxq9MOHD1d8n85Lr/TFOIh58rn37dsX+0XAE/WCoE4NGY4IJ4ucSvLOnTuHq6++OkbBkBGOHGfTTCJOkO/ZlhXhsKB6nTUj7ufPnx+rz/v27Rs4yBfnHJsEJCABCUhAAhKQgAQkIAEJSEACEigWAorwYrkTzkMCEigIgY0bNwaytMnBZvNJXpMUTmKYymlkdBLhCGCuY7NMIkeQwch0qsCpwOZAqBNLkt7zSr9soMkmlbwnixtZnd6zSSdyndgTPjv33HPDZ599FogpoeI721f2b+bcrFmzKM+JWyGbHCGN6KZiPDVEOPNlLcSuPPPMM+HDDz8M7dq1i/IaiY6UZ+6MmW1ZEY5I5yEBkShkj/MdWeJExSDSX3jhhThGNtc825d/S0ACEpCABCQgAQlIQAISkIAEJCCBuiagCK9r4o4nAQkUDQGqlolDQeIig19++eX4ns/SgVQmG5tq7yTCuY6c7YcffjiQGU47cuRIlONUQ3MQNcK1Y8eOjYKYzSfZuPKss84KTz31VDwnnZte2XwTmU41NuckEU6OOZL5sccei9En6Xxe6Zd5NGzYMIptKtGXL18eN9wkCoV+UkOEkzOOxB44cGCYOnXqSTPC03W8IrupHt+1a1eYMWNGvBaJTqwLXEaOHBnYaJOKcyJf2Ozzr7/+ynbh3xKQgAQkIAEJSEACEpCABCQgAQlIoGAEFOEFQ+/AEpBAoQkgtMmzpkq6ffv2UR6TrZ09HnrooUoinHPJ2EaEjxkzJgwZMqTSMuiTuJWZM2dGeUxsCVnjfM7fiHA2qURWZw+EMsKbV+JOENpJhDMAkSmTJ08Oy5YtizEpaVD6ZXNMNt2kepxGbAmbZSKnc0U41e1UsyP3kdZkkLdq1SpGvbAxKGK9U6dOASmfGkKb6nGq2ZHnMCB65e233479k4XO3KgOX7x4cayUhw3Cnc9sEpCABCQgAQlIQAISkIAEJCABCUig0AQU4YW+A44vAQkUnADV3y1btozRJVQ9Zw/iRbIV4bfffnuMBEFYI5rZPDPbkODkgA8fPjwMGjQoZo9TTU6cClXSDRo0iNK9a9euIXsMHjw4vPbaa1Gw0x+SPIlwIka2b98eM7ypXkdSI8Bp+UR4mg955kSjEGXCQQTMTTfdFBYsWBCuvPLKuCkmcTBnn312RWQLUS1I9ZQRzthcy0adjRs3juchvYlQWb16dYx3oep906ZNMSLm4MGDUY736NEjZofv3bu3Yq5pXr5KQAISkIAEJCABCUhAAhKQgAQkIIG6JqAIr2vijicBCRQdAUQ4VdCIaoRz9kAeZ0U4edzkcHfv3j1GqlD5nRrVz1988UUU5P37948bUiLDZ82aFT7//POwcOHCKJ3nzJkTN7Rks8x0kLd94MCBijiRrAinf6JXEM/kh1PJTQwJ451KhCP1iW/h6NevX5TzRJcg9KkGZ05t2rSJEp65My6CPlWE0z9xKMjuXr16xciYrVu3RslNNTwHFenIchrV6CtWrIhZ5+ScM8bu3bsTIl8lIAEJSEACEpCABCQgAQlIQAISkEBBCCjCC4LdQSUggWIigAgnGoW4j2nTplU6hg0bVkmEI8UR21OmTIlSeMeOHXEpSGyiT8jxJn970qRJUS4TTUI2OJXZxJJQfU20CN+zqSSvHBMnTozjEotC9XiuCCee5JdffonZ4sSXUHVO9TkbXyKtmzRpUhGNktgioZkPleYc06dPj++p1mY85PzmzZtjZTiRK0hspDUCO22WSUX4jz/+GIhNoZJ8//79UYIj45Hg5JR/9913acj4SozL0qVLI4cRI0ZETqmCvdKJvpGABCQgAQlIQAISkIAEJCABCUhAAnVEQBFeR6AdRgISKF4CiPC2bdsG4kmIOskePXv2DH379q20WWbuSpDFVE2z0SUSnE0pyftGXFNdTiY4G0reeOONsa8BAwbEymyqxTmf92xsiSinQpwM8lwRnsakMpxqcLLN16xZE3O6kexEnCC1s424Eqq8U0NiU41OxTcZ5ES2UN3drVu3sGjRooDUJ+P7mmuuiZXi6TpeEfEIel6R6KyHhwaIeNaf25DnyHSqz5HlXGeTgAQkIAEJSEACEpCABCQgAQlIQAKFIqAILxR5x5WABIqGAJs+UgWNvEb2Zg+qqJHUbI6J/CV3O18jGmTLli1RYP/6668VchhJnCQy/RJnwkE1N+dxXToQ4KlyuioRzthUWyO+mzVrFpo2bRrI9WZzSqrEs42+spIa0Y0Ip5p7z5498TukOg8AqHCncp1MdCq9Ee1VtW+++SZuhMm6sv1nz0/rZk2s1yYBCUhAAhKQgAQkIAEJSEACEpCABApJQBFeSPqOLQEJFAUBYk3Y/DLlXGcnRezHxo0boxynejpbYZ09DylMBTibRSaZnf0+929EcTqSsM5KZSJSZsyYEYgZyW1UdpMXjiznWLt2bazmRjqfrB09ejTGmFB1joSnsWYqyZHbiHL6RehTLV5VQ+JXV26nNVbVl59LQAISkIAEJCABCUhAAhKQgAQkIIG6IKAIrwvKjiEBCdQLAnUpdZHNe/furbZwrg7gNP/qiPrq9Oc5EpCABCQgAQlIQAISkIAEJCABCUigVAgowkvlTjlPCUhAAhKQgAQkIAEJSEACEpCABCQgAQlIQAISqBEBRXiNsHmRBCQgAQlIQAISkIAEJCABCUhAAhKQgAQkIAEJlAoBRXip3CnnKQEJSEACEpCABCQgAQlIQAISkIAEJCABCUhAAjUioAivETYvkoAEJCABCUhAAhKQgAQkIAEJSEACEpCABCQggVIhoAgvlTvlPCUgAQlIQAISkIAEJCABCUhAAhKQgAQkIAEJSKBGBBThNcLmRRKQgAQkIAEJSEACEpCABCQgAQlIQAISkIAEJFAqBBThpXKnnKcEJCABCUhAAhKQgAQkIAEJSEACEpCABCQgAQnUiIAivEbYvEgCEpCABCQgAQlIQAISkIAEJCABCUhAAhKQgARKhYAivFTulPOUgAQkIAEJSEACEpCABCQgAQlIQAISkIAEJCCBGhFQhNcImxdJQAISkIAEJCABCUhAAhKQgAQkIAEJSEACEpBAqRD4P+b3+oCwOAGcAAAAAElFTkSuQmCC;" vertex="1" parent="1">
          <mxGeometry x="30" y="190" width="1474" height="619" as="geometry" />
        </mxCell>
        <mxCell id="xayG-Btkx8n_wcvoAhUc-26" value="本地消息表方案" style="text;html=1;strokeColor=none;fillColor=none;align=center;verticalAlign=middle;whiteSpace=wrap;rounded=0;" vertex="1" parent="1">
          <mxGeometry x="42" y="160" width="278" height="20" as="geometry" />
        </mxCell>
      </root>
    </mxGraphModel>
  </diagram>
</mxfile>
